<?xml version="1.0" encoding="UTF-8"?>
<svg width="100px" height="100px" viewBox="0 0 100 100" version="1.1" xmlns="http://www.w3.org/2000/svg" xmlns:xlink="http://www.w3.org/1999/xlink">
    <!-- Generator: Sketch 50 (54983) - http://www.bohemiancoding.com/sketch -->
    <title>Group 2</title>
    <desc>Created with Sketch.</desc>
    <defs></defs>
    <g id="Page-1" stroke="none" stroke-width="1" fill="none" fill-rule="evenodd">
        <g id="公司信息-2-copy-7" transform="translate(-99.000000, -672.000000)">
            <g id="Group-2" transform="translate(99.000000, 672.000000)">
                <circle id="Oval-3-Copy-8" fill="#5FC1F1" cx="50" cy="50" r="50"></circle>
                <path d="M67.0027337,47.2154806 C66.3548793,47.1300527 65.6939914,47.08597 65.0228075,47.08597 C56.7385362,47.08597 50.0228075,53.8016988 50.0228075,62.08597 C50.0228075,65.3539429 51.0678679,68.3778289 52.8420215,70.8416605 L26,70.8416605 L26,23 L53.6717496,23.305959 L67.0027337,36.636943 L67.0027337,47.2154806 Z M52.2711542,28.7187516 L52.2711542,38.8747566 L62.4287491,38.8747566 L52.2711542,28.7187516 Z M34.1812564,39.51207 L34.1812564,42.737291 L44.7223835,42.737291 L44.7223835,39.51207 L34.1812564,39.51207 Z M34.1949266,46.0021084 L34.1949266,49.0750718 L47.2273271,49.0750718 L47.2273271,46.0021084 L34.1949266,46.0021084 Z M34.3401134,52.9121515 L34.3401134,56.0166977 L44.4645355,56.0166977 L44.4645355,52.9121515 L34.3401134,52.9121515 Z M65.0228075,74.08597 C58.3953905,74.08597 53.0228075,68.713387 53.0228075,62.08597 C53.0228075,55.458553 58.3953905,50.08597 65.0228075,50.08597 C66.444207,50.08597 67.8078861,50.3331008 69.0732213,50.7867391 L63.7748191,61.3841668 L74.9888365,55.3995678 C76.2732966,57.3102698 77.0228075,59.6105911 77.0228075,62.08597 C77.0228075,68.713387 71.6502245,74.08597 65.0228075,74.08597 Z" id="Combined-Shape" fill="#FFFFFF"></path>
            </g>
        </g>
    </g>
</svg>