<?xml version="1.0" encoding="UTF-8"?>
<svg width="59px" height="59px" viewBox="0 0 59 59" version="1.1" xmlns="http://www.w3.org/2000/svg" xmlns:xlink="http://www.w3.org/1999/xlink">
    <!-- Generator: Sketch 50 (54983) - http://www.bohemiancoding.com/sketch -->
    <title>business</title>
    <desc>Created with Sketch.</desc>
    <defs>
        <filter x="-50.0%" y="-26.9%" width="200.0%" height="200.0%" filterUnits="objectBoundingBox" id="filter-1">
            <feOffset dx="0" dy="9" in="SourceAlpha" result="shadowOffsetOuter1"></feOffset>
            <feGaussianBlur stdDeviation="5" in="shadowOffsetOuter1" result="shadowBlurOuter1"></feGaussianBlur>
            <feColorMatrix values="0 0 0 0 0.796078431   0 0 0 0 0.847058824   0 0 0 0 0.992156863  0 0 0 0.5 0" type="matrix" in="shadowBlurOuter1" result="shadowMatrixOuter1"></feColorMatrix>
            <feMerge>
                <feMergeNode in="shadowMatrixOuter1"></feMergeNode>
                <feMergeNode in="SourceGraphic"></feMergeNode>
            </feMerge>
        </filter>
    </defs>
    <g id="Page-1" stroke="none" stroke-width="1" fill="none" fill-rule="evenodd">
        <g id="会员卡-普通会员-copy-5" transform="translate(-346.000000, -611.000000)" fill="#2F63F4" fill-rule="nonzero">
            <g id="business" filter="url(#filter-1)" transform="translate(356.000000, 612.000000)">
                <path d="M30.0447761,18.5 C31.0298507,18.5 32.0149254,18.7434211 33,18.9868421 L33,10.7105263 L21.9179104,0 L8,0 C3.581722,8.11624501e-16 -5.41083001e-16,3.581722 0,8 L0,29 C-1.42102658e-15,33.418278 3.581722,37 8,37 L21.1791045,37 C19.7014925,34.8092105 18.7164179,32.375 18.7164179,29.6973684 C18.7164179,23.3684211 23.8880597,18.5 30.0447761,18.5 Z M20.6865672,4.13815789 L29.0597015,12.4144737 L20.6865672,12.4144737 L20.6865672,4.13815789 Z M6.40298507,12.6578947 L14.7761194,12.6578947 L14.7761194,15.0921053 L6.40298507,15.0921053 L6.40298507,12.6578947 Z M14.5298507,25.5592105 L6.40298507,25.5592105 L6.40298507,23.125 L14.7761194,23.125 L14.5298507,25.5592105 Z M16.7462687,20.2039474 L6.40298507,20.2039474 L6.40298507,17.7697368 L16.7462687,17.7697368 L16.7462687,20.2039474 Z" id="Shape"></path>
                <path d="M29.2894737,29.5263158 L34.2631579,22.1842105 C32.8421053,21.4736842 31.4210526,21 30,21 C25.0263158,21 21,25.0263158 21,30 C21,34.9736842 24.7894737,39 29.5263158,39 L30,39 C34.9736842,39 38.7631579,35.2105263 39,30.2368421 L29.2894737,29.5263158 Z" id="Shape"></path>
            </g>
        </g>
    </g>
</svg>