<?xml version="1.0" encoding="UTF-8"?>
<svg width="58px" height="59px" viewBox="0 0 58 59" version="1.1" xmlns="http://www.w3.org/2000/svg" xmlns:xlink="http://www.w3.org/1999/xlink">
    <!-- Generator: Sketch 50 (54983) - http://www.bohemiancoding.com/sketch -->
    <title>Group 5</title>
    <desc>Created with Sketch.</desc>
    <defs>
        <filter x="-51.3%" y="-26.9%" width="202.6%" height="200.0%" filterUnits="objectBoundingBox" id="filter-1">
            <feOffset dx="0" dy="9" in="SourceAlpha" result="shadowOffsetOuter1"></feOffset>
            <feGaussianBlur stdDeviation="5" in="shadowOffsetOuter1" result="shadowBlurOuter1"></feGaussianBlur>
            <feColorMatrix values="0 0 0 0 0.796078431   0 0 0 0 0.847058824   0 0 0 0 0.992156863  0 0 0 0.5 0" type="matrix" in="shadowBlurOuter1" result="shadowMatrixOuter1"></feColorMatrix>
            <feMerge>
                <feMergeNode in="shadowMatrixOuter1"></feMergeNode>
                <feMergeNode in="SourceGraphic"></feMergeNode>
            </feMerge>
        </filter>
    </defs>
    <g id="Page-1" stroke="none" stroke-width="1" fill="none" fill-rule="evenodd">
        <g id="会员卡-普通会员-copy-5" transform="translate(-597.000000, -611.000000)" fill="#2F63F4">
            <g id="Group-5" filter="url(#filter-1)" transform="translate(607.000000, 612.000000)">
                <path d="M30,13.4581253 C28.88376,13.1593166 27.7104852,13 26.5,13 C22.5482377,13 18.9930516,14.6979451 16.5241962,17.4040812 C16.2561045,17.1534295 15.8959699,17 15.5,17 L8.5,17 C7.67157288,17 7,17.6715729 7,18.5 C7,19.3284271 7.67157288,20 8.5,20 L14.6649732,20 C13.6037397,21.9281585 13,24.1435738 13,26.5 C13,32.1480272 16.4684511,36.9859543 21.3915722,39 L8,39 C3.581722,39 5.41083001e-16,35.418278 0,31 L0,8 C-5.41083001e-16,3.581722 3.581722,8.11624501e-16 8,0 L22,0 C26.418278,-8.11624501e-16 30,3.581722 30,8 L30,13.4581253 Z M8.5,9 C7.67157288,9 7,9.67157288 7,10.5 C7,11.3284271 7.67157288,12 8.5,12 L15.5,12 C16.3284271,12 17,11.3284271 17,10.5 C17,9.67157288 16.3284271,9 15.5,9 L8.5,9 Z" id="Combined-Shape"></path>
                <path d="M28,25 L28,22.5 C28,21.6715729 27.3284271,21 26.5,21 C25.6715729,21 25,21.6715729 25,22.5 L25,26.5 C25,27.3284271 25.6715729,28 26.5,28 L30.5,28 C31.3284271,28 32,27.3284271 32,26.5 C32,25.6715729 31.3284271,25 30.5,25 L28,25 Z M26.5,38 C20.1487254,38 15,32.8512746 15,26.5 C15,20.1487254 20.1487254,15 26.5,15 C32.8512746,15 38,20.1487254 38,26.5 C38,32.8512746 32.8512746,38 26.5,38 Z" id="Combined-Shape"></path>
            </g>
        </g>
    </g>
</svg>