<?xml version="1.0" encoding="UTF-8"?>
<svg width="100px" height="100px" viewBox="0 0 100 100" version="1.1" xmlns="http://www.w3.org/2000/svg" xmlns:xlink="http://www.w3.org/1999/xlink">
    <!-- Generator: Sketch 50 (54983) - http://www.bohemiancoding.com/sketch -->
    <title>Group 4</title>
    <desc>Created with Sketch.</desc>
    <defs></defs>
    <g id="Page-1" stroke="none" stroke-width="1" fill="none" fill-rule="evenodd">
        <g id="公司信息-2-copy-7" transform="translate(-325.000000, -672.000000)">
            <g id="Group-4" transform="translate(325.000000, 672.000000)">
                <g id="Group-3" fill="#F7BE17">
                    <circle id="Oval-3-Copy-10" cx="50" cy="50" r="50"></circle>
                </g>
                <path d="M67.776511,40.0361503 L59.776511,40.0361503 L59.776511,38.0361503 C59.776511,36.9315808 60.6719415,36.0361503 61.776511,36.0361503 L65.776511,36.0361503 C66.8810805,36.0361503 67.776511,36.9315808 67.776511,38.0361503 L67.776511,40.0361503 Z M67.776511,42.0361503 L67.776511,63.0361503 L63.776511,66.2555666 L59.776511,63.0361503 L59.776511,42.0361503 L67.776511,42.0361503 Z M62.776511,46.0361503 C62.2242262,46.0361503 61.776511,46.4838655 61.776511,47.0361503 L61.776511,53.0361503 C61.776511,53.588435 62.2242262,54.0361503 62.776511,54.0361503 C63.3287957,54.0361503 63.776511,53.588435 63.776511,53.0361503 L63.776511,47.0361503 C63.776511,46.4838655 63.3287957,46.0361503 62.776511,46.0361503 Z" id="Combined-Shape" fill="#FFFFFF" transform="translate(63.776511, 51.145858) rotate(40.000000) translate(-63.776511, -51.145858) "></path>
                <path d="M69.0183983,35.1671118 L69.0183983,31.0827104 C69.0183983,27.7690019 66.3321068,25.0827104 63.0183983,25.0827104 L33.3267346,25.0827104 C30.0130261,25.0827104 27.3267346,27.7690019 27.3267346,31.0827104 L27.3267346,68.4656318 C27.3267346,71.7793403 30.0130261,74.4656318 33.3267346,74.4656318 L63.0183983,74.4656318 C66.3321068,74.4656318 69.0183983,71.7793403 69.0183983,68.4656318 L69.0183983,59.0058309" id="Path-25" stroke="#FFFFFF" stroke-width="4"></path>
                <path d="M35,39 L62.9048473,39" id="Path-26" stroke="#FFFFFF" stroke-width="4" stroke-linecap="round"></path>
                <path d="M35,50 L53,50" id="Path-26-Copy" stroke="#FFFFFF" stroke-width="4" stroke-linecap="round"></path>
                <path d="M35,61 L46,61" id="Path-26-Copy-2" stroke="#FFFFFF" stroke-width="4" stroke-linecap="round"></path>
            </g>
        </g>
    </g>
</svg>