<?xml version="1.0" encoding="UTF-8"?>
<svg width="100px" height="100px" viewBox="0 0 100 100" version="1.1" xmlns="http://www.w3.org/2000/svg" xmlns:xlink="http://www.w3.org/1999/xlink">
    <!-- Generator: Sketch 50 (54983) - http://www.bohemiancoding.com/sketch -->
    <title>Group 5</title>
    <desc>Created with Sketch.</desc>
    <defs></defs>
    <g id="Page-1" stroke="none" stroke-width="1" fill="none" fill-rule="evenodd">
        <g id="公司信息-2-copy-7" transform="translate(-563.000000, -672.000000)">
            <g id="Group-5" transform="translate(563.000000, 672.000000)">
                <circle id="Oval-3-Copy-11" fill="#EC9747" cx="50" cy="50" r="50"></circle>
                <polygon id="Path-27" fill="#FFFFFF" points="36.9049533 28.247067 36.9049533 42.081309 38.8749385 42.081309 38.8749385 28.247067 44.9450598 28.247067 44.9450598 42.081309 47.0626895 42.081309 47.0626895 28.247067 50.8837095 28.247067 52.982036 32.3451162 52.982036 46.0160623 44.9450598 46.0160623 44.9450598 51.717333 47.0626895 51.717333 47.0626895 74.1123502 44.9450598 75.5569713 38.8749385 75.5569713 36.9049533 74.1123502 36.9049533 51.9020191 38.8749385 51.9020191 38.8749385 46.0160623 31.045082 46.0160623 31.045082 32.3451162 32.8606404 28.247067"></polygon>
                <polygon id="Path-28" fill="#FFFFFF" points="58.8805139 34.2660605 58.8805139 56.080412 64.6224782 56.080412 64.6224782 75.9847753 68.9876441 75.9847753 68.9876441 28.5047928 63.934079 28.5047928"></polygon>
            </g>
        </g>
    </g>
</svg>