<?xml version="1.0" encoding="UTF-8"?>
<svg width="80px" height="80px" viewBox="0 0 80 80" version="1.1" xmlns="http://www.w3.org/2000/svg" xmlns:xlink="http://www.w3.org/1999/xlink">
    <!-- Generator: Sketch 50 (54983) - http://www.bohemiancoding.com/sketch -->
    <title>xiche</title>
    <desc>Created with Sketch.</desc>
    <defs>
        <filter x="-32.5%" y="-17.5%" width="165.0%" height="165.0%" filterUnits="objectBoundingBox" id="filter-1">
            <feOffset dx="0" dy="9" in="SourceAlpha" result="shadowOffsetOuter1"></feOffset>
            <feGaussianBlur stdDeviation="5" in="shadowOffsetOuter1" result="shadowBlurOuter1"></feGaussianBlur>
            <feColorMatrix values="0 0 0 0 0.796078431   0 0 0 0 0.847058824   0 0 0 0 0.992156863  0 0 0 0.5 0" type="matrix" in="shadowBlurOuter1" result="shadowMatrixOuter1"></feColorMatrix>
            <feMerge>
                <feMergeNode in="shadowMatrixOuter1"></feMergeNode>
                <feMergeNode in="SourceGraphic"></feMergeNode>
            </feMerge>
        </filter>
    </defs>
    <g id="Page-1" stroke="none" stroke-width="1" fill="none" fill-rule="evenodd">
        <g id="我的卡券-copy-13" transform="translate(-335.000000, -956.000000)" fill="#2F63F4" fill-rule="nonzero">
            <g id="xiche" filter="url(#filter-1)" transform="translate(345.000000, 957.000000)">
                <path d="M0.0301952679,59.95699 L0.0301952679,41.1529736 L1.69714507,41.1529736 L1.3501865,37.7486269 L5.17159614,33.6666044 L0.0239592188,33.6666044 L0.0239592188,29.9852665 L7.56439728,29.9852665 L7.56439728,30.905738 L13.6956203,23.427455 C24.0568185,23.427455 35.92742,23.427455 46.2873846,23.427455 L52.7162259,31.2883998 L52.7162259,29.9852665 L59.9826195,29.9852665 L59.9826195,33.5980761 L54.7410988,33.5980761 L58.6343946,37.748627 L58.2858599,41.1431742 L59.9821398,41.1529737 L59.9826195,59.95699 L49.4213874,59.9569214 L49.4213874,56.4691073 L10.6613948,56.4691073 L10.6613948,59.9569215 L0.0301952679,59.9569214 L0.0301952679,59.95699 Z M11.4526905,0.0231368304 L47.8069302,0.0231368304 L49.6101142,4.3333585 L47.458464,4.3333585 L49.0172763,8.54503661 L45.8476389,9.75442326 L43.8276315,4.33329 L40.0567957,4.33329 L40.9021602,9.52971911 L37.5547605,10.0834959 L36.6181163,4.33329 L31.0771271,4.33329 L31.0771271,9.91484792 L27.6842246,9.91484792 L27.6842246,4.33329 L22.5387805,4.33329 L21.6005602,10.0834959 L18.2550792,9.52971911 L19.0988677,4.33329 L15.3279634,4.33329 L13.3078875,9.75442326 L10.1398947,8.54503661 L11.6971994,4.3333585 L9.64799893,4.3333585 L11.4526905,0.0231368304 Z M53.6138776,20.3945314 L50.4441717,21.5999434 L52.9379834,28.1219146 L56.1061132,26.9165711 L53.6138776,20.3945314 Z M49.9977785,11.1164224 L46.8278671,12.3217659 L49.3218844,18.8438056 L52.4898771,17.6383936 L49.9977785,11.1164224 Z M41.3532132,12.2418619 L38.0075952,12.7965297 L39.1560603,19.6842361 L42.50346,19.1238806 L41.3532132,12.2418619 Z M5.54144317,20.3945314 L3.04749435,26.9165026 L6.21733734,28.1219146 L8.71128616,21.5998063 L5.54144317,20.3945314 Z M9.15911833,11.1164224 L12.325672,12.3217659 L9.83350487,18.8438056 L6.66537509,17.6383936 L9.15911833,11.1164224 Z M17.802039,12.2418619 L21.1476569,12.7965297 L19.9978213,19.6842361 L16.6519978,19.1238806 L17.802039,12.2418619 Z M27.6841561,12.6678335 L31.0770586,12.6678335 L31.0770586,19.6468882 L27.6841561,19.6468882 L27.6841561,12.6678335 Z M5.41274712,39.8059822 L6.57245083,45.1535161 L18.6099872,45.1535161 L18.2238305,43.2737861 L5.41274712,39.8059822 Z M12.0162669,48.284298 L13.0586502,52.6480403 C20.8806708,52.6480403 38.2843123,52.6480403 46.1047568,52.6480403 L47.1473457,48.284298 L12.0162669,48.284298 Z M54.6563294,39.8059822 L41.8468907,43.2737861 L41.4591579,45.1535161 L53.4966942,45.1535161 L54.6563294,39.8059822 Z M10.9036422,32.4775021 C22.9200033,32.3797122 37.1718931,32.3797122 49.0775126,32.4775021 L44.3422102,26.3007763 C35.2756478,26.3007763 24.7050273,26.3007763 15.6418228,26.3007763 L10.9036422,32.4775021 Z" id="Shape"></path>
            </g>
        </g>
    </g>
</svg>