<?xml version="1.0" encoding="UTF-8"?>
<svg width="100px" height="100px" viewBox="0 0 100 100" version="1.1" xmlns="http://www.w3.org/2000/svg" xmlns:xlink="http://www.w3.org/1999/xlink">
    <!-- Generator: Sketch 50 (54983) - http://www.bohemiancoding.com/sketch -->
    <title>Group 6</title>
    <desc>Created with Sketch.</desc>
    <defs></defs>
    <g id="Page-1" stroke="none" stroke-width="1" fill="none" fill-rule="evenodd">
        <g id="公司信息-2-copy-7" transform="translate(-95.000000, -897.000000)">
            <g id="Group-6" transform="translate(95.000000, 897.000000)">
                <circle id="Oval-3-Copy-9" fill="#5FF1A8" cx="50" cy="50" r="50"></circle>
                <polygon id="Path-29" fill="#FFFFFF" points="36.6725737 26.0821371 35.2385292 29.3067193 64.1175076 29.3067193 62.8987043 26.0821371"></polygon>
                <path d="M38.4953976,28.6334179 L31.4166528,46.0803983" id="Path-30" stroke="#FFFFFF" stroke-width="3" stroke-dasharray="4"></path>
                <path d="M42.5124057,28 L41,39.979854" id="Path-31" stroke="#FFFFFF" stroke-width="3" stroke-dasharray="4"></path>
                <path d="M49.5124057,28 L49.5124057,40.5" id="Path-31-Copy" stroke="#FFFFFF" stroke-width="3" stroke-dasharray="4"></path>
                <path d="M56.5124057,28 L58.5,40.5" id="Path-31-Copy-2" stroke="#FFFFFF" stroke-width="3" stroke-dasharray="4"></path>
                <path d="M61.5124057,28 L68.5,46.5" id="Path-31-Copy-3" stroke="#FFFFFF" stroke-width="3" stroke-dasharray="4"></path>
                <path d="M37.9439108,43.2308145 L61.948254,43.2308145 L66.6958918,48.5641675 L66.6958918,48.0233493 L71.8382124,48.0233493 L71.8382124,50.7691091 L68.0903399,50.7691091 L70.6077998,53.6102383 L70.6077998,56.2048741 L71.8382124,56.2048741 L71.8382124,69.9521599 L64.1156347,69.9521599 L64.1156347,67.4625772 L35.6656081,67.4625772 L35.6656081,69.9521599 L28.1281939,69.9521599 L28.1281939,56.2048741 L29.205135,56.2048741 L29.205135,53.6102383 L31.8528843,50.7691091 L28.1281939,50.7691091 L28.1281939,48.0233493 L33.362656,48.0233493 L33.8465459,48.5641675 L37.9439108,43.2308145 Z M39.6089146,45.1731234 L36.1172191,49.6273167 L63.6420154,49.6273167 L60.3569047,45.1731234 L39.6089146,45.1731234 Z M32,55 L32.9733553,58.9570985 L41.6998064,58.9570985 L41.2611069,57.6345443 L32,55 Z M68.6998064,55 L59.4386995,57.6345443 L59,58.9570985 L67.7264512,58.9570985 L68.6998064,55 Z M36.891619,61.4129263 L37.8526496,64.3814104 L61.6219438,64.3814104 L62.7657902,61.4129263 L36.891619,61.4129263 Z" id="Combined-Shape" fill="#FFFFFF"></path>
            </g>
        </g>
    </g>
</svg>