<?xml version="1.0" encoding="UTF-8"?>
<svg width="100px" height="100px" viewBox="0 0 100 100" version="1.1" xmlns="http://www.w3.org/2000/svg" xmlns:xlink="http://www.w3.org/1999/xlink">
    <!-- Generator: Sketch 50 (54983) - http://www.bohemiancoding.com/sketch -->
    <title>Group 7</title>
    <desc>Created with Sketch.</desc>
    <defs></defs>
    <g id="Page-1" stroke="none" stroke-width="1" fill="none" fill-rule="evenodd">
        <g id="公司信息-2-copy-7" transform="translate(-325.000000, -897.000000)">
            <g id="Group-7" transform="translate(325.000000, 897.000000)">
                <circle id="Oval-3-Copy-13" fill="#8C4FDF" cx="50" cy="50" r="50"></circle>
                <path d="M29.7261891,30.3367089 C30.1635103,28.5456585 31.7683629,27.2855158 33.6120307,27.2855158 L66.5126537,27.2855158 C68.3305322,27.2855158 69.9198022,28.5113454 70.3814972,30.2696173 L75.1089679,48.2732311 L75.1089679,70.6858953 C75.1089679,72.3427495 73.7658221,73.6858953 72.1089679,73.6858953 L28.3466242,73.6858953 C26.6897699,73.6858953 25.3466242,72.3427495 25.3466242,70.6858953 L25.3466242,48.2732311 L29.7261891,30.3367089 Z M31.8652868,31.4629747 L27.5991681,48.3247205 L72.8160006,48.3247205 L68.2565408,31.4176777 C67.9034657,30.1084315 66.7160381,29.1988063 65.3600191,29.1988063 L34.7736458,29.1988063 C33.4002039,29.1988063 32.2021608,30.1314873 31.8652868,31.4629747 Z M37.7338839,56.3087499 L37.7338839,64.4525286 L62.4369807,64.4525286 L62.4369807,56.3087499 L37.7338839,56.3087499 Z" id="Combined-Shape" fill="#FFFFFF"></path>
                <path d="M35,41 L65.7457987,41" id="Path-39" stroke="#FFFFFF" stroke-width="2" stroke-linecap="round"></path>
                <path d="M34,35 L67,35" id="Path-39-Copy" stroke="#FFFFFF" stroke-width="2" stroke-linecap="round"></path>
            </g>
        </g>
    </g>
</svg>