<?xml version="1.0" encoding="UTF-8"?>
<svg width="68px" height="59px" viewBox="0 0 68 59" version="1.1" xmlns="http://www.w3.org/2000/svg" xmlns:xlink="http://www.w3.org/1999/xlink">
    <!-- Generator: Sketch 50 (54983) - http://www.bohemiancoding.com/sketch -->
    <title>tubiaozhizuomoban-</title>
    <desc>Created with Sketch.</desc>
    <defs>
        <filter x="-40.6%" y="-26.9%" width="181.2%" height="200.0%" filterUnits="objectBoundingBox" id="filter-1">
            <feOffset dx="0" dy="9" in="SourceAlpha" result="shadowOffsetOuter1"></feOffset>
            <feGaussianBlur stdDeviation="5" in="shadowOffsetOuter1" result="shadowBlurOuter1"></feGaussianBlur>
            <feColorMatrix values="0 0 0 0 0.795855022   0 0 0 0 0.847517496   0 0 0 0 0.991576318  0 0 0 1 0" type="matrix" in="shadowBlurOuter1" result="shadowMatrixOuter1"></feColorMatrix>
            <feMerge>
                <feMergeNode in="shadowMatrixOuter1"></feMergeNode>
                <feMergeNode in="SourceGraphic"></feMergeNode>
            </feMerge>
        </filter>
    </defs>
    <g id="Page-1" stroke="none" stroke-width="1" fill="none" fill-rule="evenodd">
        <g id="会员卡-普通会员-copy-5" transform="translate(-87.000000, -611.000000)" fill="#2F63F4" fill-rule="nonzero">
            <g id="tubiaozhizuomoban-" filter="url(#filter-1)" transform="translate(97.000000, 612.000000)">
                <path d="M41.0170987,4.49126008 L26.5482625,4.49126008 C24.8920313,4.49112041 23.2897681,3.8947803 22.0275786,2.80872439 L21.4384997,2.29927135 C19.6996745,0.809458252 17.4943638,-0.00551465988 15.2167678,2.93589073e-05 L7.00275786,2.93589073e-05 C3.14877759,-0.0110977204 0.0145966463,3.14207845 0,7.04522859 L0,23.9510254 L-4.4408921e-15,31 C-1.93769951e-15,35.418278 3.581722,39 8,39 L19.3204633,39 L41.0170987,39 C42.8690793,39 44.6452076,38.2549151 45.9547556,36.9286555 C47.2643036,35.6023959 48,33.8036018 48,31.9279874 L48,11.5632726 C48,9.68765829 47.2643036,7.88886422 45.9547556,6.5626046 C44.6452076,5.23634498 42.8690793,4.49126008 41.0170987,4.49126008 Z M41.6260342,30.1650118 C40.8023338,30.5209529 39.9370697,30.7687515 39.0512962,30.902378 C35.4162641,31.4898151 31.7122521,31.4898151 28.0772201,30.902378 C27.189207,30.7692374 26.3216937,30.5214317 25.4958632,30.1650118 C24.6566906,29.8758907 24.0632673,29.1148038 23.9801434,28.2210463 C24.0975949,26.8895316 24.6441475,25.6340846 25.5355764,24.6481717 C26.5516398,23.4591884 27.8773169,22.5834823 29.3612796,22.1210165 C29.519558,22.0672189 29.6377699,21.9324126 29.6718209,21.7668818 C29.705872,21.6013511 29.6506492,21.4299514 29.5267512,21.316617 C27.7190363,19.6340853 27.1157503,17.0006693 28.0072682,14.6838907 C28.898786,12.367112 31.1024705,10.8415885 33.5576393,10.8415885 C36.012808,10.8415885 38.2164925,12.367112 39.1080104,14.6838907 C39.9995283,17.0006693 39.3962423,19.6340853 37.5885273,21.316617 C37.4643955,21.4289802 37.4082314,21.5994729 37.4408822,21.7648106 C37.4735331,21.9301482 37.5901248,22.0656488 37.74738,22.1210165 C39.2397039,22.5856812 40.5754973,23.4605023 41.6061776,24.6481717 C42.0959182,25.2267286 42.4913997,25.8806987 42.7777165,26.5854339 C42.9983721,27.1100361 43.1217748,27.6712987 43.141754,28.2411563 C43.0512269,29.1273529 42.4591319,29.8788804 41.6260342,30.1650118 Z" id="Shape"></path>
                <path d="M33.983088,24.5968665 C33.946183,24.4514296 33.9663337,24.2947671 34.0382828,24.1677526 L34.2222655,23.8441585 C34.2745937,23.7524439 34.3003483,23.6441229 34.2958586,23.5346337 L34.2958586,23.4924258 C34.2833673,23.2239263 34.0946623,23.0105186 33.8604329,23 L33.0079796,23 C32.7737502,23.0105186 32.5850452,23.2239263 32.5725539,23.4924258 L32.5725539,23.5346337 C32.5680642,23.6441229 32.5938188,23.7524439 32.6461469,23.8441585 L32.8362624,24.1747872 C32.9067353,24.2970613 32.9290012,24.4477497 32.89759,24.5898318 L32.014473,28.5151687 C31.96722,28.7248146 32.0380434,28.9461205 32.1923229,29.0709064 L33.2471572,29.9080302 C33.4022356,30.0306566 33.6072303,30.0306566 33.7623088,29.9080302 L34.8048775,29.0779411 C34.9642162,28.9511094 35.0356801,28.7221488 34.9827274,28.5081341 L33.983088,24.5968665 Z" id="Shape"></path>
            </g>
        </g>
    </g>
</svg>