<?xml version="1.0" standalone="no"?><!DOCTYPE svg PUBLIC "-//W3C//DTD SVG 1.1//EN" "http://www.w3.org/Graphics/SVG/1.1/DTD/svg11.dtd"><svg t="1567675116997" class="icon" viewBox="0 0 1024 1024" version="1.1" xmlns="http://www.w3.org/2000/svg" p-id="2677" xmlns:xlink="http://www.w3.org/1999/xlink" width="64" height="64"><defs><style type="text/css"></style></defs><path d="M765.568 482.6624h-34.7392v50.1504h34.7392c10.4448 0 18.8928-2.688 25.856-8.2432 6.0416-4.8384 8.9088-10.1888 8.9088-16.8192s-2.8416-11.9808-8.9088-16.8192c-6.9376-5.5808-15.4112-8.2688-25.856-8.2688z" fill="#244ef2" p-id="2678"></path><path d="M955.7248 153.6H68.2752A68.2752 68.2752 0 0 0 0 221.8752v614.4a68.2496 68.2496 0 0 0 68.2752 68.2752h887.4752a68.2496 68.2496 0 0 0 68.2752-68.2752v-614.4A68.3008 68.3008 0 0 0 955.7248 153.6zM321.9456 815.7952H105.7536a27.3152 27.3152 0 0 1 0-54.5792h216.192a27.2896 27.2896 0 1 1 0 54.5792z m45.5168-348.1344l-72.2176 173.3376c-4.224 10.112-13.1584 15.8976-24.5248 15.8976s-20.3008-5.8112-24.5248-15.8976l-72.2176-173.3376a21.3248 21.3248 0 0 1-1.6128-8.32c0-10.7776 6.7328-23.3216 25.7536-23.3216 11.3664 0 20.1728 5.4528 24.1408 15.0016l48.4608 116.2496 48.4608-116.2496c3.968-9.5488 12.7744-15.0016 24.1408-15.0016 19.0208 0 25.7536 12.544 25.7536 23.3216a21.3248 21.3248 0 0 1-1.6128 8.32z m176.4352 165.888c0 10.7776-6.7584 23.3472-25.7536 23.3472s-25.7536-12.5696-25.7536-23.3472v-174.2336c0-10.7776 6.7328-23.3216 25.7536-23.3216s25.7536 12.544 25.7536 23.3216v174.2336z m282.624-73.1904c-15.8464 12.672-36.3776 19.0976-60.9536 19.0976h-34.7392v54.0928c0 10.7776-6.7584 23.3472-25.7536 23.3472-19.0208 0-25.7536-12.5696-25.7536-23.3472v-174.2336c0-10.7776 6.7328-23.3216 25.7536-23.3216h60.4928c23.2448 0 43.392 6.7072 59.9552 19.9168 17.4592 13.9776 26.2912 31.3856 26.2912 51.7888 0 21.504-8.4992 39.1936-25.2928 52.6592z m111.5136-236.5184H105.7536a27.3152 27.3152 0 1 1 0-54.5792h832.2816a27.3152 27.3152 0 1 1 0 54.5792z" fill="#244ef2" p-id="2679"></path></svg>