<?xml version="1.0" encoding="utf-8"?>
<!-- Generator: Adobe Illustrator 22.1.0, SVG Export Plug-In . SVG Version: 6.00 Build 0)  -->
<svg version="1.1" id="图层_1" xmlns="http://www.w3.org/2000/svg" xmlns:xlink="http://www.w3.org/1999/xlink" x="0px" y="0px"
	 viewBox="0 0 74 84" style="enable-background:new 0 0 74 84;" xml:space="preserve">
<style type="text/css">
	.st0{opacity:0.1;fill:#328FD3;enable-background:new    ;}
	.st1{fill:#53DEDC;}
	.st2{fill:#FFFFFF;}
	.st3{fill:#282828;}
</style>
<title>Group 26</title>
<desc>Created with Sketch.</desc>
<g id="Page-1">
	<g id="Group-12" transform="translate(-587.000000, -269.000000)">
		<g id="Group-11" transform="translate(318.000000, 189.000000)">
			<g id="Group-26" transform="translate(264.000000, 80.000000)">
				<polygon id="Polygon-Copy-14" class="st0" points="42,0 78.4,21 78.4,63 42,84 5.6,63 5.6,21 				"/>
			</g>
		</g>
	</g>
</g>
<g>
	<path class="st1" d="M55.2,32V52c0,4.5-3.7,8.2-8.2,8.2H27c-4.5,0-8.2-3.7-8.2-8.2V32c0-4.5,3.7-8.2,8.2-8.2H47
		C51.5,23.8,55.2,27.5,55.2,32z"/>
	<path class="st2" d="M55.2,32v2.1H18.8V32c0-0.8,0.1-1.6,0.3-2.3c0.1-0.3,0.2-0.5,0.3-0.7c0-0.1,0.1-0.2,0.1-0.3
		c0.6-1.3,1.4-2.4,2.6-3.2c1-0.7,2.1-1.3,3.4-1.5c0.4-0.1,0.7-0.1,1.1-0.1c0.1,0,0.3,0,0.4,0H47c1.8,0,3.5,0.6,4.9,1.6
		c0.7,0.5,1.2,1.1,1.7,1.7c0.4,0.5,0.7,1.1,1,1.7c0,0,0,0.1,0.1,0.1c0,0,0,0.1,0.1,0.1c0.1,0.2,0.1,0.3,0.2,0.5
		C55,30.3,55.2,31.2,55.2,32z"/>
	<path class="st3" d="M22.1,25.5c-1.1,0.8-2,1.9-2.6,3.2l-0.4,1.1c-0.2,0.7-0.3,1.5-0.3,2.3v2.1h1.6l5.2-5.2
		C25.6,29,22.1,25.5,22.1,25.5z M32.3,23.8H27c-0.2,0-0.3,0-0.4,0l5.1,5.1l-5.2,5.2h5.7l5.2-5.2L32.3,23.8z M44.1,23.8h-5.7l5.2,5.2
		l-5.2,5.2h5.7l5.2-5.2L44.1,23.8z M54.8,29.6l-4.6,4.6h5V32C55.2,31.2,55,30.3,54.8,29.6z"/>
	<path class="st3" d="M54.6,29.1H23.2v-0.3h31.3c0,0,0,0.1,0.1,0.1C54.6,29,54.6,29.1,54.6,29.1z M18.8,34.1h36.3v0.2H18.8V34.1z"/>
</g>
</svg>
