<?xml version="1.0" encoding="utf-8"?>
<!-- Generator: Adobe Illustrator 22.1.0, SVG Export Plug-In . SVG Version: 6.00 Build 0)  -->
<svg version="1.1" id="图层_1" xmlns="http://www.w3.org/2000/svg" xmlns:xlink="http://www.w3.org/1999/xlink" x="0px" y="0px"
	 viewBox="0 0 74 84" style="enable-background:new 0 0 74 84;" xml:space="preserve">
<style type="text/css">
	.st0{opacity:0.1;fill:#328FD3;enable-background:new    ;}
	.st1{fill:#61555B;}
	.st2{fill:#536880;}
	.st3{fill:#FDFDFD;}
	.st4{fill:#5D9BEA;}
	.st5{fill:#FFFFFF;}
	.st6{fill:#588FD7;}
	.st7{fill:#E4E7EC;}
	.st8{fill:#D3D5D8;}
	.st9{fill:#8D939B;}
	.st10{fill:#D94453;}
	.st11{fill:#F6C0B8;}
	.st12{fill:#48CDAC;}
	.st13{fill:#3BBF9F;}
</style>
<title>Group 27</title>
<desc>Created with Sketch.</desc>
<g id="Page-1">
	<g id="Group-12" transform="translate(-818.000000, -269.000000)">
		<g id="Group-11" transform="translate(318.000000, 189.000000)">
			<g id="Group-27" transform="translate(495.000000, 80.000000)">
				<polygon id="Polygon-Copy-16" class="st0" points="42,0 78.4,21 78.4,63 42,84 5.6,63 5.6,21 				"/>
			</g>
		</g>
	</g>
</g>
<g>
	<path class="st1" d="M35.5,23.6h0.2C35.7,23.7,35.6,23.7,35.5,23.6z M40.6,23.6h0.2C40.8,23.7,40.6,23.7,40.6,23.6z"/>
	<path class="st2" d="M26,25.6c0-0.8,0.8-1.4,1.5-1.4c0.8,0,1.5,0.6,1.5,1.4c0,0.6,0,1.1,0,1.7c0,0.5,0,0.9,0,1.4
		c0,0.4-0.1,0.8-0.4,1.1c-0.4,0.4-1,0.6-1.5,0.5c-0.6-0.1-1.1-0.7-1.1-1.3c-0.1-0.6,0-1.1,0-1.7C26,26.7,26,26.2,26,25.6z
		 M44.4,25.6c0-0.8,0.8-1.4,1.5-1.4c0.8,0,1.5,0.6,1.5,1.4c0,0.6,0,1.1,0,1.7c0,0.5,0,1,0,1.5c0,0.4-0.1,0.8-0.4,1
		c-0.4,0.4-1,0.6-1.5,0.4c-0.6-0.2-1-0.7-1.1-1.3c-0.1-0.6,0-1.1,0-1.7C44.4,26.8,44.4,26.2,44.4,25.6z"/>
	<path class="st3" d="M20.3,27.8c0.3-0.4,0.9-0.6,1.4-0.5c-0.5,0.1-0.9,0.2-1.2,0.6c-0.3,0.3-0.5,0.8-0.6,1.3
		C19.9,28.6,20,28.2,20.3,27.8z M51.8,27.3c0.5,0,1,0.1,1.4,0.5c0.3,0.3,0.5,0.8,0.5,1.3c-0.1-0.5-0.2-0.9-0.5-1.3
		C52.7,27.5,52.2,27.4,51.8,27.3z M53.5,51.2c0.2-0.1,0.3,0.1,0.4,0.2c0.2,0.2,0.4,0.4,0.6,0.6c0.1,0.2,0,0.3-0.1,0.4
		c-1.7,1.7-3.3,3.4-5,5c-0.1,0.2-0.4,0.1-0.5-0.1c-0.4-0.4-0.8-0.8-1.2-1.2c-0.6-0.6-1.2-1.2-1.8-1.8c-0.1-0.1-0.3-0.3-0.4-0.5
		c-0.1-0.2,0.1-0.3,0.2-0.4c0.2-0.2,0.4-0.4,0.6-0.6c0.2-0.1,0.3,0,0.5,0.1c0.7,0.7,1.3,1.3,2,2c0.1,0.1,0.3,0.3,0.4,0.4
		c1.3-1.3,2.6-2.6,3.9-3.9C53.1,51.5,53.3,51.3,53.5,51.2L53.5,51.2z"/>
	<path class="st4" d="M21.7,27.3c1.2,0,2.4,0,3.5,0c0,0.6,0,1.2,0,1.8c0.1,1.1,1.2,2.1,2.3,2c1.1,0,2.2-0.9,2.3-2c0-0.6,0-1.2,0-1.8
		c4.6,0,9.2,0,13.8,0c0,0.6,0,1.1,0,1.7c0,0.5,0.3,1.1,0.6,1.5c-0.3,0.3-0.4,0.7-0.7,1.1c-0.4,0.7-0.7,1.3-1.1,2h-0.1
		c-7.5,0-15,0-22.5,0h-0.1c0-1.4,0-2.9,0-4.3c0.1-0.5,0.2-0.9,0.6-1.3C20.8,27.5,21.2,27.4,21.7,27.3z"/>
	<path class="st5" d="M25.2,27.3c0.3,0,0.5,0,0.8,0c0,0.6,0,1.1,0,1.7c0.1,0.6,0.5,1.2,1.1,1.3c0.5,0.1,1.2-0.1,1.5-0.5
		c0.3-0.3,0.4-0.7,0.4-1.1c0-0.5,0-0.9,0-1.4c0.3,0,0.5,0,0.8,0c0,0.6,0,1.2,0,1.8c-0.1,1.1-1.2,2.1-2.3,2c-1.1,0-2.2-0.9-2.3-2
		C25.2,28.5,25.3,27.9,25.2,27.3z M43.6,27.3c0.3,0,0.5,0,0.8,0c0,0.6,0,1.1,0,1.7c0.1,0.6,0.5,1.1,1.1,1.3c0.5,0.2,1.1,0,1.5-0.4
		c0.3-0.3,0.4-0.7,0.4-1c0-0.5,0-1,0-1.5c0.3,0,0.5,0,0.8,0c0,0.6,0,1.1,0,1.7c0,1-0.8,1.8-1.7,2.1c-0.8,0.2-1.7,0-2.3-0.6
		c-0.4-0.4-0.6-0.9-0.6-1.5C43.6,28.4,43.6,27.9,43.6,27.3z M19.9,33.4L19.9,33.4c0.1,6.7,0.1,13.5,0.1,20.2c0,0.4,0,0.8-0.1,1.2
		C19.9,47.7,19.9,40.6,19.9,33.4z M53.5,33.4L53.5,33.4c0.1,4.3,0.1,8.7,0.1,13c1.9,1,3.4,2.7,4.1,4.7c0.8,2.3,0.6,4.9-0.7,7
		c-1.1,2-3.1,3.5-5.4,4c-2.1,0.5-4.5,0.2-6.4-1c-1.8-1.1-3.1-2.8-3.7-4.8c-6.7,0-13.4,0-20.1,0c0.2,0,0.3-0.1,0.5-0.1
		c2.5,0,4.9,0,7.4,0c0.8,0,1.6,0,2.4,0c3.3,0,6.6,0,9.8,0c-0.3-1.1-0.3-2.2-0.2-3.2c0.2-1.2,0.6-2.4,1.2-3.5
		c0.2-0.3,0.4-0.6,0.6-0.8c0.2-0.3,0.5-0.6,0.7-0.8c0.3-0.3,0.6-0.5,0.9-0.7c0.2-0.1,0.4-0.3,0.6-0.4c0.6-0.4,1.3-0.6,2-0.9
		c0.6-0.2,1.3-0.3,1.9-0.3c0.4-0.1,0.9,0,1.3,0c1,0.1,1.9,0.4,2.8,0.8c0-1.1,0-2.3,0-3.4C53.5,39.9,53.5,36.6,53.5,33.4 M47.3,47.7
		c-1.8,0.7-3.3,2.2-4,4c-0.6,1.5-0.6,3.2,0,4.8c0.3,0.9,0.9,1.8,1.6,2.5c0.8,0.8,1.8,1.4,2.9,1.7c1.3,0.4,2.8,0.4,4.1-0.1
		c2-0.6,3.6-2.2,4.3-4.2c0.5-1.3,0.5-2.7,0.2-4.1c-0.3-1.2-0.9-2.3-1.8-3.1c-0.8-0.8-1.8-1.4-2.9-1.7C50.3,47.1,48.7,47.2,47.3,47.7
		z"/>
	<path class="st6" d="M48.2,27.3c1.2,0,2.4,0,3.6,0c0.5,0,0.9,0.2,1.3,0.5c0.3,0.3,0.5,0.8,0.5,1.3c0,1.4,0,2.9,0,4.3l-0.1,0
		c-3.7,0-7.4,0-11,0c0.4-0.7,0.7-1.3,1.1-2c0.2-0.4,0.4-0.7,0.7-1.1c0.6,0.6,1.5,0.9,2.3,0.6c0.9-0.2,1.6-1.1,1.7-2.1
		C48.2,28.4,48.2,27.9,48.2,27.3z"/>
	<path class="st7" d="M20,33.4c7.5,0,15,0,22.5,0c-0.1,0.4-0.4,0.7-0.6,1c-0.5,0.8-1,1.7-1.5,2.6c-0.2,0.3-0.4,0.7-0.6,0.9
		c0-0.5,0-1,0-1.5c-2,0-4.1,0-6.1,0c0,1.5,0,3.1,0,4.6c1.5,0,2.9,0,4.4,0c-0.2,0.5-0.6,1-0.8,1.5c-0.9,0-1.8,0-2.7,0
		c0,1.4,0,2.8,0,4.2c0,0.1,0,0.3,0.1,0.4c-0.2,0.5-0.6,1-0.8,1.5l0,0c-0.3,0.5-0.6,1-0.9,1.5c-0.2,0.3-0.3,0.7-0.6,0.9
		c0-0.6,0-1.2,0-1.7c-2,0-4.1,0-6.1,0c0,1.3,0,2.5,0,3.8c1.7,0,3.3,0,5,0c-0.4,0.7-0.8,1.4-1.2,2.1c-0.2,0.3-0.4,0.6-0.5,0.9
		c-2.5,0-4.9,0-7.4,0c-0.2,0-0.3,0-0.5,0.1c-0.8,0-1.6-0.7-1.6-1.6c0.1-0.4,0-0.8,0.1-1.2C20,46.9,19.9,40.2,20,33.4 M26,36.5
		c0,1.3,0,2.6,0,3.8c2,0,4.1,0,6.1,0c0-1.3,0-2.6,0-3.8C30.1,36.5,28.1,36.5,26,36.5 M25.1,41.1c-0.4,0.1-0.6,0.4-0.6,0.8
		c0,2,0,4,0,6c0,0.4,0.4,0.8,0.8,0.8c2.5,0,5,0,7.5,0c0.4,0,0.8-0.4,0.8-0.8c0-2,0-4,0-6c0-0.4-0.4-0.8-0.8-0.8c-2.5,0-4.9,0-7.4,0
		C25.3,41.1,25.2,41.1,25.1,41.1z"/>
	<path class="st8" d="M42.4,33.4L42.4,33.4c3.7,0,7.4,0,11.1,0c0,3.2,0,6.4,0,9.6c0,1.1,0,2.3,0,3.4c-0.9-0.4-1.8-0.7-2.8-0.8
		c-0.4,0-0.9-0.1-1.3,0c-0.6,0-1.3,0.1-1.9,0.3c0-1.1,0-2.2,0-3.3c-2,0-4.1,0-6.1,0c0,1.5,0,3.1,0,4.6c1.2,0,2.3,0,3.5,0
		c-0.3,0.2-0.6,0.5-0.9,0.7c-0.3,0.3-0.5,0.5-0.7,0.8c-0.6-0.1-1.2,0-1.9,0c0,1.3,0,2.6,0,3.8c0,0.2,0,0.4,0,0.5
		c-0.1,1.1-0.1,2.2,0.2,3.2c-3.3,0-6.6,0-9.8,0c-0.8,0-1.6,0-2.4,0c0.1-0.3,0.3-0.6,0.5-0.9c0.4-0.7,0.8-1.4,1.2-2.1
		c0.4,0,0.8,0,1.1,0c0-0.7,0-1.4,0-2.1c0.3-0.3,0.4-0.6,0.6-0.9c0.3-0.5,0.6-1,0.9-1.5c0,1.5,0,3,0,4.5c2,0,4.1,0,6.1,0
		c0-1.5,0-3.1,0-4.6c-2,0-4.1,0-6.1,0c0.2-0.5,0.6-1,0.8-1.5c0.4,0,0.9,0,1.3,0c1.3,0,2.7,0,4,0c0-1.5,0-3.1,0-4.6
		c-0.9,0-1.7,0-2.6,0c0.3-0.5,0.6-1,0.8-1.5c0.6,0,1.2,0,1.8,0c0-1,0-2.1,0-3.1c0.2-0.3,0.4-0.6,0.6-0.9c0.5-0.8,1-1.7,1.5-2.6
		C42.1,34.1,42.3,33.8,42.4,33.4 M41.3,36.5c0,1.5,0,3.1,0,4.6c2,0,4.1,0,6.1,0c0-1.5,0-3.1,0-4.6C45.4,36.5,43.4,36.5,41.3,36.5z"
		/>
	<path class="st9" d="M26,36.5c2,0,4.1,0,6.1,0c0,1.3,0,2.6,0,3.8c-2,0-4.1,0-6.1,0C26,39,26,37.8,26,36.5z M33.7,36.5
		c2,0,4.1,0,6.1,0c0,0.5,0,1,0,1.5c0,1,0,2.1,0,3.1c-0.6,0-1.2,0-1.8,0c-1.5,0-2.9,0-4.4,0C33.7,39.6,33.7,38,33.7,36.5z M41.3,36.5
		c2,0,4.1,0,6.1,0c0,1.5,0,3.1,0,4.6c-2,0-4.1,0-6.1,0C41.3,39.6,41.3,38,41.3,36.5z M34.4,42.6c0.9,0,1.8,0,2.7,0
		c0.9,0,1.7,0,2.6,0c0,1.5,0,3.1,0,4.6c-1.3,0-2.7,0-4,0c-0.4,0-0.9,0-1.3,0c0-0.1,0-0.3-0.1-0.4C34.4,45.4,34.4,44,34.4,42.6z
		 M41.3,42.6c2,0,4.1,0,6.1,0c0,1.1,0,2.2,0,3.3c-0.7,0.2-1.4,0.5-2,0.9c-0.2,0.1-0.4,0.3-0.6,0.4c-1.2-0.1-2.3,0-3.5,0
		C41.3,45.7,41.3,44.1,41.3,42.6z M33.7,48.7c2,0,4.1,0,6.1,0c0,1.5,0,3.1,0,4.6c-2,0-4.1,0-6.1,0C33.7,51.8,33.7,50.3,33.7,48.7
		C33.7,48.8,33.7,48.7,33.7,48.7z M41.3,48.7c0.6,0,1.2,0,1.9,0c-0.2,0.3-0.4,0.6-0.6,0.8c-0.7,1-1.1,2.2-1.2,3.5c0-0.2,0-0.4,0-0.5
		C41.3,51.3,41.3,50,41.3,48.7z M26,49.5c2,0,4.1,0,6.1,0c0,0.6,0,1.2,0,1.7c0,0.7,0,1.4,0,2.1c-0.4,0-0.8,0-1.1,0c-1.7,0-3.3,0-5,0
		C26,52.1,26,50.8,26,49.5z"/>
	<path class="st10" d="M25.1,41.1c0.1,0,0.2,0,0.4,0c2.5,0,4.9,0,7.4,0c0.4,0,0.8,0.4,0.8,0.8c0,2,0,4,0,6c0,0.4-0.4,0.8-0.8,0.8
		c-2.5,0-5,0-7.5,0c-0.4,0-0.8-0.4-0.8-0.8c0-2,0-4,0-6C24.5,41.5,24.7,41.2,25.1,41.1 M26,42.6c0,1.5,0,3.1,0,4.6c2,0,4.1,0,6.1,0
		c0-1.5,0-3.1,0-4.6C30.1,42.6,28.1,42.6,26,42.6z"/>
	<path class="st11" d="M26,42.6c2,0,4.1,0,6.1,0c0,1.5,0,3.1,0,4.6c-2,0-4.1,0-6.1,0C26,45.7,26,44.1,26,42.6z"/>
	<path class="st12" d="M47.3,47.7c1.4-0.5,3-0.6,4.4-0.2c1.1,0.3,2.1,0.9,2.9,1.7c-1.7,1.7-3.4,3.4-5.1,5c-0.3,0.3-0.6,0.6-0.8,0.9
		c-0.7-0.7-1.3-1.3-2-2c-0.1-0.1-0.3-0.3-0.5-0.1c-0.2,0.2-0.4,0.4-0.6,0.6c-0.1,0.1-0.3,0.3-0.2,0.4c0.1,0.2,0.3,0.3,0.4,0.5
		c0.6,0.6,1.2,1.2,1.8,1.8c-0.1,0.1-0.3,0.2-0.4,0.3c-0.8,0.8-1.6,1.6-2.4,2.4c-0.7-0.7-1.2-1.6-1.6-2.5c-0.6-1.5-0.5-3.2,0-4.8
		C44,49.9,45.5,48.4,47.3,47.7z"/>
	<path class="st13" d="M49.5,54.3c1.7-1.7,3.4-3.4,5.1-5c0.9,0.9,1.5,2,1.8,3.1c0.3,1.3,0.3,2.8-0.2,4.1c-0.7,2-2.3,3.6-4.3,4.2
		c-1.3,0.4-2.7,0.4-4.1,0.1c-1.1-0.3-2.1-0.9-2.9-1.7c0.8-0.8,1.6-1.6,2.4-2.4c0.1-0.1,0.3-0.2,0.4-0.3c0.4,0.4,0.8,0.8,1.2,1.2
		c0.1,0.1,0.4,0.2,0.5,0.1c1.7-1.6,3.4-3.4,5-5c0.1-0.1,0.2-0.3,0.1-0.4c-0.2-0.2-0.4-0.4-0.6-0.6c-0.1-0.1-0.3-0.3-0.4-0.2
		c-0.2,0.1-0.4,0.3-0.5,0.5c-1.3,1.3-2.6,2.6-3.9,3.9c-0.1-0.1-0.3-0.3-0.4-0.4C48.9,54.8,49.3,54.6,49.5,54.3L49.5,54.3z"/>
</g>
</svg>
