<?xml version="1.0" encoding="utf-8"?>
<!-- Generator: Adobe Illustrator 22.1.0, SVG Export Plug-In . SVG Version: 6.00 Build 0)  -->
<svg version="1.1" id="图层_1" xmlns="http://www.w3.org/2000/svg" xmlns:xlink="http://www.w3.org/1999/xlink" x="0px" y="0px"
	 viewBox="0 0 128 128" style="enable-background:new 0 0 128 128;" xml:space="preserve">
<style type="text/css">
	.st0{fill:#FF7043;}
	.st1{fill:#B24E34;}
	.st2{fill:#E6E6E6;}
	.st3{fill:#B3B3B3;}
	.st4{fill:#479147;}
	.st5{fill:#58B75A;}
</style>
<path class="st0" d="M0,64c0,35.3,28.7,64,64,64s64-28.7,64-64S99.3,0,64,0S0,28.7,0,64z"/>
<path class="st1" d="M127.6,56.9c0.2,2.3,0.4,4.7,0.4,7.1c0,35.3-28.7,64-64,64c-2.5,0-4.9-0.2-7.3-0.4L17,87.8l87.1-54.4
	C104.1,33.4,127.6,56.9,127.6,56.9z"/>
<path class="st2" d="M17,87.9c8-1.3,15.9-2.7,23.8-4.1c0.6-9.1,1.1-18.2,1.7-27.2s1.1-18.1,1.7-27.2c-6.7,1.3-13.5,2.7-20.3,4
	l-3.4,27.2C19.3,69.7,18.2,78.8,17,87.9C17,87.8,17,87.9,17,87.9z"/>
<path class="st3" d="M64,87.9c-7.8-1.3-15.6-2.7-23.3-4.1c0.6-9.1,1.1-18.2,1.7-27.2s1.1-18.1,1.7-27.2c6.6,1.4,13.2,2.7,19.8,4
	L64,87.9C64,87.8,64,87.9,64,87.9z"/>
<path class="st4" d="M41.6,70.9l0.6-8.5c0.4,0,0.4-0.2,1,0c0.1,0,0.2,0,0.2,0c0,0,0,0,0,0l0,0c0.1,0.1,0.1,0.2,0.2,0.2
	c0.4,0.3,0.8,0.6,1.1,0.9c0.7,0.2,0.7-0.2,1.6,0.4c0.4,0.3,0.2,0.3,0.4,0.6c0,0,0.1,0.1,0.1,0.2l0.2,0.5c0.4,0.4,0.9,0.2,1.5,0.6
	c0.3,0.2,0.1,0.2,0.7,0.3c1.1,0.1,0.6,0,1.5,0.6c0.3,0.2,0.4,0.1,0.7,0.2c0.4,0.4,0.3,0.9,0,1.3c-1,1.2-0.7,1-0.7,1.9
	c0,0.6-0.2,1.7-0.9,1.8c-2.4,0.5-1,0.9-1.6,1.8c-0.2,0.3-0.3,0.3-0.4,0.5c-0.5,0.9-0.2,1.1-1.5,0.9c0.1,0.2,0,0,0.2,0.2
	c0.4,0.5,0.5,0.9-0.4,1c-0.7,0.1-0.4,0-0.5,0.6c-0.3,0.1-0.4,0-0.6,0.2c0.2,0.4,0,0,0.4,0.3c-0.1,0.2-0.1,0.4-0.2,0.6
	c-0.2,0.5-0.2,0-0.3,0.6c0.2,0.1,0.4,0.1,0.6,0.3c0,0.2-0.2,0.7-0.3,0.9c0.4,0.4,0.6,0.8,1.4,0.9c0,0.4,0.1,0.3-0.3,0.4
	c-0.3,0-1-0.2-1.3-0.3c-0.5-0.2-0.9-0.5-1.3-0.9l-0.3-0.3c-0.4-0.4-0.2-0.5-0.3-0.7c0-0.2-0.4-0.3-0.2-0.7c0-0.1,0.3-0.7,0-0.6
	c-0.3,0.1,0.2,0-0.2,0.2c-0.1-0.2-0.2-0.6-0.2-0.8c-0.1-0.5-0.2-0.5-0.3-0.7c-0.2-0.6,0.2-0.7-0.2-1.8
	C41.7,73.5,41.9,71.8,41.6,70.9L41.6,70.9L41.6,70.9z M64,46.1v7c-0.1,0-0.1-0.1-0.2-0.1c-0.4-0.3-0.5-0.6-0.9-0.5
	c0,0.3,0,0.3,0.2,0.5c0.6,0.6,0.4,0.4,0.9,0.6v0.9c0,0-0.1,0-0.1,0c-0.1-0.3,0.2-0.1-0.2-0.5c-0.2-0.2-0.4-0.2-0.7-0.4
	c-0.7-0.3-0.6-0.5-1.1-0.8c-0.5,0-0.4,0.1-0.7,0.3c-0.4,0.2-0.4,0-0.9,0c-0.4,0.6,0.2,0.1-0.6,0.6c-0.9,0.6-0.2,1.1-1.6,1.3
	c-0.1,0-0.2,0-0.2,0c-0.3,0.1-0.1,0-0.3,0.1c0.1,0.2,0,0.2,0.4,0.2c0.9,0.1,1-0.3,1.7-0.4c0.3,0,2.3-0.1,2.5-0.1
	c0.4,0.4,0.1,0.6,0.1,0.9c0.5,0.2,1.1,0.2,1.4,0.4c0.3,0.2,0.2,0.2,0.3,0.2v17l0,0c-0.1-0.1-0.2-0.2-0.2-0.4
	c-0.4-0.8-0.2-1.5-0.8-2.3c-0.7-1.1,0.4-1.7,0.4-2.3c0-0.2-0.1-0.3-0.1-0.4c-0.2-0.7-0.2-1.3-0.8-1.8c-0.6-0.6-0.6-0.4-0.4-1.3
	c0.3-1.1-0.4-0.8-1.2-0.8c-0.4-1-1.2-0.5-2-0.2c-0.5,0.2-0.7,0-1.3,0c-1.3,0.1-0.3,0.6-2-0.5c-0.7-0.4-0.2-0.2-0.7-0.7
	c-0.2-0.2-0.6-0.5-0.8-0.7c-0.6-0.6,0.1-1.3,0-2c-0.2-1.3-0.5-0.2,0.5-1.8c0.5-0.9,1.3-0.9,1.5-1.3c0.2-0.4,0-0.6,0.4-0.9
	c0.3-0.3,0.7-0.2,0.8-0.6c0.2-0.5-0.2-0.6-0.7-0.6c-0.2-0.5-0.2-0.4,0-0.9c0.1-0.3,0-0.4,0.1-0.7c0.2-0.7,1.7,0,2.1-0.3
	c0.2-0.3,0.2-0.6,0-0.8s-0.6-0.2-0.7-0.5c0.4-0.2,0.1,0,0.4-0.1c0.4-0.1,0.3-0.2,0.7-0.2c0.4,0,0.6-0.3,1-0.5
	c0.6-0.3,0.3-0.5,0.9-0.6c1-0.2,0.4-0.1,0.5-0.9c0.2,0,0.3-0.1,0.5-0.2c0.3,0.3-0.1,0.2,0.3,0.4c0.1,0,0.2-0.1,0.4-0.2
	c0-0.4-0.3-0.3-0.4-0.7c-0.5,0.1-0.7,0.4-1.1,0.3c-0.4-0.1-0.4-0.6-0.4-0.9c0.2-0.3,0.9-0.4,1.2-0.5c0.5-0.1,0.4-0.4,0.8-0.7
	c0.6-0.4,0.2,0,0.4-0.6c0.6,0,0.3,0,0.7-0.2L64,46.1L64,46.1z M42.7,52.9l0.3-4.6c0.1-0.1,0.2-0.3,0.4-0.4c0.2,0,0.8,0,0.9,0.1
	c0.5,0.1,0.2,0.2,0.7,0.3c0,0.3-0.2,0.7,0.4,0.6c0.5-0.1,0.4-0.4,0.9-0.4c0.2,0.5,0.2,0.7,0.3,1.2c1.3,0.4,0.7,0.7,0.5,1.5
	c0.2,0.1,0.4,0.1,0.5,0.2c0,0.2,0,0.4,0,0.7c0,0-1.5-0.2-1.5-0.3c0.2-0.5,0.6-0.5,0.9-1c-0.5,0.1-0.5,0.2-0.8,0.3
	c-0.3,0.1-0.6,0-0.9,0c-0.1,0.3,0-0.3,0,0.1c0,0.2,0.1,0,0,0.2c-0.5-0.2-0.3-0.6-1.2-0.2c0.2,0.1,0.4,0.1,0.6,0.2
	c0,0.4-0.1,0.1-0.2,0.4c-0.3,0.7,0.8,0.3,1.1,0.2c-0.1,0.4-0.4,0.4-0.8,0.5c-0.5,0.1-0.6,0.3-1,0.4c0-0.5-0.1-0.1,0.2-0.4
	c-0.4,0-0.7,0.2-1.1,0.3h0C42.7,52.7,42.7,52.9,42.7,52.9z M43.1,46.9l0.1-1.6c0.2-0.1,0.4-0.1,0.7-0.1c3,0,1.6,0.1,2.5,0.4
	c0.2,0.1,0.6,0.1,0.7,0.2c0.2,0.2,0,0.4,0.3,0.6c0.3,0.2,0.3,0,0.6,0.3c-0.1,0.2-0.2,0.4-0.6,0.4c-0.5,0-0.2-0.3-0.7-0.2
	c0,0.4,0.5,0.6,0,0.7c-0.4,0.2-0.2-0.1-0.5,0.1c0,0,0,0,0,0l0,0c0,0-0.1,0.1-0.2,0.1c-0.7-0.2-0.6-0.1-1.1-0.5
	c-0.2-0.2-0.2-0.2-0.5-0.2c-0.2,0-0.4,0.1-0.6,0c0.4-0.4,0.6,0,1.1-0.2c0.1,0,0.7-0.4,0.8-0.5c-0.2-0.3,0,0-0.2-0.2
	C44.9,45.9,44.7,46,44,46C43.7,46.3,43.4,46.7,43.1,46.9C43.1,46.9,43.1,46.9,43.1,46.9z M57.9,49.2c0,0.8,0.4,0.6,0.7,0.9
	c-0.2,0.4-0.2,0.1-0.4,0.4c-0.2,0.3,0,0-0.1,0.6c0.3,0,0.7-0.1,1-0.1c0.5,0,0.5-0.1,0.7-0.5c-0.3-0.3-0.6-0.6-0.9-0.8
	c-0.4-0.4,0-0.1-0.1-0.5c-0.1-0.1-0.2-0.3-0.2-0.4C58.2,49,58.2,48.9,57.9,49.2C57.9,49.2,57.9,49.2,57.9,49.2z"/>
<path class="st2" d="M64,87.9c7.8-1.3,15.5-2.7,23.3-4.1c-0.6-9.1-1.1-18.2-1.7-27.2s-1.1-18.1-1.7-27.2c-6.6,1.4-13.2,2.7-19.8,4
	L64,87.9L64,87.9z"/>
<path class="st3" d="M111,87.9c-8-1.3-15.9-2.7-23.8-4.1c-0.6-9.1-1.1-18.2-1.7-27.2s-1.1-18.1-1.7-27.2c6.8,1.4,13.6,2.7,20.3,4
	l3.4,27.2C108.7,69.7,109.8,78.8,111,87.9L111,87.9L111,87.9z"/>
<path class="st5" d="M22,47.8L22,48.6c0.7,0.2,1.5,0.1,1.8,0.1c0.6,0.1,0.2,0.1,0.8,0c0.3-0.1,0.7-0.2,0.8-0.2
	c0.2,0,0.4,0.2,0.9,0.2c1,0.1,0.9,0.5,0.9,1.2c0.1,0,0.2,0,0.3,0.1c0,0,0,0,0.1,0c0,0,0,0,0.1,0c0,0,0,0,0.1,0
	c-0.1,0.4-0.1,0.2-0.1,0.6c0,0.4-0.1,0.4-0.2,0.7c0.4,0.6,0.5,0.5,0,1.1c-0.6,0.9-1.2,1.1-1,2.4c0.1,0.4,0.2,0.7,0.5,0.9
	c0.2,0.1,0,0,0.2,0.1c0.2,0.1,0,0,0.1,0.2c0.2,0.2,0-0.1,0.1,0.2c0.2,0.3,0,0.4,0.2,0.7c0.4,0.8,0.2,0.1,0.2,0.9
	c0.6,0.2,0.4,0.1,0.6,0.6c0.1,0.3,0.4,0.5,0.7,0.5c-0.4-1.3-1.5-2-0.8-2.3c0.6,0.4,0,0.4,0.5,0.9c0.7,0.7,0.3,0.4,0.6,0.8
	c0.2,0.2,0.4,0.4,0.7,0.7c0.4,0.5,0.2,0.5,0.2,1c0.5,0.4,1.2,0.6,1.9,0.9c0.8,0.3,0.4,0.2,1.1,0.1c0.5,0,0.6,0.3,0.9,0.5
	c0.7,0.5,1.3-0.1,1.9,0.9c0.3,0.5-0.2,0,0.7,0.7c0.3,0.2,0.6,0.3,0.9,0.4c0.2-0.3,0-0.3,0.4-0.5c0.2,0.1,0.4,0.5,0.6,0.7
	C39,65,37,65,37.9,66.2c-0.2,0.3-0.4,0.2-0.2,0.6c0.1,0.4,0.3,0.3,0.5,0.6c0.6,0.6,1.2,2,1.9,2.4c0,0,0,0,0,0
	c0.5,0.3,1.1,0.4,1.4,0.7c0.1,0.1,0.1,0.2,0.2,0.4l0.6-8.5c-0.1,0-0.3,0-0.6-0.1c-0.6-0.1-0.6-0.6-1.1-0.1l-0.2-0.4
	c-0.1,0-0.1,0.1-0.2,0.1c-0.7,0.3-0.7,0.1-1,0.6c-0.2,0.3,0,0.2-0.3,0.4c-0.4,0-0.4-0.3-0.8-0.2c-0.4,0-0.4,0.3-0.9,0
	c-0.6-0.4-0.2-1.1-0.2-1.7c-0.8-0.4-0.8,0-1.5-0.2c-0.1-0.2,0.1-0.5,0.2-0.7c0.1-0.3,0.2-0.5,0.2-0.9c-0.9-0.1-0.8,0.1-1.1,0.5
	c-0.4,0.6-1.9,0.6-2-0.8c0-0.5,0.2-0.8,0.3-1.3c0.1-0.4,0.5-0.5,0.8-0.7c0.7-0.4,0.9,0.1,1.4,0c0.4-0.1,0.3-0.5,1.3-0.2
	c1,0.2,0.7-0.1,0.9,0.8c0.2,0.1,0.5,0.1,0.7,0.2c-0.1-1.4-0.6-1,0.6-1.9c0.4-0.2,0.5-0.2,0.9-0.4c0.5-0.2,0.6-0.2,0.5-0.9
	c0,0,0,0,0.1,0c0.3-0.2,0.6-0.4,0.9-0.6c0.3-0.2,0.8-0.4,1.2-0.4c0-0.5,0.1-0.5,0.6-0.7l0.3-4.6c-0.6,0.9,0.5,1.3-1.6,1.7
	c-0.2,0.4-0.2,1.1-0.8,0.7c-0.3-0.4,0.1-0.6,0.1-0.9c-0.2,0-0.4-0.1-0.6-0.1c-0.9-0.2-0.6-0.4-1.5-0.4c0-0.5-0.2-0.2-0.2-0.7
	c0.4-0.3,1-0.6,1.6-0.8c0.6-0.2,1.2-0.4,1.7-0.5l-0.2,0.4c0.6,0.3,0.4,0.4,0.6,0.3s0-0.1,0-0.1c0-0.1-0.6-0.1,0-0.2
	c0.3-0.1,0.4,0,0.7,0.1c0-0.6-0.4-0.2-0.6-0.7c0.4,0.1,0.6,0.1,0.8,0l0.1-1.6c-0.3,0.1-0.5,0.3-0.6,0.5c0.1,0.2,0.4,0.2,0.5,0.3
	c-0.2,0.2-0.6,0.5-0.9,0.5c0.2-0.9-0.4,0.2-0.3-1.1c0.4-0.1,0.8-0.1,1.1-0.3c-0.1,0-0.2-0.1-0.4-0.2c-0.6-0.1-0.8,0.4-1.1,0.5
	c-0.1-0.2,0-0.2,0-0.4c-0.4,0-1,0.1-1.3,0.3c0.3,0.2,0.2,0.2,0.7,0.3c-0.3,0.5,0.2,0.5-0.4,0.7c0,0,0-0.1,0,0v0c0-0.1,0-0.2-0.1-0.3
	c-0.2,0-0.2,0-0.3,0c-0.2,0.1-0.3,0.2-0.4,0.4c-0.4,0-0.9,0.1-1.2,0c-0.4-0.2-0.2-0.1-0.3-0.2c1.1,0.1,0.6,0,1.4-0.2
	c0-0.1-0.1-0.1-0.1-0.2c-0.2-0.4,0,0.2-0.2-0.2c0.2-0.3,0.3-0.3,0.5-0.5c-0.5,0-0.8,0.2-1.2,0.2c-1.1-0.1-1.8-0.7-2.8-0.3
	c-0.3,0.1-0.9,0.3-0.9,0.6c0.5,0.1,0.7,0,1.2-0.1c-0.1,0.2-0.2,0.5-0.3,0.7c-0.6,0-0.3,0-0.8-0.1c-0.5-0.1-0.5,0-0.9,0
	c-0.6,0-0.2-0.1-0.7-0.2c-0.7,0-1.7,0.3-2.4,0.3c-1.1-0.2-2.2-0.3-3.3-0.5c-0.7-0.1-3.6,0.5-3.8,0.6c-0.3,0.2,0,0.2,0,0.6
	c-0.5,0-1.6-0.2-1.7,0.4c0.4,0.1,0.7,0,0.9,0.2c-0.3,0.2-0.7,0.2-1.1,0.3L22,47.8L22,47.8z M85.7,59.3l-0.2-2.6l-0.7-11.5
	c-0.7-0.3-0.1-0.5-1.6-0.6c-0.7,0-0.9-0.3-1.9,0c-0.7,0.2-0.4,0-1,0.1l-1.7,0.5c-0.2,0.2-0.2,0.1-0.5,0.1c-0.7,0.2-0.1,0-0.4,0.2
	c-0.6,0.3-0.7,0.1-1,0.2c-0.1,0-0.2,0.1-0.4,0.2c-0.3-0.4-0.3-0.4-0.9-0.4C75,46,75.3,46,75.7,46.3c-0.6,0-1-0.3-1.6-0.2
	c-0.4,0-0.2,0-0.4,0.3c-0.4-0.1-0.4,0-0.8,0c-0.5,0-0.5-0.1-0.8,0c-0.6,0-1,0.4-1.4,0.4c-0.3-0.4,0.2-0.3-0.4-0.4
	c-0.2,0.2-0.1,0.2,0,0.5c-0.6,0-0.8,0-0.9,0.4c-0.2,0-0.4,0-0.5-0.1c-0.2,0.1,0,0-0.1,0.3c-0.5-0.1-0.6-0.1-0.7-0.6
	c0.6,0,1,0.2,1.5-0.1c-0.1-0.6-1.9-0.6-2.5-0.7c-0.7-0.2-1.2-0.4-2.2-0.1c-0.3,0.1-0.6,0.1-0.8,0.2h0v7c0.3,0.1,0.6,0.2,0.8,0.4
	c0.2,0.5-0.1,0.3,0.4,0.8c0.3,0.3,0.2,0.5,0.5,0.7c0.5,0,0.1,0.1,0.4-0.2c0,0,0.2-0.2,0.3-0.2c-0.2-0.2-0.3-0.2-0.4-0.4
	c0.6-0.6,0.8-0.3,1,0.2c0.4,1.1,0.9,0.8,1.4,0.7c0.5,0,0.1,0,0.5,0.1c0.4,0.1,0.2,0,0.5,0c1-0.2,0.2,1.3,0.1,1.5
	c-0.6,0-0.4,0-0.8-0.1c-0.8-0.1,0,0.4-1.8-0.1c-1.8-0.4-1.4-0.6-1.8,0.4c-0.4,0-0.4-0.1-0.7-0.2c-0.2,0-0.2-0.1-0.3-0.1v17
	c0.2,0.3,0.4,0.6,0.5,0.9c0.1,0.4-0.2,0.5,0.2,0.7c0.2,0.1,1.9,0.1,2.7-0.5c0.2-0.1,0.3-0.2,0.4-0.4c0.2-0.2,0.2-0.3,0.4-0.5
	c0.2-0.3,0.3-0.1,0.4-0.4c0.2-0.3,0.1-0.5,0.2-0.7c0.2-0.2,0.5-0.2,0.7-0.4c0.3-0.9-0.4-0.9,0.2-1.5c0.6-0.6,1.2-0.6,1.3-0.8
	c0.7-0.7-0.5-2.6-0.1-3.3c0.4-0.6,0.6-0.6,0.9-1.1c0.7-0.9,1.6-0.9,2.2-2c0.2-0.4,0.8-1,0.5-1.4c-0.2-0.2-1.7,0.4-2.2,0.2
	c-0.3-0.6-0.1-0.7-0.9-1.1c-1-0.6-0.3-0.5-0.9-1.1c-0.3-0.3-0.2-0.2-0.3-0.7c-0.1-0.3-0.3-0.4-0.4-0.6c-0.2-0.2-0.7-1.1-0.6-1.4
	c0.5,0,0.7,0.5,1,0.8c0.2,0.2,0.3,0.3,0.4,0.5c0.2,0.2,0,0.4,0.3,0.7c0.5,0.6,0.5,0.2,0.9,1.3c0.2,0.4,0.3,0.7,0.5,1
	c0.7,0,1.5-0.5,2.1-0.7s0.2-0.2,0.6-0.4c0.2-0.2,0.4-0.1,0.7-0.2c0.4-0.2,1.5-1.2,1.3-1.5c-0.3-0.3-0.2-0.2-0.6-0.4
	c-0.6-0.2-0.2-0.3-0.6-0.6c-0.4,0.2-0.6,0.5-1.3,0.4c0,0,0-0.2-0.1-0.2c-0.1-0.2-0.4-0.4-0.6-0.5c-0.3-0.2-0.6-0.3-0.6-0.8
	c0.7-0.3,0.6,0.2,1.1,0.6c0.7,0.5,0.7,0.3,1.5,0.2c0.4,0.5,0.5,0.4,1.3,0.5c0.4,0,1.4-0.1,1.7,0c0.3,0.2,0.7,0.5,1,0.7
	c0.2,0.2,0,0.3,0.3,0.5c0.4,0.2,0.4,0,0.8,0c0.1,0.2,0.2,0.7,0.2,1c0.2,0.6,0.4,0.9,0.6,1.3c0.1,0.3,0.6,1.3,0.7,1.3
	c0.4,0,0.7-0.6,0.8-0.8c0.2-0.6,0-0.7,0.1-1.3c0.6-0.3,1-0.8,1.6-1.2c0.5-0.3,0.2-0.2,0.5-0.5L85.7,59.3L85.7,59.3z M64,53.6v0.9
	c0.4-0.2-0.2-0.2,0.4-0.6C64.2,53.7,64.1,53.6,64,53.6z M74,68.8c-0.4,0.2-0.5,0.6-0.8,0.7c-0.4,0.2-0.8,0.1-0.9,0.6
	c-0.2,0.6,0.3,0.4-0.2,1.1c-0.2,0.3-0.2,0.9,0.1,1.1c0.8,0.6,1.3-0.9,1.5-1.4c0.2-0.4,0.3-0.7,0.4-1.1C74.3,69.6,74.5,69.3,74,68.8
	L74,68.8L74,68.8L74,68.8z M72.7,52.5c0.1,0.7,0.6,1,1,1.3c0,0.4-0.2,0.2-0.2,0.7c0.5,0.3,0.8,0.4,1.4,0.3c0.1-0.6-0.2-0.6-0.4-0.9
	c0,0,0.2-0.1,0.2-0.1c0.2-0.2,0.1,0.1,0.2-0.2c-0.4-0.1-1.1-0.5-1.2-0.9c0.2-0.1,0.2,0,0.3-0.1c0.4-0.2,0.1,0.1,0.3-0.2
	C74,52,73.9,52,73.4,52.1C73.2,52.1,72.7,52.4,72.7,52.5C72.6,52.5,72.7,52.5,72.7,52.5z M68.8,52.7c-0.3-0.3-0.3-0.5-0.8-0.5
	c-0.2,0.2-0.5,0.5-0.6,0.7c-0.2,0.4,0,0.1,0,0.6v0c0,0.3-0.1,0,0,0.2c0.4-0.1,0.1-0.1,0.4-0.2c0.3-0.1,1.3-0.3,1.5-0.2
	c0.6,0.1,1.2,0.5,1.9,0.1c0-0.5-0.8-0.7-1.4-0.9c0-0.5,0.2-0.1,0.2-0.6c-0.2,0-0.3,0-0.5,0c-0.4,0.2-0.2,0.2-0.2,0.2
	c0,0.2,0.4,0,0,0.3C69.2,52.7,69,52.7,68.8,52.7L68.8,52.7z"/>
<path class="st4" d="M87.9,45.2c1.4,0,0.9,0.4,1.6,0.6c0.6,0.2,0.2-0.1,0.8-0.1c0.2,0,0.4,0,0.6,0c0.6,0,0.3-0.1,0.5-0.2
	c0.4-0.2,1.9-0.1,2.2,0c0.4,0.1,0.3,0.2,0.9,0.3c0.7,0.1,1.5-0.1,2.2,0.2c0.4,0.2,0.2,0.2,0.9,0.2c0.5,0,1-0.1,1.5,0
	c0.6,0.1,0.2,0,0.9-0.1c0.2,0,0.4,0,0.6,0c0.5,0.1,0.4,0.2,1,0.2c1.1,0,1.8,0.4,2.8,0.5c0.7,0.1,1.4,0,1.3,0.6
	c-0.7,0.1-1.3-0.4-2-0.1c0,0.5,0.4,0.2,0.7,0.6h-0.1c-0.5,0.1-0.7,0.2-1.1,0.6c-0.5,0-0.9-0.1-1.5,0.1c-0.1,0.7,1,0.5,0.9,1.5
	c0,0.2,0,0.5,0,0.7c-0.5,0-1.6-1-1.8-1.3c-0.4-0.5,0.7-1.7,0.1-1.6c-0.2,0-0.1,0.1-0.4,0.3c-0.7,0-0.4-0.4-1.2-0.2
	c-0.2,0.6,0.3,0.5-0.1,0.7c-0.4,0.2-0.6-0.1-0.9-0.1c0,0-1.9,0.1-1.9,0.1c-0.2,0.2-0.6,0.9-0.6,1.1c0.6,0.3,1,0.2,1.2,0.2
	c0.3,0,0.4,0.2,0.6,0.2c0.7,0.1,0-0.2,0.6,0c0.4,0.4,0.8,0.7,1.2,1c-0.1,0.1-0.1,0.3-0.2,0.4c-0.4-0.3-0.5-0.8-1-0.9
	c-0.1,0.6,0.6,0.3,0.2,1.6c-0.4,1.1-0.6,0.7-1.2,0.8c-0.2,0.1-0.5,0.8-0.6,1c0.4,0.3,1,0.5,1,1.2c-0.3,0.1-0.4,0.2-0.8,0.1
	c-0.4-1.2-0.2-0.6-0.7-0.9c-0.5-0.4,0.1-0.7-1.2-0.3c-0.2-0.2-0.1-0.2-0.2-0.5c-0.3,0-0.8,0.4-0.9,0.6c0.3,0.1,0.5,0.3,0.6,0.3
	c0.3,0,0.4-0.1,0.8,0c-0.2,0.3-0.4,0.3-0.5,0.6c0.3,0.4,0.8,0.7,1,1.2c0,0,0,0,0,0.1c0.1,0.3,0.2,0.1,0.2,0.4c0,0.3-0.2,0.4-0.3,0.7
	c-0.6,1.3-1.5,1.1-2.7,1.6c0,0.4,0.4,0.9-0.5,0.8c-0.1-0.6,0.3-0.3,0.2-0.8c-0.6-0.2-0.9,0-1.1,0.6c0.2,0.8,1.5,0.9,1.2,2.2
	c-0.4,0.3-0.8,0.5-1.2,0.8c-0.4-0.2,0,0-0.3-0.4c-0.4-0.4-0.8-0.6-1.2-0.9c0,0,0,0.1-0.1,0.2c-0.1,0.3-0.3,0.6-0.2,0.9
	c0,0.2,0.4,0.7,0.5,0.7c0.3,0.2,0.6,0.3,0.7,0.6c0,0.1,0.2,1,0.2,1c-1.2-0.4-0.8-0.9-1.3-1.5c-0.2-0.3-0.2-0.2-0.5-0.5
	c0-0.5,0.2-0.9,0-1.4c-0.1-0.3-0.3-0.7-0.4-1c-0.4,0.1-0.8,0.6-0.9,0.1c0-0.1,0-0.2,0-0.2c-0.2-0.8-0.6-0.6-0.9-1.4
	c-0.6,0.2-0.6,0.2-1.3,0.2l0,0l-0.2-2.6L84.9,45h0c0,0,1.9,0.2,2,0.2c0.4,0,0.4-0.1,0.9-0.1H88C88,45,87.9,45.2,87.9,45.2z
	 M97.8,55.9c0,0.3,0.2,0.5,0.6,0.6c0.3-0.4-0.1-0.4,1.1-0.7c0.1,0,0.2,0,0.2-0.1c1-0.4,0.3-0.1,1.1-0.4c0-0.4-0.1-0.6-0.2-1
	c0-0.4-0.2-0.6-0.7-0.7c0,0.8,0.7,0.6-0.5,1.4C98.8,55.5,98.4,55,97.8,55.9L97.8,55.9z M91.3,67c0.1-0.2,0.1-0.6,0.2-0.7
	c0.4,0,0,0.3,0.7,0.2c0.1-0.2,0.1-0.3,0.1-0.5c-0.3,0-0.4,0-0.6,0.2c-0.1,0-0.1-0.1-0.2-0.2c-0.3-0.2-0.3,0.2-0.6-0.2
	c-0.3-0.5,0-0.5-0.6-0.8c-0.4-0.2-0.6-0.3-0.9-0.6c-0.6-0.5-0.1-0.3-1-0.5c0,0.5,0.1,0.2,0.6,0.8c0.2,0.3,0.4,0.6,0.6,0.9
	C90,65.9,90.3,67,91.3,67z M92.8,66.2c0.8,0.1,1.4,0.4,1.7,0.2c0.2-0.2,0.2-0.4,0.4-0.7c0.4-0.4,0.1-0.3,0.6-0.7
	c-0.2-0.7-0.4-0.4,0.1-1.1c-0.1-0.2-0.3-0.5-0.5-0.6c-0.3,0.1,0,0-0.2,0.2c-0.3,0.3-0.7,0.6-1,0.9c-0.3,0.2-0.2,0-0.6,0.3
	c-0.1,0-0.2,0.1-0.4,0.2c-0.2,0-0.4-0.1-0.4,0.4C92.4,65.4,92.7,65.9,92.8,66.2L92.8,66.2z M100.8,67.7c0.4,0.1,0.3,0,0.6,0
	c0.7,0.1,0.5,0.7,1.4-0.2c1.2,0,0,0.7,1.7,0.8c0-0.3-0.6-0.7-0.8-0.9c0.1-0.2,0.1-0.1,0.2-0.4c-0.1,0-0.3-0.1-0.4-0.2
	c-0.7-0.6,0.2-0.2-1.3-0.7c-0.2-0.1-0.9-0.3-1-0.3c-0.6-0.1-0.6,0.3-1,0.4c-0.3-0.3-0.1-0.8-0.7-0.8c-0.7,0,0,0.9,0,0.9
	c0.3,0.2,0.4,0,1.1,0.4C101.5,67.3,100.9,67.4,100.8,67.7C100.8,67.7,100.8,67.7,100.8,67.7z M99.8,69.6c0.1-0.1,0.1-0.1,0.1-0.2
	c0.2-0.2,0,0,0.2-0.2s0.2-0.2,0.2-0.5c-0.5,0-0.7,0.1-1-0.2c-0.3,0.1-0.1,0.1-0.4,0.2c-0.3,0.1-0.2,0-0.5,0.2
	c-0.3,0.2-0.2,0.4-0.6,0.6c-0.4-0.1-0.5-0.4-1-0.1c-0.4,0.2-0.1,0.1-0.4,0.4C96,70,96.1,69.9,95.8,70c-0.7,0.4,0.4,0.6-2,1.1
	c-0.2,0-0.9,0.4-1,0.5c-0.3,0.3-0.3,0.7-0.4,1c-0.2,0.5,0,0.5-0.1,1.3c-0.1,1-0.3,0.6-0.5,1.1c0.4,0.5,0.8,0,1.4-0.1
	c0.3-0.1,0.6,0,0.9,0c0.2,0,0.4-0.2,0.7-0.3c0.1,0,1.6-0.3,1.7-0.3c0.8,0,0.9,0.3,1,0.9c0.4,0,0.2,0,0.6-0.2
	c0.2,0.3,0.2,0.7,0.2,1.1c0.4,0.2,1,0.2,1.4,0.3c0.4,0,0.2-0.1,0.7-0.2c1.1-0.3,0.2,0.2,1.8-1.2c0.4-0.4,0.7-0.4,1-0.9
	c0.4-0.4,1-1.2,0.6-1.8c-0.2-0.4-0.4-0.7-0.6-1.1c-0.4-0.6-0.4,0.2-0.5-1.3c0-0.6,0.1-0.2-0.3-0.5c0-0.4,0-0.6-0.1-0.8
	c-0.4,0.1-0.1-0.1-0.4,0.3c-0.4,0.6-0.4,2.1-1.4,1.4C100.3,69.9,99.9,69.7,99.8,69.6C99.8,69.5,99.8,69.6,99.8,69.6z"/>
</svg>
