<?xml version="1.0" encoding="utf-8"?>
<!-- Generator: Adobe Illustrator 22.1.0, SVG Export Plug-In . SVG Version: 6.00 Build 0)  -->
<svg version="1.1" id="图层_1" xmlns="http://www.w3.org/2000/svg" xmlns:xlink="http://www.w3.org/1999/xlink" x="0px" y="0px"
	 viewBox="0 0 128 128" style="enable-background:new 0 0 128 128;" xml:space="preserve">
<style type="text/css">
	.st0{fill:#5BC1ED;}
	.st1{fill:#2399BC;}
	.st2{fill:#727271;}
	.st3{fill:#5B5B5B;}
	.st4{fill:#FDFDFD;}
	.st5{fill:#FEFEFE;}
	.st6{fill:#FFC130;}
	.st7{fill:#006775;}
	.st8{fill:#E87D04;}
	.st9{fill:#E6E6E6;}
	.st10{fill:#CCCCCC;}
	.st11{fill:#663333;}
	.st12{fill:#17BF41;}
	.st13{fill:#B3B3B3;}
	.st14{fill:#999999;}
	.st15{fill:#808080;}
</style>
<path class="st0" d="M0,64c0,35.3,28.6,64,64,64s64-28.6,64-64S99.3,0,64,0S0,28.7,0,64z"/>
<path class="st1" d="M57.5,127.7l-39-39.3l84.3-53.2l25.1,25.3c0.1,1.2,0.1,2.4,0.1,3.6c0,35.3-28.6,64-64,64
	C61.9,128,59.7,127.9,57.5,127.7C57.6,127.7,57.5,127.7,57.5,127.7z"/>
<path class="st2" d="M33.2,33.4h66c2.4,0,4.3,1.9,4.3,4.3v44.2c0,2.4-1.9,4.3-4.3,4.3h-66c-2.4,0-4.3-1.9-4.3-4.3V37.6
	C28.9,35.3,30.9,33.4,33.2,33.4z"/>
<path class="st3" d="M102.7,35.2c0.5,0.7,0.8,1.5,0.8,2.4v44.2c0,2.3-1.9,4.3-4.3,4.3H33.2c-0.2,0-0.5,0-0.7-0.1L102.7,35.2
	C102.7,35.2,102.7,35.2,102.7,35.2z"/>
<path class="st4" d="M35,37.6h62.5v39.8H35V37.6z"/>
<path class="st5" d="M63.4,81.6c0,1.6,1.3,2.9,2.9,2.9s2.9-1.3,2.9-2.9s-1.3-2.9-2.9-2.9S63.4,80,63.4,81.6z"/>
<path class="st6" d="M24.5,84.8l10.7,8.1c1.8-2.5,2.4-2.3,4.6-3.5c6.9-3.4,13.8-5.3,8.4-10.5c1-1.1,1.6-1.9,1.2-3.1
	c-0.4-1.3-1.4-1.4-2.3-2.4c3.5-5.6-1.2-5.1-3.2-6c3.5-4.9,3.4-4.1,7.6-8.7c0.6-0.7,2.1-2.2,2.4-3.1c0.6-1.3-0.6-2.2-1.7-1.9
	c-1.4,0.4-9,7.7-10.6,9.4c-2.1,2.1-2.8,2.9-5.2,4.2c-2.6,1.5-3.4,1.4-5,4.5C29.1,76.2,27.3,80.8,24.5,84.8L24.5,84.8
	C24.5,84.8,24.5,84.8,24.5,84.8z"/>
<path class="st7" d="M22.8,82.8l14.4,10.9c0.3,0.2,0.3,0.6,0.1,0.9l-3.5,4.5c-0.2,0.3-0.6,0.3-0.9,0.1L18.5,88.4
	c-0.3-0.2-0.3-0.6-0.1-0.9l3.5-4.5C22.1,82.6,22.5,82.6,22.8,82.8z"/>
<path class="st8" d="M63.3,45.5V40h1.1v2.2h2.2V40h1.1v5.4h-1.1v-2.4h-2.2v2.4H63.3z M68.6,42.8c0-0.6,0.1-1,0.3-1.4
	c0.1-0.3,0.3-0.5,0.5-0.7s0.5-0.4,0.7-0.5c0.3-0.2,0.7-0.2,1.2-0.2c0.8,0,1.4,0.3,2,0.7c0.5,0.5,0.7,1.2,0.7,2.1
	c0,0.9-0.3,1.6-0.7,2.1c-0.5,0.5-1.1,0.7-1.9,0.7s-1.5-0.3-2-0.7C68.9,44.3,68.6,43.6,68.6,42.8L68.6,42.8L68.6,42.8z M69.7,42.7
	c0,0.6,0.2,1.1,0.4,1.4c0.3,0.3,0.6,0.5,1.1,0.5c0.4,0,0.8-0.2,1.1-0.5c0.3-0.3,0.4-0.8,0.4-1.4s-0.2-1.1-0.4-1.4s-0.6-0.5-1.1-0.5
	c-0.5,0-0.8,0.2-1.1,0.5C69.9,41.6,69.7,42.1,69.7,42.7z M76,45.5v-4.5h-1.6V40h4.3v0.9h-1.6v4.5H76z M79.4,45.5V40h4v0.9h-3v1.2
	h2.7V43h-2.7v1.5h3.1v0.9L79.4,45.5C79.4,45.4,79.4,45.5,79.4,45.5z M84.5,45.5v-5.4h1.1v4.5h2.7v0.9H84.5z"/>
<path class="st9" d="M65.5,48h20.9c1.3,0,2.4,1.1,2.4,2.4v20.4H63.1V50.4C63.1,49.1,64.2,48,65.5,48C65.5,48,65.5,48,65.5,48z"/>
<path class="st10" d="M63,70h25.7v2.1H63L63,70z"/>
<path class="st11" d="M64,68.4l0.4,5.3h-1.6l0.7-5.3H64z"/>
<path class="st12" d="M63.7,61.8c1.3,0,2.4,1.1,2.4,2.4c0,0.5-0.2,0.9-0.4,1.3c1.2,0.2,2.1,1.2,2.1,2.4c0,1.3-1.1,2.4-2.4,2.4
	c-0.7,0-1.3-0.3-1.7-0.7c-0.4,0.5-1.1,0.8-1.7,0.8c-1.2,0-2.2-1-2.2-2.2s1-2.2,2.2-2.2h0.3c-0.5-0.4-0.9-1.1-0.9-1.8
	C61.3,62.9,62.4,61.8,63.7,61.8C63.8,61.8,63.7,61.8,63.7,61.8z"/>
<path class="st11" d="M88.9,68.4l0.4,5.3h-1.6l0.7-5.3C88.3,68.4,88.9,68.4,88.9,68.4z"/>
<path class="st12" d="M88.5,61.8c1.3,0,2.4,1.1,2.4,2.4c0,0.5-0.2,0.9-0.4,1.3c1.2,0.2,2.1,1.2,2.1,2.4c0,1.3-1.1,2.4-2.4,2.4
	c-0.7,0-1.3-0.3-1.7-0.7c-0.4,0.5-1.1,0.8-1.7,0.8c-1.2,0-2.2-1-2.2-2.2s1-2.2,2.2-2.2h0.3c-0.5-0.4-0.9-1.1-0.9-1.8
	C86.2,62.9,87.2,61.8,88.5,61.8C88.6,61.8,88.5,61.8,88.5,61.8z"/>
<path class="st13" d="M62.1,71.9h27.5v2.9H62.1V71.9z"/>
<path class="st14" d="M70.4,63.4h11V70h-11V63.4z M65.6,55.2h3.4v2.4h-3.4V55.2z M77.9,55.2h3.4v2.4h-3.4V55.2z M82.8,55.2h3.4v2.4
	h-3.4V55.2z M82.8,59.1h3.4v2.4h-3.4V59.1z M77.9,59.1h3.4v2.4h-3.4V59.1z M70.5,55.2h3.4v2.4h-3.4V55.2z M70.5,59.1h3.4v2.4h-3.4
	V59.1z M65.6,59.1h3.4v2.4h-3.4V59.1z"/>
<path class="st8" d="M67.4,49.4l0.4,1.2h1.2l-1,0.7l0.4,1.2l-1-0.7l-1,0.7l0.4-1.2l-1-0.7h1.2l0.4-1.2H67.4L67.4,49.4z M71.1,49.1
	l0.5,1.4h1.5l-1.2,0.8l0.5,1.4l-1.2-0.8L70,52.7l0.5-1.4l-1.2-0.8h1.5l0.5-1.4H71.1L71.1,49.1z M84.4,49.4L84,50.6h-1.2l1,0.7
	l-0.4,1.2l1-0.7l1,0.7l-0.4-1.2l1-0.7h-1.2l-0.4-1.2H84.4L84.4,49.4z M80.6,49.1l-0.5,1.4h-1.5l1.2,0.8l-0.5,1.4l1.2-0.8l1.2,0.8
	l-0.5-1.4l1.2-0.8h-1.5l-0.5-1.4H80.6L80.6,49.1z M75.9,48.8l-0.5,1.6h-1.7l1.4,1l-0.5,1.6l1.4-1l1.4,1l-0.5-1.6l1.4-1h-1.7
	l-0.5-1.6H75.9L75.9,48.8z"/>
<path class="st14" d="M66.7,63.3h2.4v1.9h-2.4V63.3z M82.6,63.3h2.4v1.9h-2.4V63.3z"/>
<path class="st15" d="M37.9,41.4h20.7v1.5H37.9V41.4z M37.9,45.4h20.7v1.5H37.9V45.4z M37.9,49.3h15.5v1.5H37.9V49.3z"/>
</svg>
