<?xml version="1.0" encoding="utf-8"?>
<!-- Generator: Adobe Illustrator 22.1.0, SVG Export Plug-In . SVG Version: 6.00 Build 0)  -->
<svg version="1.1" id="图层_1" xmlns="http://www.w3.org/2000/svg" xmlns:xlink="http://www.w3.org/1999/xlink" x="0px" y="0px"
	 viewBox="0 0 81 81" style="enable-background:new 0 0 81 81;" xml:space="preserve">
<style type="text/css">
	.st0{fill:#D9D9D9;}
	.st1{fill:#999999;}
</style>
<path class="st0" d="M9.4,4.3h18.7c4.1,0,7.5,3.3,7.5,7.5l0,0v18.7c0,4.1-3.3,7.5-7.5,7.5l0,0H9.4c-4.1,0-7.5-3.3-7.5-7.5l0,0V11.8
	C1.9,7.7,5.3,4.3,9.4,4.3z M9.4,45.4h18.7c4.1,0,7.5,3.3,7.5,7.5v18.7c0,4.1-3.3,7.5-7.5,7.5H9.4c-4.1,0-7.5-3.3-7.5-7.5V52.9
	C1.9,48.8,5.3,45.4,9.4,45.4z M50.5,45.4h18.7c4.1,0,7.5,3.3,7.5,7.5v18.7c0,4.1-3.3,7.5-7.5,7.5H50.5c-4.1,0-7.5-3.3-7.5-7.5V52.9
	C43,48.8,46.4,45.4,50.5,45.4z"/>
<path class="st1" d="M65.1,2.6l13.2,13.2c3.5,3.5,3.5,7,0,10.6L65.1,39.7c-3.5,3.5-7,3.5-10.6,0L41.3,26.4c-3.5-3.5-3.5-7,0-10.6
	L54.6,2.6C58.1-0.9,61.6-0.9,65.1,2.6z"/>
</svg>
