<?xml version="1.0" standalone="no"?><!DOCTYPE svg PUBLIC "-//W3C//DTD SVG 1.1//EN" "http://www.w3.org/Graphics/SVG/1.1/DTD/svg11.dtd"><svg t="1544689566434" class="icon" style="" viewBox="0 0 1024 1024" version="1.1" xmlns="http://www.w3.org/2000/svg" p-id="2413" xmlns:xlink="http://www.w3.org/1999/xlink" width="128" height="128"><defs><style type="text/css"></style></defs><path d="M833.853335 47.910173H190.002378c-97.854679 0-177.524183 79.669504-177.524182 177.524183v520.160866c0 97.855702 79.669504 177.525206 177.524182 177.525206h321.998645c0.720408 0 1.298576 0 2.020007-0.144286 0.432859 0 36.948517-2.453888 81.256652 2.453888 55.567573 6.206352 96.844675 20.927635 119.360481 42.432415 5.773494 5.484921 13.134135 8.226359 20.4958 8.226359 7.792477 0 15.442714-3.031033 21.35947-9.093099 11.257391-11.834536 10.968819-30.453592-0.865717-41.710984-32.330336-31.175023-84.143399-50.804083-153.710824-58.597583-45.607734-5.052063-83.71054-3.175319-90.782609-2.74246H190.002378c-65.236793 0-118.349455-53.113685-118.349455-118.350479V225.434356c0-65.236793 53.112662-118.349455 118.349455-118.349456H833.998645c65.236793 0 118.349455 53.112662 118.349455 118.349456v520.160866c0 65.236793-53.112662 118.350478-118.349455 118.350479-16.309454 0-29.587875 13.278421-29.587876 29.587875s13.279445 29.587875 29.587876 29.587876c97.855702 0 177.524183-79.669504 177.524183-177.525206V225.434356c-0.144286-97.854679-79.814814-177.524183-177.669493-177.524183m0 0" fill="#1296db" p-id="2414"></path><path d="M778.286786 469.639217L377.485377 232.074589c-9.094122-5.484921-20.4958-5.484921-29.732162-0.288572-9.237385 5.196349-14.866592 15.010879-14.866592 25.690102V739.822752c0 16.308431 13.278421 29.587875 29.587875 29.587876 16.308431 0 29.586852-13.279445 29.586852-29.587876V309.434491L706.699354 495.907487 537.258267 603.142813c-8.083096 4.906753-34.784224 18.186198-54.556547 17.175171-16.308431-0.865717-30.16502 11.69025-30.886451 27.999705-0.865717 16.309454 11.69025 30.16502 27.999704 31.03176 1.587148 0.144286 3.319605 0.144286 4.906754 0.144286 39.689954 0 78.948073-23.237237 83.566254-25.979698 0.144286-0.144286 0.288572-0.144286 0.432858-0.288572l210.43064-133.215024c8.66024-5.484921 13.855566-15.154141 13.712303-25.402553-0.288572-10.247388-5.773494-19.772322-14.576996-24.968671m0 0" fill="#1296db" p-id="2415"></path></svg>