<?xml version="1.0" standalone="no"?><!DOCTYPE svg PUBLIC "-//W3C//DTD SVG 1.1//EN" "http://www.w3.org/Graphics/SVG/1.1/DTD/svg11.dtd"><svg t="1582353693848" class="icon" viewBox="0 0 1024 1024" version="1.1" xmlns="http://www.w3.org/2000/svg" p-id="2266" xmlns:xlink="http://www.w3.org/1999/xlink" width="64" height="64"><defs><style type="text/css"></style></defs><path d="M651.606875 453.41c0 0-160.2028125-93.69-166.2609375-97.065-11.7703125-8.1759375-26.055-13.111875-41.54625-13.111875-39.9853125 0-72.4359375 32.0625-72.4359375 71.6175 0 0.219375 0.084375 0.388125 0.084375 0.6075l-0.084375 0 0 193.6996875c0 39.555 32.450625 71.5753125 72.4359375 71.5753125 14.495625 0 26.915625-5.2396875 39.2090625-11.50875l168.98625-91.22625C708.644375 548.48375 708.8553125 485.6075 651.606875 453.41zM626.0328125 528.09875L456.3040625 619.713125c-5.8809375 2.986875-10.42875 4.8009375-12.504375 4.8009375-8.91 0-16.183125-6.8765625-16.183125-15.3646875L427.6165625 450.254375l0.4809375-0.2615625-0.388125-35.3109375-0.0421875-0.9534375c0.6075-7.965 7.6190625-14.2340625 16.1409375-14.2340625 3.375 0 6.58125 1.0378125 9.4753125 3.0290625l2.1178125 1.5103125 2.295 1.299375c7.745625 4.370625 165.4846875 96.6346875 165.4846875 96.6346875 11.6859375 6.5728125 15.1453125 12.7659375 15.103125 14.8415625C638.2334375 518.361875 635.12 523.3821875 626.0328125 528.09875z" fill="#ffffff" p-id="2267"></path><path d="M512 90.125C278.9815625 90.125 90.125 278.9815625 90.125 512s188.8565625 421.875 421.875 421.875 421.875-188.8565625 421.875-421.875S745.0184375 90.125 512 90.125zM512 877.630625C310.3690625 877.630625 146.369375 713.6309375 146.369375 512 146.369375 310.3690625 310.3690625 146.369375 512 146.369375S877.630625 310.3690625 877.630625 512C877.630625 713.6309375 713.6309375 877.630625 512 877.630625z" fill="#ffffff" p-id="2268"></path></svg>