<?xml version="1.0" standalone="no"?><!DOCTYPE svg PUBLIC "-//W3C//DTD SVG 1.1//EN" "http://www.w3.org/Graphics/SVG/1.1/DTD/svg11.dtd"><svg t="1546657110688" class="icon" style="" viewBox="0 0 1024 1024" version="1.1" xmlns="http://www.w3.org/2000/svg" p-id="1714" xmlns:xlink="http://www.w3.org/1999/xlink" width="200" height="200"><defs><style type="text/css"></style></defs><path d="M776.106667 582.4c0-17.493333-5.546667-32.853333-17.066667-46.08L424.96 174.08c-11.946667-12.8-27.733333-23.893333-47.786667-32.853333-20.053333-8.96-37.973333-13.226667-54.613333-13.226667l-254.293333-0.853333v276.48c0 17.92 4.266667 37.546667 12.373333 59.306666s18.346667 38.826667 30.293333 51.2l334.08 363.093334c11.52 12.373333 25.6 18.773333 41.813334 18.773333 16.213333 0 30.293333-6.4 42.666666-18.773333l229.546667-249.6c11.52-11.946667 17.066667-27.306667 17.066667-45.226667z m-469.333334-216.32c-17.066667 16.64-37.12 25.173333-61.013333 25.173333s-44.373333-8.533333-61.013333-25.173333c-17.066667-17.066667-25.173333-37.12-25.173334-61.013333 0-23.893333 8.533333-43.946667 25.173334-61.013334 17.066667-16.64 37.12-25.173333 61.013333-25.173333s44.373333 8.533333 61.013333 25.173333c17.066667 17.066667 25.173333 37.12 25.173334 61.013334 0 23.893333-8.533333 43.946667-25.173334 61.013333zM938.666667 536.32L604.16 174.08c-11.946667-12.8-27.733333-23.893333-47.786667-32.853333-20.053333-8.96-38.4-13.653333-54.613333-13.653334H397.226667c16.64 0 34.56 4.693333 54.613333 13.653334 20.053333 8.96 35.84 19.626667 47.786667 32.853333l334.08 362.24c11.52 13.226667 17.066667 28.586667 17.066666 46.08 0 17.92-5.973333 33.28-17.066666 45.653333l-219.733334 238.506667c9.386667 10.666667 17.493333 18.346667 24.746667 23.04 7.253333 4.693333 16.213333 7.253333 27.733333 7.253333 16.213333 0 30.293333-6.4 42.666667-18.773333l229.546667-249.6c11.52-12.373333 17.066667-27.733333 17.066666-45.653333 0-17.92-5.546667-33.28-17.066666-46.506667z" fill="#ffffff" p-id="1715"></path></svg>