<?xml version="1.0" encoding="utf-8"?>
<!-- Generator: Adobe Illustrator 22.1.0, SVG Export Plug-In . SVG Version: 6.00 Build 0)  -->
<svg version="1.1" id="图层_1" xmlns="http://www.w3.org/2000/svg" xmlns:xlink="http://www.w3.org/1999/xlink" x="0px" y="0px"
	 viewBox="0 0 48 48" style="enable-background:new 0 0 48 48;" xml:space="preserve">
<style type="text/css">
	.st0{fill:#44B035;}
	.st1{fill:none;stroke:#44B035;stroke-width:2;stroke-miterlimit:10;}
</style>
<path class="st0" d="M16.7,38.6c-2.3,0-4.8-2.6-5.8-4.4c-0.4-1.2,0-1.8,0.3-2c1.8-1.6,5.1-3.6,6.4-3.9h0.3c0.7,0.2,1.2,0.7,1.6,1.1
	c0.5,0.5,0.9,0.9,1.6,0.7c0.2,0,1.1-0.3,4.1-3.9l1.2-1.6c2.8-3.6,3-4.6,3-4.8c0-0.7-0.3-0.9-1.1-1.2c-0.4-0.2-1.1-0.5-1.2-1.2v-0.2
	c0-1.2,1.4-4.8,2.6-6.9c0-0.3,0.4-0.9,1.4-0.9c2.2,0,5.7,1.9,6,4.4c0.5,3.4-1.8,8.7-6.2,14l-1.6,2C25,35.1,20.4,38.4,16.7,38.6"/>
<circle class="st1" cx="24" cy="24" r="23.3"/>
</svg>
