<?xml version="1.0" encoding="utf-8"?>
<!-- Generator: Adobe Illustrator 22.1.0, SVG Export Plug-In . SVG Version: 6.00 Build 0)  -->
<svg version="1.1" id="图层_1" xmlns="http://www.w3.org/2000/svg" xmlns:xlink="http://www.w3.org/1999/xlink" x="0px" y="0px"
	 viewBox="0 0 199 93" style="enable-background:new 0 0 199 93;" xml:space="preserve">
<style type="text/css">
	.st0{fill:#EFEFEF;}
</style>
<circle class="st0" cx="8.5" cy="8.5" r="8"/>
<circle class="st0" cx="34.5" cy="8.5" r="8"/>
<circle class="st0" cx="60.5" cy="8.5" r="8"/>
<circle class="st0" cx="86.5" cy="8.5" r="8"/>
<circle class="st0" cx="112.5" cy="8.5" r="8"/>
<circle class="st0" cx="138.5" cy="8.5" r="8"/>
<circle class="st0" cx="164.5" cy="8.5" r="8"/>
<circle class="st0" cx="190.5" cy="8.5" r="8"/>
<circle class="st0" cx="8.5" cy="33.5" r="8"/>
<circle class="st0" cx="34.5" cy="33.5" r="8"/>
<circle class="st0" cx="60.5" cy="33.5" r="8"/>
<circle class="st0" cx="86.5" cy="33.5" r="8"/>
<circle class="st0" cx="112.5" cy="33.5" r="8"/>
<circle class="st0" cx="138.5" cy="33.5" r="8"/>
<circle class="st0" cx="164.5" cy="33.5" r="8"/>
<circle class="st0" cx="190.5" cy="33.5" r="8"/>
<circle class="st0" cx="8.5" cy="59.5" r="8"/>
<circle class="st0" cx="34.5" cy="59.5" r="8"/>
<circle class="st0" cx="60.5" cy="59.5" r="8"/>
<circle class="st0" cx="86.5" cy="59.5" r="8"/>
<circle class="st0" cx="112.5" cy="59.5" r="8"/>
<circle class="st0" cx="138.5" cy="59.5" r="8"/>
<circle class="st0" cx="164.5" cy="59.5" r="8"/>
<circle class="st0" cx="190.5" cy="59.5" r="8"/>
<circle class="st0" cx="8.5" cy="84.5" r="8"/>
<circle class="st0" cx="34.5" cy="84.5" r="8"/>
<circle class="st0" cx="60.5" cy="84.5" r="8"/>
<circle class="st0" cx="86.5" cy="84.5" r="8"/>
<circle class="st0" cx="112.5" cy="84.5" r="8"/>
<circle class="st0" cx="138.5" cy="84.5" r="8"/>
<circle class="st0" cx="164.5" cy="84.5" r="8"/>
<circle class="st0" cx="190.5" cy="84.5" r="8"/>
</svg>
