<?xml version="1.0" encoding="utf-8"?>
<!-- Generator: Adobe Illustrator 22.1.0, SVG Export Plug-In . SVG Version: 6.00 Build 0)  -->
<svg version="1.1" id="图层_1" xmlns="http://www.w3.org/2000/svg" xmlns:xlink="http://www.w3.org/1999/xlink" x="0px" y="0px"
	 viewBox="0 0 128 128" style="enable-background:new 0 0 128 128;" xml:space="preserve">
<style type="text/css">
	.st0{fill:#FFFFFF;}
</style>
<path class="st0" d="M116.3,12.7H13.7c-4.5-0.1-8.3,3.2-8.7,7.7v64.1h118V20.4c0.4-3.8-2.3-7.2-6.1-7.7
	C116.7,12.7,116.5,12.7,116.3,12.7z M5,92.2c0.4,4.5,4.3,7.8,8.7,7.7h47.9v10.3H36.9c-1.4,0.2-2.4,1.5-2.3,2.9
	c0.1,1.2,1.1,2.1,2.3,2.3h56.3c1.4-0.2,2.4-1.5,2.3-2.9c-0.1-1.2-1.1-2.1-2.3-2.3H66.6V99.9h49.8c3.7,0,6.7-3,6.7-6.8
	c0-0.3,0-0.6-0.1-0.9v-2.6H5V92.2z"/>
</svg>
