<?xml version="1.0" standalone="no"?><!DOCTYPE svg PUBLIC "-//W3C//DTD SVG 1.1//EN" "http://www.w3.org/Graphics/SVG/1.1/DTD/svg11.dtd"><svg t="1544439075118" class="icon" style="" viewBox="0 0 1252 1024" version="1.1" xmlns="http://www.w3.org/2000/svg" p-id="2225" xmlns:xlink="http://www.w3.org/1999/xlink" width="156.5" height="128"><defs><style type="text/css"></style></defs><path d="M0 656.99115v167.646018c0 52.106195 20.389381 104.212389 58.902655 140.460177 36.247788 36.247788 88.353982 58.902655 140.460177 58.902655h854.088495c52.106195 0 104.212389-20.389381 140.460177-58.902655 36.247788-36.247788 58.902655-88.353982 58.902655-140.460177V656.99115l-22.654867-4.530973c-67.964602-11.327434-117.80531-70.230088-117.80531-140.460177s49.840708-129.132743 117.80531-140.460177l22.654867-4.530973V199.362832c0-52.106195-20.389381-104.212389-58.902655-140.460177C1155.39823 20.389381 1105.557522 0 1051.185841 0H199.362832C147.256637 0 95.150442 20.389381 58.902655 58.902655 20.389381 95.150442 0 147.256637 0 199.362832V656.99115z m56.637168-335.292035V199.362832c0-79.292035 63.433628-142.725664 142.725664-142.725664h854.088495c38.513274 0 74.761062 15.858407 99.681416 40.778761 27.185841 27.185841 40.778761 63.433628 40.778761 99.681416v122.336283c-83.823009 24.920354-142.725664 101.946903-142.725663 190.300885 0 88.353982 58.902655 165.380531 142.725663 190.300885v122.336283c0 38.513274-15.858407 74.761062-40.778761 99.681416-27.185841 27.185841-63.433628 40.778761-99.681416 40.778761H199.362832c-79.292035 0-142.725664-63.433628-142.725664-142.725663v-498.40708z m994.548673 190.300885" fill="#bfbfbf" p-id="2226"></path><path d="M879.00885 165.380531V115.539823c0-20.389381 11.327434-36.247788 31.716814-36.247788 20.389381 0 29.451327 13.59292 29.451327 36.247788v49.840708c0 20.389381-9.061947 36.247788-29.451327 36.247788s-31.716814-13.59292-31.716814-36.247788z m0 0M879.00885 353.415929v-49.840708c0-20.389381 11.327434-36.247788 31.716814-36.247787 20.389381 0 29.451327 13.59292 29.451327 36.247787v49.840708c0 20.389381-9.061947 36.247788-29.451327 36.247788s-31.716814-15.858407-31.716814-36.247788z m0 0M879.00885 539.185841v-49.840708c0-20.389381 11.327434-36.247788 31.716814-36.247788 20.389381 0 29.451327 13.59292 29.451327 36.247788v49.840708c0 20.389381-9.061947 36.247788-29.451327 36.247787s-31.716814-13.59292-31.716814-36.247787z m0 0M879.00885 727.221239v-49.840708c0-20.389381 11.327434-36.247788 31.716814-36.247788 20.389381 0 29.451327 13.59292 29.451327 36.247788v49.840708c0 20.389381-9.061947 36.247788-29.451327 36.247788s-31.716814-15.858407-31.716814-36.247788z m0 0M879.00885 912.99115v-49.840708c0-20.389381 11.327434-36.247788 31.716814-36.247787 20.389381 0 29.451327 13.59292 29.451327 36.247787v49.840708c0 20.389381-9.061947 36.247788-29.451327 36.247788s-31.716814-13.59292-31.716814-36.247788z m0 0" fill="#bfbfbf" p-id="2227"></path></svg>