<?xml version="1.0" encoding="utf-8"?>
<!-- Generator: Adobe Illustrator 22.1.0, SVG Export Plug-In . SVG Version: 6.00 Build 0)  -->
<svg version="1.1" id="图层_1" xmlns="http://www.w3.org/2000/svg" xmlns:xlink="http://www.w3.org/1999/xlink" x="0px" y="0px"
	 viewBox="0 0 128 128" style="enable-background:new 0 0 128 128;" xml:space="preserve">
<style type="text/css">
	.st0{fill:#7F7F7F;}
</style>
<path class="st0" d="M116.8,63.9c0,29.2-23.7,52.9-52.9,52.9C34.7,116.8,11,93.1,11,63.9c0-29.2,23.7-52.9,52.9-52.9l0-7.6
	C30.5,3.5,3.5,30.6,3.5,63.9s27.1,60.4,60.4,60.4s60.4-27.1,60.4-60.4H116.8z"/>
<path class="st0" d="M56.9,72.5h7.6c0-29.2,17.8-41.2,47-41.2l0.9-1l1.4-1.5L94.6,49.6c-0.7,0.8-0.7,2,0.1,2.7l2.8,2.6
	c0.8,0.7,2,0.7,2.7-0.1l20.6-22.1l2.6-2.8c0.7-0.8,0.7-2-0.1-2.7l-2.8-2.6L98.4,4c-0.8-0.7-2-0.7-2.7,0.1l-2.6,2.8
	c-0.7,0.8-0.7,2,0.1,2.7L108.7,24C75.3,24,56.9,39.1,56.9,72.5z"/>
</svg>
