<?xml version="1.0" standalone="no"?><!DOCTYPE svg PUBLIC "-//W3C//DTD SVG 1.1//EN" "http://www.w3.org/Graphics/SVG/1.1/DTD/svg11.dtd"><svg t="1567822742852" class="icon" viewBox="0 0 1024 1024" version="1.1" xmlns="http://www.w3.org/2000/svg" p-id="3094" data-spm-anchor-id="a313x.7781069.0.i6" xmlns:xlink="http://www.w3.org/1999/xlink" width="81" height="81"><defs><style type="text/css"></style></defs><path d="M473.088 827.904c-0.512 21.504-18.432 38.912-39.936 38.912-10.752 0-20.48-4.096-28.16-11.776L196.608 652.288H69.632c-21.504 0-39.424-17.408-39.936-38.912V379.392c0.512-22.016 18.432-38.912 39.936-38.912h126.976l208.384-202.752c7.68-7.168 17.408-11.776 28.16-11.776 21.504 0 39.424 17.408 39.936 38.912v663.04z" fill="#EAF4FF" p-id="3095" data-spm-anchor-id="a313x.7781069.0.i7" class="selected"></path><path d="M433.152 897.024c-18.944 0-36.352-7.168-49.152-19.968L184.832 683.008H70.144c-37.888 0-69.12-30.208-69.632-68.096V379.904c0.512-37.888 31.744-68.096 69.632-68.096h115.2l199.68-194.56c12.8-12.8 30.208-19.968 48.64-19.968h0.512c37.376 0 68.608 30.72 69.632 68.096v663.552c-1.536 37.376-32.768 68.096-70.656 68.096z m-236.544-273.92h12.288L425.984 834.56c2.048 2.048 4.608 3.072 7.68 3.072 5.632 0 9.728-4.096 10.24-9.728V165.888c0-5.12-4.608-9.728-9.728-9.728-3.072 0-5.632 1.024-7.68 3.072L209.408 370.688H70.144c-5.632 0-9.728 4.096-10.24 9.728v232.96c0 5.12 4.608 9.728 9.728 9.728h126.976zM662.016 646.656c-4.096 2.048-8.704 3.072-13.312 3.072-19.456-0.512-35.328-16.896-34.816-36.352 0-43.52 62.976-31.744 62.976-100.864s-62.976-57.344-62.976-100.864c-0.512-19.456 14.848-36.352 34.816-36.864 4.608 0 9.216 1.024 13.312 3.072 51.2 20.992 83.968 77.312 83.968 134.656 0.512 56.832-32.768 112.128-83.968 134.144zM716.8 781.824c-4.096 1.536-8.704 2.56-13.312 3.072-19.968-0.512-35.84-16.896-35.328-36.864 0-14.336 8.192-27.648 20.992-33.792 14.336-7.168 28.16-15.872 41.472-25.088 97.792-78.336 113.664-221.184 35.328-318.976-10.24-13.312-22.528-25.088-35.328-35.328-12.8-9.728-26.624-17.92-41.472-25.088-12.8-6.144-20.992-19.456-20.992-33.792-0.512-19.456 14.848-35.84 34.816-36.864 4.608 0 9.728 1.024 14.336 3.072C819.2 287.232 885.248 395.776 885.248 512S819.2 736.768 716.8 781.824z m54.784 134.656c-4.608 2.048-9.216 2.56-14.336 3.072-19.456-0.512-35.328-16.896-34.816-36.864 0-16.384 8.192-25.6 20.992-33.792 7.68-4.608 16.384-7.68 24.576-12.288 15.36-8.704 30.208-18.432 44.544-29.184 89.088-69.12 141.312-178.688 141.312-295.936 0-116.736-52.736-226.304-141.312-295.936-14.336-10.752-29.184-20.48-44.544-29.184-8.192-4.608-16.896-7.68-24.576-12.288-12.8-8.192-20.992-17.408-20.992-33.792-0.512-19.456 14.848-35.84 34.816-36.864 4.608 0 9.728 1.024 14.336 3.072C924.672 175.616 1024 335.36 1024 511.488S924.672 847.36 771.584 916.48z" fill="#256cfa" p-id="3096" data-spm-anchor-id="a313x.7781069.0.i5" class=""></path></svg>