<?xml version="1.0" encoding="UTF-8"?>
<svg width="73px" height="84px" viewBox="0 0 73 84" version="1.1" xmlns="http://www.w3.org/2000/svg" xmlns:xlink="http://www.w3.org/1999/xlink">
    <!-- Generator: Sketch 50 (54983) - http://www.bohemiancoding.com/sketch -->
    <title>Group 4</title>
    <desc>Created with Sketch.</desc>
    <defs></defs>
    <g id="Page-1" stroke="none" stroke-width="1" fill="none" fill-rule="evenodd">
        <g id="我的卡券-copy-8" transform="translate(-516.000000, -586.000000)">
            <g id="Group-4" transform="translate(516.000000, 586.000000)">
                <g id="Group-25-Copy-3" fill="#328FD3" opacity="0.0953683036">
                    <polygon id="Polygon-Copy-13" points="36.373067 0 72.7461339 21 72.7461339 63 36.373067 84 3.49054119e-13 63 3.25073302e-13 21"></polygon>
                </g>
                <g id="ziliao" transform="translate(20.000000, 29.000000)" fill-rule="nonzero">
                    <path d="M31.0858277,25.8438384 C30.3423422,25.8438384 0.577581648,25.8669826 0.012630935,25.8669826 L0.012630935,1.23582732 C0.012630935,0.566009593 0.580115398,0.0229928398 1.28011123,0.0229928398 L30.9597075,0.0229928398 L31.0858277,25.8438384 Z" id="Shape" fill="#3A5CAC"></path>
                    <path d="M5.36803392,3.98173208 C5.36803392,3.98173208 27.1032637,4.01607007 29.051453,4.01607007 C29.051453,4.01607007 29.0735005,5.53321933 29.0735005,6.50549878 L18.447594,8.45278054 C17.3560392,8.60469211 15.4739543,9.09930288 13.5939871,9.09930288 L5.36803392,9.09930288 L5.36803392,3.98173208 Z" id="Shape" fill="#F8F8F8"></path>
                    <path d="M33.8870968,24.5856612 C33.8870968,25.2846738 33.3156416,25.8563559 32.616629,25.8563559 L3.29440501,25.8563559 C3.29440501,25.7397656 3.31630115,9.96036204 3.31630115,9.96036204 C3.31630115,9.26150073 3.88790768,8.69288175 4.5869959,8.69288175 L14.710955,8.69288175 C15.9162639,8.69288175 16.7208998,7.94739187 17.5037531,7.22357122 C17.8764035,6.87875426 18.6500672,6.16109781 18.9916697,6.09903983 L33.8871725,6.09903983 L33.8871725,24.585699 L33.8870968,24.585699 L33.8870968,24.5856612 Z" id="Shape" fill="#F3797D"></path>
                    <path d="M27.9520701,12.0977129 L18.151183,12.0977129 C17.5797278,12.0977129 17.1166943,12.5605572 17.1166943,13.1322016 C17.1166943,13.7068335 17.57969,14.1697157 18.151183,14.1697157 L27.9521079,14.1697157 C28.5207269,14.1697157 28.9835334,13.7068713 28.9835334,13.1322016 C28.9835712,12.5605194 28.5206891,12.0977129 27.9520701,12.0977129 Z M27.9520701,16.6704517 L18.151183,16.6704517 C17.5797278,16.6704517 17.1166943,17.1332961 17.1166943,17.7049404 C17.1166943,18.2763957 17.57969,18.7392779 18.151183,18.7392779 L27.9521079,18.7392779 C28.5207269,18.7392779 28.9835334,18.2764335 28.9835334,17.7049404 C28.9835712,17.1332583 28.5206891,16.6704517 27.9520701,16.6704517 Z" id="Shape" fill="#FFFFFF"></path>
                </g>
            </g>
        </g>
    </g>
</svg>