<?xml version="1.0" encoding="UTF-8"?>
<svg width="73px" height="84px" viewBox="0 0 73 84" version="1.1" xmlns="http://www.w3.org/2000/svg" xmlns:xlink="http://www.w3.org/1999/xlink">
    <!-- Generator: Sketch 50 (54983) - http://www.bohemiancoding.com/sketch -->
    <title>Group 5</title>
    <desc>Created with Sketch.</desc>
    <defs></defs>
    <g id="Page-1" stroke="none" stroke-width="1" fill="none" fill-rule="evenodd">
        <g id="我的卡券-copy-8" transform="translate(-161.000000, -867.000000)">
            <g id="Group-5" transform="translate(161.000000, 867.000000)">
                <g id="Group-25-Copy-2" fill="#328FD3" opacity="0.0953683036">
                    <polygon id="Polygon-Copy-13" points="36.373067 0 72.7461339 21 72.7461339 63 36.373067 84 3.49054119e-13 63 3.25073302e-13 21"></polygon>
                </g>
                <g id="files-and-folders" transform="translate(20.000000, 25.000000)" fill-rule="nonzero">
                    <path d="M8,1 L8,34 L0,34 L1.64942531e-05,5.87741415 C-0.00112636346,5.72103004 0.0571592179,5.57054719 0.162873297,5.45783261 C1.98229811,3.54935622 4.71143536,1.99672747 8,1 Z" id="Shape" fill="#97D6FF"></path>
                    <path d="M12,34 L22,34 L21.9999757,0.851114006 C22.0027338,0.555339846 21.7701,0.303979907 21.4574784,0.264947536 C18.497762,-0.0883158455 15.502238,-0.0883158455 12.5425216,0.264947536 C12.2298999,0.303979922 11.9972662,0.555339857 12.0000243,0.851114006 L12,34 Z" id="Shape" fill="#24AE5F"></path>
                    <path d="M12,34 L22,34 L21.9999757,0.851114006 C22.0027338,0.555339846 21.7701,0.303979907 21.4574784,0.264947536 C18.497762,-0.0883158455 15.502238,-0.0883158455 12.5425216,0.264947536 C12.2298999,0.303979922 11.9972662,0.555339857 12.0000243,0.851114006 L12,34 Z" id="Shape" fill="#55B7A8"></path>
                    <polygon id="Shape" fill="#2980BA" points="12 4.49356223 12 34 8 34 8 1"></polygon>
                    <path d="M15.625,3 L19.375,3 C19.7916667,3 20,3.19230769 20,3.57692308 L20,17.4230769 C20,17.8076923 19.7916667,18 19.375,18 L15.625,18 C15.2083333,18 15,17.8076923 15,17.4230769 L15,3.57692308 C15,3.19230769 15.2083333,3 15.625,3 Z" id="Shape" fill="#DCF1EE"></path>
                    <path d="M4.49999972,22 L2.49999995,22 C2.22385761,22 2.00000001,21.7327834 2.00000001,21.403155 L2.00000001,9.18872126 C1.999975,8.98920878 2.08346514,8.80287563 2.22249998,8.69214621 L4.22249976,7.10036048 C4.37600371,6.97810743 4.57343896,6.96671865 4.73610286,7.07073399 C4.89876676,7.17474934 5.00021189,7.37725702 4.99999967,7.59753238 L4.99999967,21.403155 C4.99999967,21.7327834 4.77614207,22 4.49999972,22 Z" id="Shape" fill="#D1D4D1"></path>
                    <path d="M5.75,22 L3.25,22 C2.55964406,22 2,21.471949 2,20.820565 L2,8.75199664 C2.0000768,8.35762504 2.20904994,7.98938579 2.556875,7.77070674 L5.056875,6.19793023 C5.44042766,5.95678907 5.93349696,5.93436213 6.33985374,6.13957476 C6.74621052,6.34478739 6.99991531,6.74433976 7,7.17922009 L7,20.820565 C7,21.471949 6.44035594,22 5.75,22 Z M5.75,7.17922009 L3.25,8.75199664 L3.25,20.820565 L5.75,20.820565 L5.75,7.17922009 Z" id="Shape" fill="#285680"></path>
                    <path d="M15,27.5 C14.9998937,28.3931285 15.4763678,29.2184588 16.2499141,29.6650538 C17.0234605,30.1116487 17.9765395,30.1116487 18.7500859,29.6650538 C19.5236322,29.2184588 20.0001063,28.3931285 20,27.5 C20.0001063,26.6068715 19.5236322,25.7815412 18.7500859,25.3349462 C17.9765395,24.8883513 17.0234605,24.8883513 16.2499141,25.3349462 C15.4763678,25.7815412 14.9998937,26.6068715 15,27.5 Z" id="Shape" fill="#113D36"></path>
                    <path d="M17,30 C15.3431458,30 14,28.6568542 14,27 C14,25.3431458 15.3431458,24 17,24 C18.6568542,24 20,25.3431458 20,27 C20,28.6568542 18.6568542,30 17,30 Z M17,25.2 C16.0058874,25.2 15.2,26.0058874 15.2,27 C15.2,27.9941125 16.0058874,28.8 17,28.8 C17.9941126,28.8 18.8,27.9941125 18.8,27 C18.8,26.0058874 17.9941126,25.2 17,25.2 Z" id="Shape" fill="#1F5E54"></path>
                    <path d="M2,27.5 C1.99999999,28.393164 2.28589838,29.2184815 2.74999999,29.6650635 C3.21410161,30.1116455 3.78589839,30.1116455 4.25000001,29.6650635 C4.71410162,29.2184815 5.00000001,28.393164 5,27.5 C5,26.1192881 4.32842712,25 3.5,25 C2.67157288,25 2,26.1192881 2,27.5 Z" id="Shape" fill="#2C3E50"></path>
                    <path d="M4.5,30 C3.12124999,30 2,28.6542 2,27 C2,25.3458 3.12124999,24 4.5,24 C5.87875001,24 7,25.3458 7,27 C7,28.6542 5.87875001,30 4.5,30 Z M4,25 C3.45800001,25 3,25.916 3,27 C3,28.084 3.45800001,29 4,29 C4.54199999,29 5,28.084 5,27 C5,25.916 4.54199999,25 4,25 Z" id="Shape" fill="#285680"></path>
                    <path d="M26,1 L26,34 L34,34 L33.9999835,5.87741415 C34.0011264,5.72103004 33.9428408,5.57054719 33.8371267,5.45783261 C32.0177019,3.54935622 29.2885647,1.99672747 26,1 Z" id="Shape" fill="#D5DDFF"></path>
                    <polygon id="Shape" fill="#2980BA" points="22 4.49356223 22 34 26 34 26 1"></polygon>
                    <path d="M28.5000003,22 L30.5,22 C30.7761424,22 31,21.7327834 31,21.403155 L31,9.18872126 C31.000025,8.98920878 30.9165349,8.80287563 30.7775,8.69214621 L28.7775003,7.10036048 C28.6239963,6.97810743 28.426561,6.96671865 28.2638971,7.07073399 C28.1012332,7.17474934 27.9997881,7.37725702 28.0000003,7.59753238 L28.0000003,21.403155 C28.0000003,21.7327834 28.2238579,22 28.5000003,22 Z" id="Shape" fill="#D1D4D1"></path>
                    <path d="M28.0000021,20.820739 L28.0000021,7.18140596 C27.9991636,6.74616665 28.2525097,6.34587672 28.6590444,6.14011089 C29.0655792,5.93434507 29.5591998,5.95656097 29.9431255,6.19790229 L32.4431234,7.77044684 C32.7916861,7.9895566 33.0007582,8.35880166 32.9999979,8.75395054 L32.9999979,20.820739 C32.9999979,21.4720269 32.4403543,22 31.749999,22 L29.250001,22 C28.5596457,22 28.0000021,21.4720269 28.0000021,20.820739 Z M29.250001,20.820739 L31.749999,20.820739 L31.749999,8.75395054 L29.250001,7.18140596 L29.250001,20.820739 Z" id="Shape" fill="#285680"></path>
                    <path d="M28,27.5 C27.9999264,28.3931231 28.2858086,29.2184553 28.7499405,29.6650523 C29.2140724,30.1116492 29.7859276,30.1116492 30.2500595,29.6650523 C30.7141914,29.2184553 31.0000736,28.3931231 31,27.5 C31.0000736,26.6068769 30.7141914,25.7815447 30.2500595,25.3349477 C29.7859276,24.8883508 29.2140724,24.8883508 28.7499405,25.3349477 C28.2858086,25.7815447 27.9999264,26.6068769 28,27.5 Z" id="Shape" fill="#2C3E50"></path>
                    <path d="M28,27 C28,25.3458 29.12125,24 30.5,24 C31.87875,24 33,25.3458 33,27 C33,28.6542 31.87875,30 30.5,30 C29.12125,30 28,28.6542 28,27 Z M29.25,27 C29.25,27.9756 29.8225,28.8 30.5,28.8 C31.1775,28.8 31.75,27.9756 31.75,27 C31.75,26.0244 31.1775,25.2 30.5,25.2 C29.8225001,25.2 29.25,26.0244 29.25,27 Z" id="Shape" fill="#285680"></path>
                    <path d="M19.4,7.22222223 L14.6,7.22222223 C14.2686292,7.22222223 14,6.94861846 14,6.61111111 C14,6.27360377 14.2686292,6 14.6,6 L19.4,6 C19.7313708,6 20,6.27360377 20,6.61111111 C20,6.94861846 19.7313708,7.22222223 19.4,7.22222223 Z M19.4,9.66666666 L14.6,9.66666666 C14.2686292,9.66666664 14,9.39306288 14,9.05555554 C14,8.7180482 14.2686292,8.44444444 14.6,8.44444443 L19.4,8.44444443 C19.7313708,8.44444444 20,8.7180482 20,9.05555554 C20,9.39306288 19.7313708,9.66666664 19.4,9.66666666 Z M19.4,12.1111111 L14.6,12.1111111 C14.2686292,12.1111111 14,11.8375073 14,11.5 C14,11.1624927 14.2686292,10.8888889 14.6,10.8888889 L19.4,10.8888889 C19.7313708,10.8888889 20,11.1624927 20,11.5 C20,11.8375073 19.7313708,12.1111111 19.4,12.1111111 Z M19.4,14.5555555 L14.6,14.5555555 C14.2686849,14.5554752 14.0001428,14.281895 14.0001428,13.9444444 C14.0001428,13.6069939 14.2686849,13.3334137 14.6,13.3333333 L19.4,13.3333333 C19.7313151,13.3334137 19.9998572,13.6069939 19.9998572,13.9444444 C19.9998572,14.281895 19.7313151,14.5554752 19.4,14.5555555 Z M19.4,17 L14.6,17 C14.2686292,17 14,16.7263962 14,16.3888889 C14,16.0513815 14.2686292,15.7777778 14.6,15.7777778 L19.4,15.7777778 C19.7313708,15.7777778 20,16.0513815 20,16.3888889 C20,16.7263962 19.7313708,17 19.4,17 Z" id="Shape" fill="#113D36"></path>
                    <path d="M18.8,19 L15.2,19 C14.5372583,19 14,18.4883254 14,17.8571429 L14,4.14285715 C14,3.51167457 14.5372583,3 15.2,3 L18.8,3 C19.4627417,3 20,3.51167457 20,4.14285715 L20,17.8571429 C20,18.4883254 19.4627417,19 18.8,19 Z M15.2,4.14285715 L15.2,17.8571429 L18.8,17.8571429 L18.8,4.14285715 L15.2,4.14285715 Z" id="Shape" fill="#1F5E54"></path>
                    <path d="M12.2,4.01354228 L12.2,34 L11,34 L11,3 L12.2,4.01354228 Z M23,3 L23,34 L21.8,34 L21.8,4.01354228 L23,3 Z" id="Shape" fill="#3B5E7D"></path>
                </g>
            </g>
        </g>
    </g>
</svg>