<?xml version="1.0" encoding="utf-8"?>
<!-- Generator: Adobe Illustrator 22.1.0, SVG Export Plug-In . SVG Version: 6.00 Build 0)  -->
<svg version="1.1" id="图层_1" xmlns="http://www.w3.org/2000/svg" xmlns:xlink="http://www.w3.org/1999/xlink" x="0px" y="0px"
	 viewBox="0 0 200 200" style="enable-background:new 0 0 200 200;" xml:space="preserve">
<style type="text/css">
	.st0{fill:#256CFA;}
	.st1{fill:#92B6FD;}
</style>
<path class="st0" d="M106.6,162.2l-21.5,21c-1.6,1.6-4.4,1.5-6,0l-10.5-10.7c3-4.6,4.6-10,4.6-15.6c0.1-8-2.9-15.5-8.5-21.2
	c-5.7-5.8-13.3-9-21.5-9c-5.5,0-10.8,1.5-15.4,4.2L17.4,120c-0.8-0.8-1.2-1.9-1.2-3c0-1.1,0.5-2.2,1.3-3l95.9-93.6
	c1.6-1.6,4.5-1.5,6,0l10.5,10.7c-3,4.6-4.6,10-4.6,15.7c-0.1,8,2.9,15.5,8.5,21.2c5.7,5.8,13.3,9,21.5,9c5.5,0,10.8-1.5,15.4-4.2
	l10.5,10.8c0.8,0.8,1.2,1.9,1.2,3c0,1.1-0.5,2.2-1.3,3l-16.7,16.3c4.8,1.7,8.7,4.8,11,8.6l15.4-15c3.4-3.3,5.4-7.9,5.4-12.7
	c0-4.8-1.8-9.3-5.1-12.7l-14.7-15.1c-1.3-1.3-3-2.1-4.9-2.1c-1.8,0.2-3.6,0.7-4.9,2c-6.2,6-16.8,5.9-22.8-0.3
	c-3-3.1-4.6-7.1-4.6-11.4c0-4.3,1.8-8.3,4.9-11.3c2.7-2.6,2.8-7,0.2-9.7c0,0,0,0,0,0l-14.7-15.1c-6.8-6.9-18.6-7-25.6-0.3L7.9,104.2
	c-3.5,3.4-5.4,7.9-5.5,12.7c-0.1,4.8,1.8,9.4,5.1,12.8l14.7,15.1c1.3,1.3,3,2.1,4.9,2.1c1.6,0,3.6-0.7,4.9-2
	c6.2-6,16.8-5.9,22.8,0.3c3,3,4.7,7.1,4.6,11.4c0,4.3-1.8,8.3-4.9,11.3c-2.7,2.6-2.8,7-0.1,9.7c0,0,0,0,0,0l14.7,15.1
	c3.4,3.5,8.1,5.5,12.9,5.4c4.7,0,9.2-1.8,12.7-5.1l19.7-19.3C110.5,171.1,107.6,166.9,106.6,162.2z"/>
<path class="st0" d="M86.4,138.2c1.8,0,3.6-0.7,4.9-2l38.6-38.5c2.7-2.7,2.7-7,0-9.7c0,0,0,0,0,0c-2.7-2.7-7.1-2.7-9.8,0l-38.6,38.5
	c-2.7,2.7-2.7,7,0,9.7c0,0,0,0,0,0C82.8,137.5,84.6,138.2,86.4,138.2z"/>
<path class="st0" d="M109.2,67.4c-2.7-2.7-7.1-2.7-9.8,0l-38.6,38.5c-2.7,2.7-2.7,7,0,9.7c0,0,0,0,0,0c1.3,1.3,3.1,2,4.9,2
	c1.8,0,3.6-0.7,4.9-2l38.6-38.5C111.9,74.5,111.9,70.1,109.2,67.4C109.3,67.4,109.3,67.4,109.2,67.4z"/>
<path class="st1" d="M195.7,182.1l-20.2-17.4c3.8-5.7,5.8-12.3,5.8-19.2c0-19.2-15.7-34.9-35-34.9s-35,15.7-35,34.9
	c0,19.2,15.7,34.9,35,34.9c7.8,0,15.5-2.6,21.6-7.5l20.5,17.6c1,0.9,2.3,1.4,3.7,1.4c1.6,0,3.2-0.7,4.3-1.9
	C198.3,187.7,198,184.1,195.7,182.1C195.7,182.1,195.7,182.1,195.7,182.1L195.7,182.1z M170.7,145.5c0,13.5-11,24.4-24.5,24.4v0
	c-13.5,0-24.5-11-24.5-24.4c0-13.5,11-24.4,24.5-24.4C159.7,121.1,170.7,132.1,170.7,145.5z"/>
</svg>
