<?xml version="1.0" encoding="utf-8"?>
<!-- Generator: Adobe Illustrator 22.1.0, SVG Export Plug-In . SVG Version: 6.00 Build 0)  -->
<svg version="1.1" id="图层_1" xmlns="http://www.w3.org/2000/svg" xmlns:xlink="http://www.w3.org/1999/xlink" x="0px" y="0px"
	 viewBox="0 0 43 43" style="enable-background:new 0 0 43 43;" xml:space="preserve">
<style type="text/css">
	.st0{fill:url(#Oval-29_1_);stroke:url(#Oval-29_2_);}
	.st1{fill:url(#Oval-30_1_);stroke:url(#Oval-30_2_);}
	.st2{filter:url(#filter-6);}
	.st3{fill:#FFE8CE;}
	.st4{font-family:'Arial-BoldMT';}
	.st5{font-size:13px;}
	.st6{fill:none;stroke:#FFE2B9;}
	.st7{fill:#FFE2B9;}
</style>
<filter  filterUnits="objectBoundingBox" height="111.1%" id="filter-6" width="104.0%" x="-2.0%" y="-8.3%">
	<feOffset  dx="0" dy="-1" in="SourceAlpha" result="shadowOffsetOuter1"></feOffset>
	
		<feColorMatrix  in="shadowOffsetOuter1" type="matrix" values="0 0 0 0 0.630208333   0 0 0 0 0.350672961   0 0 0 0 0.0223298249  0 0 0 1 0">
		</feColorMatrix>
</filter>
<title>标签-1 copy 2</title>
<desc>Created with Sketch.</desc>
<g id="标签-1-copy-2">
	<g id="Group-41-Copy">
		
			<linearGradient id="Oval-29_1_" gradientUnits="userSpaceOnUse" x1="-644.7619" y1="397.381" x2="-644.7619" y2="396.381" gradientTransform="matrix(42 0 0 -42 27101.5 16690.5)">
			<stop  offset="0" style="stop-color:#F6DF78"/>
			<stop  offset="1" style="stop-color:#BD721D"/>
		</linearGradient>
		
			<linearGradient id="Oval-29_2_" gradientUnits="userSpaceOnUse" x1="-644.7619" y1="397.381" x2="-644.7619" y2="396.381" gradientTransform="matrix(42 0 0 -42 27101.5 16690.5)">
			<stop  offset="4.346550e-02" style="stop-color:#FFE2B9"/>
			<stop  offset="1" style="stop-color:#966039"/>
		</linearGradient>
		<circle id="Oval-29" class="st0" cx="21.5" cy="21.5" r="21"/>
		
			<radialGradient id="Oval-30_1_" cx="-642.5666" cy="395.9084" r="0.6921" gradientTransform="matrix(37 0 0 -37 23799 14663)" gradientUnits="userSpaceOnUse">
			<stop  offset="0" style="stop-color:#FAEF9E"/>
			<stop  offset="1" style="stop-color:#BC5C0B"/>
		</radialGradient>
		
			<linearGradient id="Oval-30_2_" gradientUnits="userSpaceOnUse" x1="-642.6351" y1="395.2162" x2="-642.6351" y2="396.2162" gradientTransform="matrix(37 0 0 -37 23799 14663)">
			<stop  offset="0" style="stop-color:#FFE2B9;stop-opacity:0.2096"/>
			<stop  offset="1" style="stop-color:#A84610"/>
		</linearGradient>
		<circle id="Oval-30" class="st1" cx="21.5" cy="21.5" r="18.5"/>
		<g id="ISP">
			<g class="st2">
				<text transform="matrix(1 0 0 1 11.6875 27)" class="st3 st4 st5">ISP</text>
			</g>
			<g>
				<text transform="matrix(1 0 0 1 11.6875 27)" class="st3 st4 st5">ISP</text>
			</g>
		</g>
		<circle id="Oval-31" class="st6" cx="21.5" cy="21.5" r="14.5"/>
		<polygon id="Star-3" class="st7" points="23,38.7 22.4,39 22.5,38.3 22,37.8 22.7,37.7 23,37 23.3,37.7 24,37.8 23.5,38.3 
			23.6,39 		"/>
		<polygon id="Star-3-Copy-4" class="st7" points="29,36.7 28.4,37 28.5,36.3 28,35.8 28.7,35.7 29,35 29.3,35.7 30,35.8 29.5,36.3 
			29.6,37 		"/>
		<polygon id="Star-3-Copy-5" class="st7" points="33,33.7 32.4,34 32.5,33.3 32,32.8 32.7,32.7 33,32 33.3,32.7 34,32.8 33.5,33.3 
			33.6,34 		"/>
		<polygon id="Star-3-Copy-6" class="st7" points="36,29.7 35.4,30 35.5,29.3 35,28.8 35.7,28.7 36,28 36.3,28.7 37,28.8 36.5,29.3 
			36.6,30 		"/>
		<polygon id="Star-3-Copy-7" class="st7" points="38,23.7 37.4,24 37.5,23.3 37,22.8 37.7,22.7 38,22 38.3,22.7 39,22.8 38.5,23.3 
			38.6,24 		"/>
		<polygon id="Star-3-Copy-8" class="st7" points="37,15.7 36.4,16 36.5,15.3 36,14.8 36.7,14.7 37,14 37.3,14.7 38,14.8 37.5,15.3 
			37.6,16 		"/>
		<polygon id="Star-3-Copy-9" class="st7" points="33,11.7 32.4,12 32.5,11.3 32,10.8 32.7,10.7 33,10 33.3,10.7 34,10.8 33.5,11.3 
			33.6,12 		"/>
		<polygon id="Star-3-Copy-10" class="st7" points="29,7.7 28.4,8 28.5,7.3 28,6.8 28.7,6.7 29,6 29.3,6.7 30,6.8 29.5,7.3 29.6,8 
					"/>
		<polygon id="Star-3-Copy-11" class="st7" points="23,5.7 22.4,6 22.5,5.3 22,4.8 22.7,4.7 23,4 23.3,4.7 24,4.8 23.5,5.3 23.6,6 
					"/>
		<polygon id="Star-3-Copy-12" class="st7" points="17,6.7 16.4,7 16.5,6.3 16,5.8 16.7,5.7 17,5 17.3,5.7 18,5.8 17.5,6.3 17.6,7 
					"/>
		<polygon id="Star-3-Copy-13" class="st7" points="12,8.7 11.4,9 11.5,8.3 11,7.8 11.7,7.7 12,7 12.3,7.7 13,7.8 12.5,8.3 12.6,9 
					"/>
		<polygon id="Star-3-Copy-14" class="st7" points="8,12.7 7.4,13 7.5,12.3 7,11.8 7.7,11.7 8,11 8.3,11.7 9,11.8 8.5,12.3 8.6,13 
					"/>
		<polygon id="Star-3-Copy-15" class="st7" points="5,18.7 4.4,19 4.5,18.3 4,17.8 4.7,17.7 5,17 5.3,17.7 6,17.8 5.5,18.3 5.6,19 
					"/>
		<polygon id="Star-3-Copy-16" class="st7" points="5,24.7 4.4,25 4.5,24.3 4,23.8 4.7,23.7 5,23 5.3,23.7 6,23.8 5.5,24.3 5.6,25 
					"/>
		<polygon id="Star-3-Copy" class="st7" points="17,37.7 16.4,38 16.5,37.3 16,36.8 16.7,36.7 17,36 17.3,36.7 18,36.8 17.5,37.3 
			17.6,38 		"/>
		<polygon id="Star-3-Copy-2" class="st7" points="12,34.7 11.4,35 11.5,34.3 11,33.8 11.7,33.7 12,33 12.3,33.7 13,33.8 12.5,34.3 
			12.6,35 		"/>
		<polygon id="Star-3-Copy-3" class="st7" points="8,30.7 7.4,31 7.5,30.3 7,29.8 7.7,29.7 8,29 8.3,29.7 9,29.8 8.5,30.3 8.6,31 		
			"/>
	</g>
</g>
</svg>
