<?xml version="1.0" standalone="no"?><!DOCTYPE svg PUBLIC "-//W3C//DTD SVG 1.1//EN" "http://www.w3.org/Graphics/SVG/1.1/DTD/svg11.dtd"><svg t="1545734764148" class="icon" style="" viewBox="0 0 1024 1024" version="1.1" xmlns="http://www.w3.org/2000/svg" p-id="20341" xmlns:xlink="http://www.w3.org/1999/xlink" width="200" height="200"><defs><style type="text/css"></style></defs><path d="M730.773 574.635l-0.214-0.506c-3.38-7.388-9.258-18.042-18.078-26.842l-0.19-0.186c-5.972-5.642-15.438-13.239-26.742-17.53-7.692-3.407-16.455-5.466-25.627-6.095a105.51 105.51 0 0 0 12.818-11.046c19.297-18.8 29.924-44.42 29.924-72.15 0-27.885-10.928-54.361-29.983-72.651-19.669-19.513-45.427-30.256-72.543-30.256-27.099 0-53.54 11.04-72.566 30.293-19.247 18.506-30.282 44.965-30.282 72.615 0 27.095 11.019 53.375 30.235 72.125a100.5 100.5 0 0 0 12.824 11.085c-19.434 1.41-37.962 9.656-52.708 23.619l-0.246 0.24c-7.059 7.173-13.361 16.761-17.775 27.066-4.99 11.909-5.837 58.548-5.892 62.338-0.085 3.209 0.242 11.14 5.04 16.072 2.472 2.54 5.765 3.939 9.271 3.939h244.823c8.677 0 14.283-7.76 14.283-19.771 0-6.308-1.917-50.964-6.372-62.359zM516.802 440.28c0-22.408 8.884-43.776 24.373-58.626l0.197-0.194c15.392-15.618 36.811-24.575 58.766-24.575 21.956 0 42.857 8.753 58.852 24.647l0.129 0.125c15.273 14.631 24.034 35.999 24.034 58.623 0 22.45-8.555 43.13-24.087 58.231l-0.145 0.144c-15.644 15.86-36.141 24.594-57.717 24.594H599.1c-21.485 0-42.511-8.946-57.685-24.545l-0.188-0.19c-15.523-15.104-24.425-36.329-24.425-58.234z m200.823 196.974H483.233l0.004-0.259c0-15.005 1.982-49.219 4.348-54.968 3.375-7.878 8.326-15.475 13.599-20.87 12.591-11.864 28.61-18.396 45.13-18.396h107.663c8.58 0 17.058 1.683 23.871 4.739l0.579 0.238c6.502 2.428 13.729 7.203 20.363 13.452 5.177 5.192 10.098 12.547 13.888 20.753 2.379 6.71 4.955 42.553 4.955 55.006-0.001 0.099-0.003 0.2-0.008 0.305z" p-id="20342" fill="#2c2c2c"></path><path d="M827.338 112H196.677c-21.854 0-39.633 17.725-39.633 39.511v720.582c0 22.005 17.779 39.907 39.633 39.907h630.661c21.846 0 39.618-17.902 39.618-39.907V151.511c0-21.786-17.772-39.511-39.618-39.511zM347.326 892.488H196.677c-11.095 0-20.121-9.149-20.121-20.396v-46.584h60.729c9.634 0 17.043-7.226 17.043-16.768 0-9.39-7.409-16.768-17.043-16.768h-60.729V636.614h60.729c9.634 0 17.043-7.241 17.043-16.615 0-9.39-7.409-17.134-17.043-17.134h-60.729V447.536h60.729c9.634 0 17.043-7.21 17.043-16.768 0-9.375-7.409-16.768-17.043-16.768h-60.729V258.824h60.729c9.634 0 17.043-7.927 17.043-17.119 0-9.375-7.409-16.95-17.043-16.95h-60.729v-73.244c0-11.027 9.026-19.999 20.121-19.999h150.648v760.976z m500.118-20.395c0 11.246-9.02 20.396-20.106 20.396h-460.5V131.512h460.5c11.087 0 20.106 8.972 20.106 19.999v720.582z" p-id="20343" fill="#2c2c2c"></path></svg>