<?xml version="1.0" standalone="no"?><!DOCTYPE svg PUBLIC "-//W3C//DTD SVG 1.1//EN" "http://www.w3.org/Graphics/SVG/1.1/DTD/svg11.dtd"><svg t="1540436531032" class="icon" style="" viewBox="0 0 1024 1024" version="1.1" xmlns="http://www.w3.org/2000/svg" p-id="6795" xmlns:xlink="http://www.w3.org/1999/xlink" width="128" height="128"><defs><style type="text/css"></style></defs><path d="M512 1024C229.2224 1024 0 794.7776 0 512S229.2224 0 512 0s512 229.2224 512 512-229.2224 512-512 512z m-192-409.6a25.6 25.6 0 0 0-25.6 25.6v25.6a25.6 25.6 0 0 0 25.6 25.6h384a25.6 25.6 0 0 0 25.6-25.6v-25.6a25.6 25.6 0 0 0-25.6-25.6h-384z m51.2-230.4a25.6 25.6 0 0 0-25.6 25.6v153.6a25.6 25.6 0 0 0 25.6 25.6h25.6a25.6 25.6 0 0 0 25.6-25.6v-153.6a25.6 25.6 0 0 0-25.6-25.6h-25.6z m128-102.4a25.6 25.6 0 0 0-25.6 25.6v256a25.6 25.6 0 0 0 25.6 25.6h25.6a25.6 25.6 0 0 0 25.6-25.6V307.2a25.6 25.6 0 0 0-25.6-25.6h-25.6z m128 128a25.6 25.6 0 0 0-25.6 25.6v128a25.6 25.6 0 0 0 25.6 25.6h25.6a25.6 25.6 0 0 0 25.6-25.6v-128a25.6 25.6 0 0 0-25.6-25.6h-25.6z" fill="#8a8a8a" p-id="6796"></path></svg>