<?xml version="1.0" standalone="no"?><!DOCTYPE svg PUBLIC "-//W3C//DTD SVG 1.1//EN" "http://www.w3.org/Graphics/SVG/1.1/DTD/svg11.dtd"><svg t="1545027355279" class="icon" style="" viewBox="0 0 1024 1024" version="1.1" xmlns="http://www.w3.org/2000/svg" p-id="44712" xmlns:xlink="http://www.w3.org/1999/xlink" width="200" height="200"><defs><style type="text/css"></style></defs><path d="M512 512m-512 0a512 512 0 1 0 1024 0 512 512 0 1 0-1024 0Z" fill="#B0F4FF" p-id="44713"></path><path d="M512 45.522489c257.592889 0 466.488889 208.907378 466.488889 466.500267 0 117.031822-43.133156 223.994311-114.346667 305.902933H159.869156C88.644267 736.005689 45.511111 629.0432 45.511111 512.011378c0-257.592889 208.896-466.488889 466.488889-466.488889z" fill="#064F77" p-id="44714"></path><path d="M332.458667 349.013333h42.496v55.967289H332.458667v-55.967289z m64.318577 0h42.496v55.967289h-42.496v-55.967289z m64.318578 0h42.496v55.967289h-42.496v-55.967289z m64.329956 0h42.496v55.967289H525.425778v-55.967289z m64.318578 0h42.484622v55.967289h-42.484622v-55.967289z m64.3072 0h42.507377v55.967289h-42.507377v-55.967289z" fill="#8ED8F8" p-id="44715"></path><path d="M329.944178 351.5392h42.496v55.967289h-42.496v-55.967289z m64.318578 0h42.496v55.967289h-42.496v-55.967289z m64.329955 0h42.496v55.967289h-42.496v-55.967289z m64.318578 0h42.496v55.967289h-42.496v-55.967289z m64.318578 0h42.496v55.967289h-42.496v-55.967289z m64.329955 0h42.496v55.967289h-42.496v-55.967289z" fill="" p-id="44716"></path><path d="M512 512.011378m-60.495644 0a60.495644 60.495644 0 1 0 120.991288 0 60.495644 60.495644 0 1 0-120.991288 0Z" fill="" p-id="44717"></path><path d="M879.138133 299.531378l-24.826311 14.791111a310.237867 310.237867 0 0 0-3.561244-6.018845l24.837689-14.791111 3.549866 6.018845zM512 87.870578c8.180622 0 16.304356 0.250311 24.3712 0.7168l-0.785067 28.922311A395.195733 395.195733 0 0 0 512 116.781511l-0.807822 0.011378 0.773689-28.922311H512z m60.051911 4.243911c2.309689 0.329956 4.619378 0.659911 6.917689 1.024l-4.3008 28.603733a461.573689 461.573689 0 0 0-6.929067-1.024l4.312178-28.603733z m44.179911 8.669867c2.2528 0.580267 4.5056 1.171911 6.735645 1.786311l-7.2704 27.977955a493.613511 493.613511 0 0 0-6.7584-1.786311l7.293155-27.977955z m42.973867 13.357511c2.184533 0.807822 4.357689 1.627022 6.530844 2.480355l-10.194489 27.056356a645.984711 645.984711 0 0 0-6.542222-2.503111l10.205867-27.0336z m39.037155 16.736711c7.315911 3.595378 14.518044 7.384178 21.595023 11.3664l-13.425778 25.611378a389.8368 389.8368 0 0 0-21.6064-11.3664l13.437155-25.611378z m53.202489 31.038578c1.922844 1.319822 3.845689 2.651022 5.745778 3.9936l-16.452267 23.779555a306.005333 306.005333 0 0 0-5.745777-3.982222l16.452266-23.790933z m35.703467 27.352177c1.774933 1.501867 3.527111 3.026489 5.256533 4.562489l-18.8416 21.924978a338.488889 338.488889 0 0 0-5.279289-4.585244l18.864356-21.902223z m32.608711 30.936178c1.604267 1.683911 3.185778 3.390578 4.767289 5.108622l-21.060267 19.808711c-1.581511-1.718044-3.163022-3.436089-4.767289-5.131377l21.060267-19.785956z m26.817422 31.140978c4.994844 6.405689 9.807644 12.970667 14.449778 19.672178l-23.324444 17.112177a400.816356 400.816356 0 0 0-14.4384-19.694933l23.313066-17.089422z m50.0736 81.806222c0.989867 2.104889 1.956978 4.221156 2.901334 6.337422l-26.248534 12.105956c-0.944356-2.116267-1.922844-4.232533-2.901333-6.3488l26.248533-12.094578z m16.782223 41.619911c0.750933 2.218667 1.467733 4.437333 2.195911 6.656l-27.397689 9.261511c-0.7168-2.218667-1.4336-4.437333-2.195911-6.656l27.397689-9.261511z m9.090844 30.276267c2.048 7.839289 3.845689 15.780978 5.449956 23.790933l-28.194134 6.4512a412.296533 412.296533 0 0 0-5.449955-23.790933l28.194133-6.4512z m11.184356 61.462755c0.250311 2.321067 0.466489 4.630756 0.671288 6.951823l-28.751644 3.015111a358.934756 358.934756 0 0 0-0.671289-6.951822l28.751645-3.015112z m2.423466 44.7488l0.011378 0.762312c0 2.082133-0.045511 4.141511-0.079644 6.189511H907.150222c0.034133-2.048 0.079644-4.141511 0.079645-6.189511l-0.011378-0.796445 28.910933 0.034133z m-2.241422 44.703289c-0.238933 2.321067-0.523378 4.630756-0.796444 6.951823l-28.740267-3.072c0.284444-2.321067 0.557511-4.630756 0.796444-6.951823l28.740267 3.072z m-5.552356 37.341867a421.353244 421.353244 0 0 1-5.3248 23.790933l-28.194133-6.382933c2.013867-7.873422 3.777422-15.815111 5.313422-23.825067l28.205511 6.417067z m-18.625422 66.321067c-0.8192 2.184533-1.6384 4.369067-2.491733 6.5536l-27.067733-10.160356c0.853333-2.184533 1.672533-4.334933 2.480355-6.5536l27.079111 10.160356z m-17.783466 41.039644c-1.035378 2.082133-2.082133 4.141511-3.140267 6.223645l-25.850311-12.936534c1.069511-2.048 2.127644-4.141511 3.163022-6.223644l25.827556 12.936533zM869.967644 739.555556c-1.251556 1.991111-2.537244 3.902578-3.811555 5.859555l-24.337067-15.587555c1.285689-1.956978 2.56-3.902578 3.822934-5.859556L869.967644 739.555556z m-21.617777 30.811022a423.662933 423.662933 0 0 1-15.416889 18.932622l-22.368711-18.340978a381.041778 381.041778 0 0 0 15.394133-18.932622l22.391467 18.340978z m-671.061334 2.116266a437.134222 437.134222 0 0 1-14.449777-19.694933l23.313066-17.112178c4.619378 6.724267 9.4208 13.266489 14.4384 19.694934l-23.301689 17.112177z m-26.919822-38.820977c-1.2288-1.991111-2.412089-4.004978-3.606755-6.018845l24.837688-14.756978c1.194667 1.991111 2.377956 4.004978 3.606756 5.984712l-24.837689 14.791111z m-21.367467-39.287467a632.672711 632.672711 0 0 1-2.946844-6.291911l26.248533-12.151467c0.978489 2.116267 1.956978 4.232533 2.958223 6.3488l-26.259912 12.094578z m-17.066666-41.301333a376.911644 376.911644 0 0 1-2.286934-6.621867l27.386312-9.272889c0.739556 2.218667 1.501867 4.437333 2.286933 6.621867l-27.386311 9.272889z m-10.740622-35.180089a416.073956 416.073956 0 0 1-5.358934-23.825067l28.194134-6.417067c1.558756 8.009956 3.333689 15.951644 5.370311 23.790934l-28.205511 6.4512z m-10.410667-56.137956c-0.261689-2.321067-0.546133-4.630756-0.773689-6.951822l28.751644-3.015111c0.227556 2.321067 0.512 4.630756 0.785067 6.951822l-28.763022 3.015111z m-2.855822-44.703289c-0.011378-1.683911-0.068267-3.345067-0.068267-5.028977l0.022756-1.922845h28.910933l-0.022756 1.922845c0 1.683911 0.045511 3.3792 0.068267 5.097244l-28.910933-0.068267z m1.786311-44.7488c0.227556-2.321067 0.455111-4.630756 0.705422-6.951822l28.751644 3.072c-0.261689 2.321067-0.489244 4.630756-0.694044 6.951822l-28.763022-3.072z m6.314666-43.394844c1.592889-8.009956 3.401956-15.951644 5.438578-23.790933l28.228267 6.417066a398.904889 398.904889 0 0 0-5.449956 23.790934l-28.216889-6.417067z m16.884623-60.757333c0.785067-2.184533 1.615644-4.369067 2.446222-6.5536l27.067733 10.160355c-0.8192 2.184533-1.649778 4.369067-2.434844 6.5536l-27.079111-10.160355z m17.453511-41.3696c1.012622-2.082133 2.048-4.152889 3.094755-6.223645l25.861689 12.925156c-1.058133 2.082133-2.104889 4.175644-3.117511 6.257777l-25.838933-12.959288z m21.765689-39.241956c1.240178-1.991111 2.468978-3.959467 3.743289-5.905067l24.337066 15.587556c-1.262933 1.968356-2.514489 3.936711-3.743289 5.927822l-24.337066-15.610311z m24.894577-35.646578c4.983467-6.417067 10.171733-12.6976 15.519289-18.830222l22.368711 18.3296a403.205689 403.205689 0 0 0-15.519288 18.830222l-22.368712-18.3296z m41.631289-46.171022c1.683911-1.604267 3.401956-3.197156 5.108623-4.778667l19.751822 21.0944c-1.718044 1.592889-3.413333 3.1744-5.108622 4.801423l-19.751823-21.117156z m34.076445-29.343289c1.831822-1.422222 3.675022-2.844444 5.5296-4.232533l17.430755 23.062755a338.716444 338.716444 0 0 0-5.540977 4.232534l-17.419378-23.062756z m36.9664-25.6c1.991111-1.2288 3.970844-2.412089 5.973333-3.606755l14.904889 24.769422c-2.013867 1.194667-4.016356 2.400711-5.996089 3.629511l-14.882133-24.792178z m35.862755-19.785955a425.938489 425.938489 0 0 1 22.2208-10.148978l12.026311 26.339555c-7.532089 3.128889-14.927644 6.508089-22.198044 10.114845l-12.049067-26.305422z m57.116445-23.005867c2.218667-0.7168 4.437333-1.410844 6.678755-2.082133l8.544711 27.636622c-2.230044 0.682667-4.471467 1.353956-6.690133 2.070755l-8.533333-27.625244z m43.554133-11.434667c2.264178-0.466489 4.551111-0.887467 6.838045-1.319822l5.609244 28.3648c-2.286933 0.443733-4.596622 0.864711-6.872178 1.342578l-5.575111-28.387556z m44.498489-6.678755c2.321067-0.227556 4.642133-0.432356 6.9632-0.6144l2.571378 28.797155c-2.332444 0.182044-4.653511 0.398222-6.974578 0.6144l-2.56-28.797155z" fill="#8ED8F8" p-id="44718"></path><path d="M265.875911 751.832178h-36.465778a22.755556 22.755556 0 0 1 3.811556-10.194489c2.116267-3.140267 6.087111-6.917689 11.923911-11.218489 3.572622-2.651022 5.8368-4.664889 6.838044-6.018844a6.8608 6.8608 0 0 0 1.501867-3.902578 4.619378 4.619378 0 0 0-1.479111-3.436089 5.233778 5.233778 0 0 0-3.709156-1.388089 5.12 5.12 0 0 0-3.811555 1.456356c-0.978489 0.955733-1.6384 2.685156-1.991111 5.165511l-12.174222-0.989867c0.477867-3.413333 1.353956-6.087111 2.628266-8.009956 1.274311-1.922844 3.060622-3.413333 5.381689-4.4032 2.321067-1.024 5.518222-1.558756 9.636978-1.558755 4.255289 0 7.600356 0.500622 9.978311 1.456355a12.151467 12.151467 0 0 1 7.645867 11.286756c0 2.685156-0.785067 5.233778-2.343823 7.645867-1.558756 2.412089-4.4032 5.097244-8.521955 8.009955-2.446222 1.683911-4.084622 2.844444-4.903822 3.538489a39.958756 39.958756 0 0 0-2.912711 2.651022h18.966755v9.910045z m5.188267-22.072889c0-8.305778 1.501867-14.1312 4.494222-17.442133 2.992356-3.345067 7.566222-4.994844 13.687467-4.994845 2.946844 0 5.370311 0.364089 7.247644 1.092267 1.900089 0.728178 3.436089 1.683911 4.630756 2.844444 1.194667 1.160533 2.139022 2.377956 2.833066 3.640889a19.342222 19.342222 0 0 1 1.649778 4.5056c0.8192 3.2768 1.2288 6.690133 1.2288 10.194489 0 7.975822-1.353956 13.767111-4.039111 17.442133-2.673778 3.709156-7.293156 5.5296-13.880889 5.5296-3.675022 0-6.656-0.557511-8.920178-1.752177a14.722844 14.722844 0 0 1-5.586489-5.165512 19.797333 19.797333 0 0 1-2.4576-6.621866 45.738667 45.738667 0 0 1-0.887466-9.272889z m12.071822 0.034133c0 5.586489 0.489244 9.363911 1.479111 11.423289 0.978489 2.048 2.412089 3.049244 4.278045 3.049245a4.551111 4.551111 0 0 0 3.208533-1.285689c0.898844-0.864711 1.558756-2.218667 1.991111-4.107378 0.432356-1.854578 0.637156-4.767289 0.637156-8.738133 0-5.791289-0.489244-9.728-1.467734-11.719112-0.978489-1.991111-2.4576-3.015111-4.437333-3.015111-2.002489 0-3.458844 1.024-4.346311 3.083378-0.898844 2.002489-1.342578 5.814044-1.342578 11.309511zM183.489422 602.339556H161.336889v-10.001067l22.152533-26.305422h10.592711v26.874311h5.484089v9.432178h-5.484089v8.169244h-10.592711v-8.169244z m0-9.432178v-13.732978l-11.707733 13.732978h11.707733z m19.876978-4.437334c0-8.305778 1.490489-14.1312 4.482844-17.476266 3.003733-3.310933 7.566222-4.960711 13.687467-4.960711 2.946844 0 5.370311 0.364089 7.259022 1.092266 1.900089 0.728178 3.424711 1.661156 4.630756 2.810311 1.183289 1.194667 2.139022 2.377956 2.821689 3.675023 0.682667 1.285689 1.240178 2.776178 1.649778 4.5056 0.8192 3.2768 1.2288 6.690133 1.2288 10.194489 0 7.941689-1.342578 13.767111-4.027734 17.442133-2.685156 3.675022-7.304533 5.5296-13.880889 5.5296-3.675022 0-6.656-0.591644-8.931555-1.752178a14.802489 14.802489 0 0 1-5.586489-5.165511 19.751822 19.751822 0 0 1-2.446222-6.621867 44.316444 44.316444 0 0 1-0.887467-9.272889z m12.049067 0.034134c0 5.563733 0.489244 9.363911 1.479111 11.423289 0.978489 2.048 2.412089 3.049244 4.278044 3.049244a4.551111 4.551111 0 0 0 3.208534-1.285689c0.898844-0.864711 1.558756-2.2528 1.991111-4.107378 0.432356-1.854578 0.648533-4.801422 0.648533-8.738133 0-5.825422-0.489244-9.728-1.479111-11.719111-0.978489-2.025244-2.4576-3.015111-4.425956-3.015111-2.013867 0-3.470222 1.024-4.357689 3.072-0.887467 2.013867-1.342578 5.791289-1.342577 11.320889zM186.561422 419.714844l-12.0832 1.490489c-0.318578-1.683911-0.853333-2.878578-1.592889-3.572622s-1.672533-1.058133-2.7648-1.058133c-1.956978 0-3.504356 1.024-4.596622 2.980978-0.796444 1.456356-1.376711 4.528356-1.763555 9.204622 1.444978-1.456356 2.946844-2.548622 4.471466-3.242667 1.524622-0.728178 3.310933-1.058133 5.313422-1.058133 3.902578 0 7.190756 1.353956 9.887289 4.175644 2.696533 2.776178 4.050489 6.326044 4.050489 10.592711 0 2.878578-0.682667 5.5296-2.048 7.907556a13.425778 13.425778 0 0 1-5.666133 5.4272c-2.412089 1.2288-5.449956 1.820444-9.079467 1.820444-4.380444 0-7.896178-0.762311-10.5472-2.218666a16.0768 16.0768 0 0 1-6.337422-7.145245c-1.581511-3.2768-2.366578-7.611733-2.366578-13.0048 0-7.907556 1.649778-13.698844 4.983467-17.373866 3.322311-3.675022 7.930311-5.495467 13.812622-5.495467 3.470222 0 6.235022 0.398222 8.260267 1.194667 2.013867 0.830578 3.6864 1.991111 5.0176 3.572622 1.3312 1.501867 2.3552 3.447467 3.049244 5.802666z m-22.380089 19.490134c0 2.3552 0.591644 4.232533 1.786311 5.563733a5.609244 5.609244 0 0 0 4.380445 2.025245c1.592889 0 2.924089-0.591644 4.004978-1.820445 1.069511-1.2288 1.604267-3.015111 1.604266-5.4272 0-2.480356-0.557511-4.369067-1.672533-5.654755a5.313422 5.313422 0 0 0-4.141511-1.922845 5.575111 5.575111 0 0 0-4.266667 1.888711c-1.1264 1.240178-1.695289 2.992356-1.695289 5.347556z m27.9552-7.645867c0-8.305778 1.501867-14.1312 4.494223-17.442133 2.992356-3.345067 7.566222-4.994844 13.687466-4.994845 2.946844 0 5.370311 0.364089 7.247645 1.092267 1.900089 0.728178 3.436089 1.649778 4.630755 2.844444 1.194667 1.160533 2.139022 2.389333 2.821689 3.640889 0.694044 1.285689 1.251556 2.776178 1.661156 4.5056 0.8192 3.2768 1.2288 6.690133 1.2288 10.228623 0 7.941689-1.353956 13.732978-4.027734 17.408-2.685156 3.709156-7.304533 5.5296-13.880889 5.5296-3.675022 0-6.656-0.591644-8.920177-1.752178a14.722844 14.722844 0 0 1-5.586489-5.165511 19.740444 19.740444 0 0 1-2.4576-6.621867 44.054756 44.054756 0 0 1-0.898845-9.272889z m12.060445 0.034133c0 5.563733 0.489244 9.363911 1.479111 11.423289 0.978489 2.048 2.412089 3.049244 4.278044 3.049245a4.494222 4.494222 0 0 0 3.197156-1.285689c0.910222-0.864711 1.570133-2.218667 2.002489-4.107378 0.432356-1.854578 0.637156-4.767289 0.637155-8.738133 0-5.825422-0.489244-9.728-1.467733-11.719111-0.978489-1.991111-2.4576-3.015111-4.437333-3.015111-2.002489 0-3.458844 1.024-4.346311 3.072-0.898844 2.025244-1.342578 5.791289-1.342578 11.320888zM229.182578 287.140978a11.593956 11.593956 0 0 1-4.175645-3.390578 10.092089 10.092089 0 0 1-1.797689-5.905067c0-3.675022 1.718044-6.656 5.165512-8.988444 2.685156-1.786311 6.235022-2.685156 10.660977-2.685156 5.848178 0 10.171733 1.103644 12.970667 3.322311a10.376533 10.376533 0 0 1 2.514489 13.949156 13.425778 13.425778 0 0 1-3.948089 3.6864c2.377956 1.137778 4.141511 2.651022 5.302044 4.516978 1.171911 1.865956 1.752178 3.936711 1.752178 6.200889 0 2.184533-0.500622 4.232533-1.501866 6.121244a12.151467 12.151467 0 0 1-3.697778 4.4032 14.961778 14.961778 0 0 1-5.461334 2.286933 31.072711 31.072711 0 0 1-6.974577 0.739556c-4.630756 0-8.169244-0.546133-10.626845-1.649778a11.8784 11.8784 0 0 1-5.575111-4.835555 13.698844 13.698844 0 0 1-1.911467-7.133867c0-2.56 0.603022-4.733156 1.797689-6.519467a11.195733 11.195733 0 0 1 5.506845-4.118755z m5.449955-8.590222c0 1.501867 0.477867 2.730667 1.410845 3.652266a5.165511 5.165511 0 0 0 3.777422 1.388089 4.608 4.608 0 0 0 3.424711-1.376711 4.892444 4.892444 0 0 0 1.353956-3.561244 4.972089 4.972089 0 0 0-1.410845-3.675023 4.846933 4.846933 0 0 0-3.584-1.444977 4.846933 4.846933 0 0 0-3.595378 1.410844 4.926578 4.926578 0 0 0-1.376711 3.606756z m-0.648533 18.830222c0 1.934222 0.580267 3.504356 1.752178 4.733155a5.438578 5.438578 0 0 0 4.039111 1.831823 5.188267 5.188267 0 0 0 3.902578-1.865956 6.678756 6.678756 0 0 0 1.729422-4.733156 6.633244 6.633244 0 0 0-1.752178-4.733155 5.290667 5.290667 0 0 0-8.009955-0.068267 6.826667 6.826667 0 0 0-1.661156 4.835556z m28.649244-8.772267c0-8.328533 1.501867-14.153956 4.494223-17.453511 2.992356-3.322311 7.566222-4.983467 13.687466-4.983467 2.946844 0 5.358933 0.352711 7.247645 1.080889 1.900089 0.728178 3.436089 1.672533 4.619378 2.844445 1.194667 1.160533 2.139022 2.389333 2.821688 3.663644 0.694044 1.285689 1.240178 2.798933 1.661156 4.5056 0.8192 3.2768 1.2288 6.667378 1.2288 10.194489 0 7.964444-1.353956 13.767111-4.039111 17.442133-2.685156 3.6864-7.304533 5.5296-13.869511 5.5296-3.675022 0-6.656-0.580267-8.920178-1.774933a14.461156 14.461156 0 0 1-5.586489-5.165511 19.649422 19.649422 0 0 1-2.4576-6.599111 45.135644 45.135644 0 0 1-0.887467-9.284267z m12.060445 0.034133c0 5.575111 0.489244 9.363911 1.467733 11.400534 0.978489 2.048 2.412089 3.060622 4.289422 3.060622a4.494222 4.494222 0 0 0 3.197156-1.285689c0.910222-0.876089 1.570133-2.230044 2.002489-4.107378 0.432356-1.865956 0.637156-4.778667 0.637155-8.749511 0-5.791289-0.489244-9.716622-1.479111-11.719111-0.989867-1.991111-2.4576-2.980978-4.437333-2.980978-2.002489 0-3.458844 1.012622-4.346311 3.049245s-1.3312 5.825422-1.3312 11.332266zM350.378667 172.794311v44.475733h-12.299378v-29.138488a37.091556 37.091556 0 0 1-5.779911 3.652266 44.862578 44.862578 0 0 1-6.985956 2.696534v-9.978312c4.141511-1.342578 7.350044-2.935467 9.636978-4.801422 2.286933-1.865956 4.084622-4.187022 5.370311-6.917689h10.057956v0.011378z m13.232355 22.414222c0-8.305778 1.490489-14.1312 4.482845-17.453511 3.003733-3.310933 7.566222-4.960711 13.687466-4.960711a20.48 20.48 0 0 1 7.259023 1.080889c1.900089 0.728178 3.424711 1.672533 4.630755 2.833067 1.183289 1.171911 2.139022 2.400711 2.821689 3.675022 0.694044 1.285689 1.240178 2.776178 1.661156 4.5056 0.8192 3.265422 1.2288 6.667378 1.2288 10.194489 0 7.964444-1.353956 13.767111-4.027734 17.442133-2.685156 3.6864-7.304533 5.506844-13.869511 5.506845-3.6864 0-6.656-0.580267-8.931555-1.752178a14.5408 14.5408 0 0 1-5.586489-5.165511 19.740444 19.740444 0 0 1-2.4576-6.599111 43.804444 43.804444 0 0 1-0.898845-9.307023z m12.049067 0.056889c0 5.563733 0.489244 9.363911 1.479111 11.400534 0.978489 2.048 2.412089 3.060622 4.278044 3.060622a4.551111 4.551111 0 0 0 3.208534-1.285689c0.898844-0.876089 1.558756-2.230044 1.991111-4.107378 0.432356-1.865956 0.648533-4.778667 0.648533-8.749511 0-5.814044-0.489244-9.716622-1.479111-11.719111-0.978489-1.991111-2.4576-2.992356-4.425955-2.992356-2.013867 0-3.470222 1.024-4.346312 3.060623-0.898844 2.025244-1.353956 5.802667-1.353955 11.332266z m28.706133-0.056889c0-8.305778 1.501867-14.1312 4.494222-17.453511 2.992356-3.310933 7.554844-4.960711 13.687467-4.960711 2.935467 0 5.358933 0.352711 7.247645 1.080889 1.900089 0.728178 3.436089 1.672533 4.630755 2.833067 1.194667 1.171911 2.139022 2.400711 2.821689 3.675022 0.694044 1.285689 1.240178 2.776178 1.661156 4.5056 0.807822 3.265422 1.217422 6.667378 1.217422 10.194489 0 7.964444-1.342578 13.767111-4.027734 17.442133-2.685156 3.6864-7.304533 5.506844-13.880888 5.506845-3.675022 0-6.656-0.580267-8.931556-1.752178a14.506667 14.506667 0 0 1-5.575111-5.165511 19.501511 19.501511 0 0 1-2.4576-6.599111 46.171022 46.171022 0 0 1-0.887467-9.307023z m12.060445 0.056889c0 5.563733 0.500622 9.363911 1.479111 11.400534 0.978489 2.048 2.412089 3.060622 4.278044 3.060622a4.528356 4.528356 0 0 0 3.208534-1.285689 8.078222 8.078222 0 0 0 1.991111-4.107378c0.432356-1.865956 0.648533-4.778667 0.648533-8.749511 0-5.814044-0.489244-9.716622-1.479111-11.719111-0.978489-1.991111-2.446222-2.992356-4.425956-2.992356-2.013867 0-3.470222 1.024-4.357689 3.060623-0.887467 2.025244-1.342578 5.802667-1.342577 11.332266zM482.395022 129.024v44.498489h-12.299378v-29.161245c-1.991111 1.501867-3.913956 2.730667-5.779911 3.675023a47.559111 47.559111 0 0 1-6.997333 2.685155v-9.978311c4.141511-1.319822 7.361422-2.924089 9.648356-4.778667 2.286933-1.888711 4.073244-4.187022 5.370311-6.929066h10.057955v-0.011378z m48.787911 44.498489h-36.465777c0.4096-3.606756 1.683911-6.985956 3.800177-10.160356s6.087111-6.917689 11.923911-11.252622c3.561244-2.628267 5.8368-4.653511 6.838045-6.007467a6.838044 6.838044 0 0 0 1.501867-3.925333 4.585244 4.585244 0 0 0-1.479112-3.413333 5.176889 5.176889 0 0 0-3.720533-1.422222 5.176889 5.176889 0 0 0-3.811555 1.456355c-0.978489 0.978489-1.6384 2.696533-1.991112 5.176889l-12.174222-0.989867c0.477867-3.424711 1.353956-6.087111 2.628267-8.021333 1.274311-1.900089 3.060622-3.390578 5.381689-4.4032 2.321067-1.024 5.5296-1.536 9.636978-1.536 4.266667 0 7.600356 0.500622 9.978311 1.456356a11.946667 11.946667 0 0 1 7.645866 11.286755c0 2.6624-0.785067 5.211022-2.343822 7.645867-1.558756 2.412089-4.4032 5.097244-8.510578 7.9872-2.4576 1.683911-4.096 2.878578-4.9152 3.561244-0.830578 0.682667-1.809067 1.558756-2.912711 2.651022h18.966756v9.910045h0.022755z m5.199645-22.061511c0-8.305778 1.501867-14.1312 4.494222-17.453511 2.992356-3.322311 7.566222-4.983467 13.687467-4.983467 2.946844 0 5.370311 0.352711 7.247644 1.092267 1.900089 0.7168 3.436089 1.672533 4.630756 2.833066 1.194667 1.160533 2.139022 2.377956 2.833066 3.675023 0.682667 1.274311 1.240178 2.776178 1.649778 4.482844 0.8192 3.2768 1.2288 6.667378 1.2288 10.205867 0 7.941689-1.353956 13.755733-4.039111 17.419377-2.673778 3.6864-7.293156 5.5296-13.869511 5.5296-3.6864 0-6.656-0.580267-8.931556-1.774933a14.392889 14.392889 0 0 1-5.586489-5.142755 19.888356 19.888356 0 0 1-2.4576-6.621867 44.7488 44.7488 0 0 1-0.887466-9.261511z m12.060444 0.034133c0 5.575111 0.489244 9.363911 1.479111 11.400533 0.978489 2.048 2.412089 3.072 4.278045 3.072a4.516978 4.516978 0 0 0 3.208533-1.308444c0.898844-0.864711 1.558756-2.230044 1.991111-4.084622 0.432356-1.888711 0.637156-4.801422 0.637156-8.749511 0-5.802667-0.489244-9.728-1.467734-11.719111-0.978489-2.002489-2.4576-2.992356-4.437333-2.992356-2.002489 0-3.458844 1.012622-4.346311 3.049244-0.887467 2.048-1.342578 5.814044-1.342578 11.332267zM623.832178 178.232889v44.498489h-12.299378v-29.161245c-1.991111 1.501867-3.913956 2.730667-5.779911 3.675023a45.829689 45.829689 0 0 1-6.997333 2.685155v-9.966933c4.152889-1.342578 7.361422-2.924089 9.648355-4.801422 2.286933-1.865956 4.084622-4.187022 5.370311-6.929067h10.057956z m34.121955 36.329244h-22.152533v-10.001066l22.152533-26.328178h10.592711v26.885689h5.495467v9.432178h-5.495467v8.169244h-10.592711v-8.157867z m0-9.432177V191.374222l-11.707733 13.755734h11.707733z m19.876978-4.460089c0-8.305778 1.501867-14.1312 4.494222-17.453511 2.992356-3.310933 7.554844-4.983467 13.676089-4.983467 2.946844 0 5.370311 0.364089 7.259022 1.092267 1.900089 0.728178 3.436089 1.672533 4.630756 2.833066 1.194667 1.160533 2.139022 2.377956 2.821689 3.675022 0.694044 1.285689 1.240178 2.776178 1.661155 4.482845 0.807822 3.2768 1.217422 6.690133 1.217423 10.205867 0 7.941689-1.342578 13.755733-4.027734 17.442133-2.685156 3.675022-7.304533 5.506844-13.880889 5.506844-3.675022 0-6.656-0.580267-8.931555-1.752177a14.620444 14.620444 0 0 1-5.586489-5.165512 19.706311 19.706311 0 0 1-2.446222-6.599111 45.056 45.056 0 0 1-0.887467-9.284266z m12.060445 0.034133c0 5.575111 0.489244 9.386667 1.467733 11.423289 0.978489 2.036622 2.412089 3.060622 4.278044 3.060622a4.448711 4.448711 0 0 0 3.208534-1.308444 7.9872 7.9872 0 0 0 1.991111-4.084623c0.432356-1.888711 0.648533-4.801422 0.648533-8.749511 0-5.802667-0.489244-9.716622-1.467733-11.719111-0.989867-2.002489-2.4576-2.992356-4.437334-2.992355-2.013867 0-3.470222 1.024-4.357688 3.060622-0.887467 2.025244-1.3312 5.802667-1.3312 11.309511zM729.952711 277.788444v44.498489h-12.299378v-29.161244c-1.991111 1.501867-3.913956 2.730667-5.779911 3.675022a45.829689 45.829689 0 0 1-6.997333 2.685156v-9.966934c4.141511-1.342578 7.361422-2.946844 9.648355-4.801422 2.286933-1.888711 4.073244-4.187022 5.370312-6.929067h10.057955z m48.412445 10.592712l-12.0832 1.490488c-0.318578-1.683911-0.853333-2.878578-1.592889-3.572622a3.902578 3.902578 0 0 0-2.753423-1.046755c-1.968356 0-3.504356 0.989867-4.596622 2.980977-0.796444 1.444978-1.376711 4.5056-1.763555 9.204623 1.444978-1.467733 2.946844-2.56 4.471466-3.2768 1.536-0.7168 3.310933-1.058133 5.313423-1.058134 3.902578 0 7.202133 1.388089 9.898666 4.187023 2.696533 2.776178 4.050489 6.303289 4.050489 10.592711 0 2.878578-0.682667 5.5296-2.048 7.896177-1.353956 2.400711-3.254044 4.209778-5.654755 5.4272-2.423467 1.2288-5.449956 1.831822-9.090845 1.831823-4.380444 0-7.896178-0.750933-10.5472-2.230045-2.639644-1.501867-4.755911-3.868444-6.337422-7.145244-1.570133-3.2768-2.377956-7.611733-2.377956-13.0048 0-7.896178 1.661156-13.664711 4.983467-17.339734 3.322311-3.675022 7.930311-5.506844 13.812622-5.506844 3.470222 0 6.235022 0.398222 8.260267 1.206044 2.013867 0.807822 3.6864 1.991111 5.0176 3.538489 1.319822 1.524622 2.343822 3.470222 3.037867 5.825423z m-22.380089 19.490133c0 2.366578 0.591644 4.221156 1.786311 5.563733a5.654756 5.654756 0 0 0 4.380444 2.025245c1.592889 0 2.924089-0.6144 4.004978-1.820445 1.069511-1.206044 1.604267-3.015111 1.604267-5.4272 0-2.468978-0.557511-4.357689-1.661156-5.643378a5.290667 5.290667 0 0 0-4.152889-1.934222 5.5296 5.5296 0 0 0-4.255289 1.888711c-1.137778 1.2288-1.706667 3.015111-1.706666 5.347556z m27.9552-7.645867c0-8.305778 1.501867-14.1312 4.494222-17.453511 2.992356-3.322311 7.566222-4.983467 13.687467-4.983467 2.946844 0 5.370311 0.352711 7.247644 1.092267 1.900089 0.728178 3.436089 1.672533 4.630756 2.833067 1.194667 1.160533 2.139022 2.377956 2.833066 3.675022 0.682667 1.274311 1.240178 2.776178 1.649778 4.482844 0.8192 3.2768 1.2288 6.690133 1.2288 10.205867 0 7.941689-1.353956 13.755733-4.039111 17.419378-2.673778 3.6864-7.293156 5.5296-13.869511 5.5296-3.6864 0-6.656-0.580267-8.931556-1.774933a14.392889 14.392889 0 0 1-5.586489-5.142756 19.888356 19.888356 0 0 1-2.4576-6.621867 44.669156 44.669156 0 0 1-0.887466-9.261511z m12.060444 0.034134c0 5.575111 0.500622 9.386667 1.479111 11.400533 0.978489 2.048 2.412089 3.072 4.278045 3.072a4.516978 4.516978 0 0 0 3.208533-1.308445c0.898844-0.864711 1.558756-2.230044 1.991111-4.084622 0.432356-1.888711 0.637156-4.801422 0.637156-8.749511 0-5.802667-0.489244-9.728-1.467734-11.719111-0.978489-2.002489-2.4576-2.992356-4.437333-2.992356-2.002489 0-3.458844 1.012622-4.346311 3.060623-0.887467 2.036622-1.342578 5.814044-1.342578 11.320889zM788.0704 420.738844v44.509867h-12.299378v-29.161244a40.709689 40.709689 0 0 1-5.779911 3.675022c-1.854578 0.9216-4.187022 1.820444-6.997333 2.685155v-9.989688c4.152889-1.319822 7.361422-2.912711 9.659733-4.801423 2.275556-1.854578 4.073244-4.175644 5.358933-6.917689h10.057956z m20.536889 20.980623a11.502933 11.502933 0 0 1-4.175645-3.413334 10.057956 10.057956 0 0 1-1.797688-5.893689c0-3.675022 1.718044-6.656 5.165511-8.999822 2.685156-1.786311 6.235022-2.685156 10.660977-2.685155 5.848178 0 10.171733 1.1264 12.970667 3.345066 2.798933 2.2528 4.187022 5.028978 4.187022 8.408178a9.784889 9.784889 0 0 1-1.672533 5.5296 13.403022 13.403022 0 0 1-3.936711 3.709156c2.377956 1.1264 4.141511 2.651022 5.290667 4.5056 1.171911 1.888711 1.752178 3.936711 1.752177 6.223644 0 2.184533-0.500622 4.232533-1.501866 6.121245a12.151467 12.151467 0 0 1-3.697778 4.4032c-1.467733 1.024-3.299556 1.786311-5.461333 2.286933a31.084089 31.084089 0 0 1-6.974578 0.728178c-4.630756 0-8.169244-0.534756-10.626845-1.627023a11.946667 11.946667 0 0 1-5.575111-4.869688 13.562311 13.562311 0 0 1-1.911466-7.111112c0-2.582756 0.591644-4.733156 1.797688-6.519466 1.171911-1.786311 3.015111-3.151644 5.506845-4.141511z m5.461333-8.567467a4.892444 4.892444 0 0 0 1.410845 3.640889 5.165511 5.165511 0 0 0 3.777422 1.388089 4.573867 4.573867 0 0 0 3.424711-1.388089 4.778667 4.778667 0 0 0 1.353956-3.538489 4.903822 4.903822 0 0 0-1.410845-3.675022 4.778667 4.778667 0 0 0-3.584-1.422222 4.881067 4.881067 0 0 0-3.595378 1.388088 4.858311 4.858311 0 0 0-1.376711 3.606756z m-0.659911 18.796089c0 1.956978 0.580267 3.538489 1.7408 4.733155a5.461333 5.461333 0 0 0 4.039111 1.854578 5.2224 5.2224 0 0 0 3.913956-1.888711 6.667378 6.667378 0 0 0 1.729422-4.733155 6.667378 6.667378 0 0 0-1.7408-4.733156 5.449956 5.449956 0 0 0-4.050489-1.854578 5.267911 5.267911 0 0 0-3.959467 1.786311 6.815289 6.815289 0 0 0-1.672533 4.835556z m28.649245-8.772267c0-8.305778 1.501867-14.1312 4.494222-17.442133 2.992356-3.345067 7.566222-4.994844 13.687466-4.994845 2.935467 0 5.358933 0.364089 7.247645 1.092267 1.900089 0.728178 3.436089 1.683911 4.619378 2.844445 1.194667 1.160533 2.139022 2.377956 2.821689 3.640888 0.694044 1.285689 1.240178 2.810311 1.661155 4.5056 0.807822 3.2768 1.217422 6.690133 1.217422 10.228623 0 7.941689-1.342578 13.732978-4.027733 17.408-2.685156 3.709156-7.304533 5.5296-13.880889 5.5296-3.6864 0-6.656-0.557511-8.931555-1.752178a14.779733 14.779733 0 0 1-5.575112-5.165511 19.456 19.456 0 0 1-2.4576-6.621867 45.693156 45.693156 0 0 1-0.876088-9.272889z m12.060444 0.034134c0 5.597867 0.489244 9.363911 1.467733 11.423288 0.978489 2.048 2.412089 3.072 4.278045 3.072a4.551111 4.551111 0 0 0 3.208533-1.319822c0.910222-0.864711 1.570133-2.218667 2.002489-4.107378 0.420978-1.854578 0.637156-4.767289 0.637156-8.738133 0-5.791289-0.489244-9.728-1.467734-11.719111-0.989867-1.991111-2.4576-2.980978-4.437333-2.980978-2.013867 0-3.470222 0.989867-4.357689 3.049245-0.876089 2.025244-1.3312 5.825422-1.3312 11.320889zM790.334578 610.110578h-36.477156c0.420978-3.606756 1.695289-6.985956 3.811556-10.160356s6.087111-6.917689 11.912533-11.252622c3.561244-2.616889 5.8368-4.630756 6.838045-5.984711a6.792533 6.792533 0 0 0 1.501866-3.936711 4.642133 4.642133 0 0 0-1.479111-3.413334 5.267911 5.267911 0 0 0-3.709155-1.422222 5.154133 5.154133 0 0 0-3.811556 1.490489c-0.978489 0.955733-1.6384 2.685156-1.991111 5.131378l-12.174222-0.955733c0.477867-3.447467 1.353956-6.087111 2.628266-8.044089 1.274311-1.922844 3.060622-3.3792 5.381689-4.4032 2.309689-1.024 5.518222-1.524622 9.636978-1.524623 4.255289 0 7.600356 0.466489 9.978311 1.456356a11.9808 11.9808 0 0 1 7.645867 11.286756c0 2.651022-0.785067 5.199644-2.3552 7.645866-1.558756 2.412089-4.4032 5.063111-8.510578 7.975822a73.4208 73.4208 0 0 0-4.903822 3.572623 39.958756 39.958756 0 0 0-2.912711 2.651022h18.978133v9.887289h0.011378z m5.188266-22.038756c0-8.305778 1.501867-14.1312 4.494223-17.476266 2.992356-3.310933 7.566222-4.960711 13.687466-4.960712 2.946844 0 5.358933 0.329956 7.247645 1.092267 1.900089 0.694044 3.436089 1.661156 4.630755 2.810311 1.194667 1.160533 2.139022 2.377956 2.821689 3.675022 0.694044 1.285689 1.240178 2.776178 1.661156 4.5056 0.8192 3.2768 1.2288 6.656 1.2288 10.194489 0 7.941689-1.353956 13.767111-4.039111 17.442134-2.685156 3.675022-7.304533 5.5296-13.880889 5.5296-3.675022 0-6.656-0.591644-8.920178-1.786311a14.370133 14.370133 0 0 1-5.586489-5.131378 19.740444 19.740444 0 0 1-2.4576-6.621867 45.101511 45.101511 0 0 1-0.887467-9.272889z m12.060445 0.034134c0 5.563733 0.489244 9.363911 1.467733 11.389155 0.989867 2.048 2.412089 3.072 4.289422 3.072a4.494222 4.494222 0 0 0 3.197156-1.285689c0.910222-0.864711 1.570133-2.2528 2.002489-4.107378 0.432356-1.888711 0.637156-4.801422 0.637155-8.738133 0-5.825422-0.489244-9.728-1.467733-11.719111-0.989867-2.013867-2.4576-3.015111-4.437333-3.015111-2.002489 0-3.470222 1.024-4.346311 3.049244-0.887467 2.048-1.342578 5.825422-1.342578 11.355023z m28.717511-0.034134c0-8.305778 1.501867-14.1312 4.482844-17.476266 2.992356-3.310933 7.566222-4.960711 13.687467-4.960712 2.946844 0 5.370311 0.329956 7.259022 1.092267 1.900089 0.694044 3.424711 1.661156 4.619378 2.810311 1.194667 1.160533 2.139022 2.377956 2.833067 3.675022 0.694044 1.285689 1.240178 2.776178 1.661155 4.5056 0.8192 3.2768 1.2288 6.656 1.2288 10.194489 0 7.941689-1.342578 13.767111-4.027733 17.442134-2.685156 3.675022-7.304533 5.5296-13.880889 5.5296-3.675022 0-6.644622-0.591644-8.920178-1.786311a14.449778 14.449778 0 0 1-5.586489-5.131378 19.751822 19.751822 0 0 1-2.446222-6.621867 42.780444 42.780444 0 0 1-0.910222-9.272889z m12.049067 0.034134c0 5.563733 0.489244 9.363911 1.479111 11.389155 0.978489 2.048 2.412089 3.072 4.278044 3.072a4.551111 4.551111 0 0 0 3.208534-1.285689c0.898844-0.864711 1.558756-2.2528 1.991111-4.107378 0.432356-1.888711 0.648533-4.801422 0.648533-8.738133 0-5.825422-0.500622-9.728-1.479111-11.719111-0.978489-2.013867-2.4576-3.015111-4.425956-3.015111-2.013867 0-3.470222 1.024-4.346311 3.049244-0.898844 2.048-1.353956 5.825422-1.353955 11.355023zM716.447289 752.992711h-36.465778c0.420978-3.606756 1.695289-6.985956 3.811556-10.160355 2.116267-3.1744 6.087111-6.951822 11.912533-11.252623 3.561244-2.651022 5.8368-4.664889 6.838044-6.018844a6.781156 6.781156 0 0 0 1.501867-3.902578 4.699022 4.699022 0 0 0-1.467733-3.436089 5.256533 5.256533 0 0 0-3.720534-1.388089 5.142756 5.142756 0 0 0-3.811555 1.456356c-0.978489 0.955733-1.649778 2.685156-1.979733 5.165511l-12.1856-0.989867c0.477867-3.413333 1.353956-6.087111 2.628266-8.009955 1.274311-1.922844 3.072-3.413333 5.381689-4.4032 2.321067-1.058133 5.5296-1.558756 9.636978-1.558756 4.266667 0 7.600356 0.500622 9.989689 1.456356a12.151467 12.151467 0 0 1 7.645866 11.286755c0 2.685156-0.785067 5.233778-2.343822 7.645867-1.558756 2.412089-4.4032 5.097244-8.510578 8.009956a89.588622 89.588622 0 0 0-4.903822 3.538488 37.626311 37.626311 0 0 0-2.924089 2.651023h18.978134v9.910044h-0.011378z m40.766578 0h-36.477156c0.420978-3.606756 1.695289-6.985956 3.811556-10.160355 2.116267-3.1744 6.087111-6.951822 11.912533-11.252623 3.572622-2.651022 5.8368-4.664889 6.838044-6.018844a6.781156 6.781156 0 0 0 1.501867-3.902578 4.664889 4.664889 0 0 0-1.479111-3.436089 5.233778 5.233778 0 0 0-3.709156-1.388089 5.12 5.12 0 0 0-3.811555 1.456356c-0.978489 0.955733-1.6384 2.685156-1.991111 5.165511l-12.174222-0.989867c0.477867-3.413333 1.353956-6.087111 2.628266-8.009955 1.262933-1.922844 3.060622-3.413333 5.381689-4.4032 2.309689-1.058133 5.518222-1.558756 9.636978-1.558756 4.255289 0 7.600356 0.500622 9.978311 1.456356a12.151467 12.151467 0 0 1 7.645867 11.286755c0 2.685156-0.773689 5.233778-2.343823 7.645867-1.558756 2.412089-4.4032 5.097244-8.510577 8.009956a89.588622 89.588622 0 0 0-4.903823 3.538488 42.325333 42.325333 0 0 0-2.924088 2.651023h18.978133v9.910044h0.011378z m5.199644-22.072889c0-8.305778 1.501867-14.1312 4.494222-17.442133 2.992356-3.345067 7.566222-4.994844 13.687467-4.994845 2.935467 0 5.358933 0.364089 7.247644 1.092267 1.900089 0.728178 3.436089 1.649778 4.630756 2.844445a15.200711 15.200711 0 0 1 4.482844 8.146488c0.807822 3.2768 1.2288 6.690133 1.2288 10.228623 0 7.941689-1.353956 13.732978-4.039111 17.408-2.685156 3.709156-7.304533 5.5296-13.880889 5.5296-3.675022 0-6.656-0.557511-8.920177-1.752178a14.722844 14.722844 0 0 1-5.586489-5.165511 19.547022 19.547022 0 0 1-2.4576-6.621867 44.714667 44.714667 0 0 1-0.887467-9.272889z m12.060445 0.022756c0 5.563733 0.489244 9.363911 1.479111 11.423289 0.967111 2.048 2.412089 3.083378 4.278044 3.083377a4.528356 4.528356 0 0 0 3.197156-1.319822c0.910222-0.864711 1.570133-2.218667 1.991111-4.107378 0.432356-1.854578 0.648533-4.767289 0.648533-8.738133 0-5.791289-0.489244-9.728-1.467733-11.719111-0.989867-1.991111-2.4576-2.980978-4.437334-2.980978-2.002489 0-3.470222 0.989867-4.357688 3.037867-0.887467 2.025244-1.3312 5.8368-1.3312 11.320889z" fill="#8ED8F8" p-id="44719"></path><path d="M512 512.011378m-53.4528 0a53.4528 53.4528 0 1 0 106.9056 0 53.4528 53.4528 0 1 0-106.9056 0Z" fill="#005A79" p-id="44720"></path><path d="M468.457244 752.685511v-31.709867h3.8912v18.067912l9.216-9.329778h5.028978l-8.783644 8.510578 9.671111 14.461155h-4.8128l-7.588978-11.753244-2.742044 2.651022v9.102222h-3.879823z m22.129778 0v-22.971733h3.470222v3.208533a8.362667 8.362667 0 0 1 2.878578-2.719289 8.339911 8.339911 0 0 1 4.084622-1.024 7.623111 7.623111 0 0 1 4.175645 1.058134 5.666133 5.666133 0 0 1 2.309689 2.980977c1.820444-2.685156 4.175644-4.039111 7.088355-4.039111 2.286933 0 4.027733 0.625778 5.256534 1.888711 1.2288 1.285689 1.831822 3.208533 1.831822 5.859556v15.758222h-3.868445v-14.461155a10.888533 10.888533 0 0 0-0.375466-3.3792 3.367822 3.367822 0 0 0-1.376711-1.661156 5.381689 5.381689 0 0 0-6.360178 1.001244c-1.058133 1.058133-1.592889 2.776178-1.592889 5.165512v13.334755h-3.8912v-14.927644c0-1.718044-0.318578-3.049244-0.955733-3.902578-0.625778-0.864711-1.661156-1.285689-3.106134-1.285689a5.7344 5.7344 0 0 0-3.037866 0.864711 5.006222 5.006222 0 0 0-2.025245 2.548622 14.097067 14.097067 0 0 0-0.625778 4.801423v11.912533h-3.879822v-0.011378z m33.974045 0.534756l9.181866-32.768h3.117511l-9.170488 32.768h-3.128889z m15.223466-0.534756v-31.709867h3.8912v11.389156a8.669867 8.669867 0 0 1 6.883556-3.1744 8.988444 8.988444 0 0 1 4.425955 1.024c1.251556 0.659911 2.1504 1.592889 2.696534 2.776178 0.523378 1.160533 0.807822 2.878578 0.807822 5.131378v14.563555h-3.902578v-14.563555c0-1.956978-0.4096-3.345067-1.262933-4.232534a4.7104 4.7104 0 0 0-3.584-1.353955 6.428444 6.428444 0 0 0-3.254045 0.9216 5.006222 5.006222 0 0 0-2.173155 2.412089 11.195733 11.195733 0 0 0-0.648533 4.232533v12.572444h-3.879823z" fill="#8ED8F8" p-id="44721"></path><path d="M132.243911 354.053689l37.535289 5.882311L555.690667 515.390578l-9.102223 22.141155-383.704177-160.415289z" fill="" p-id="44722"></path><path d="M133.142756 357.330489l37.501155 6.121244 385.012622 157.661867-9.227377 22.1184-382.7712-162.668089z" fill="#8ED8F8" p-id="44723"></path><path d="M357.979022 399.325867h-5.028978v-32.108089a25.372444 25.372444 0 0 1-4.778666 3.470222 35.282489 35.282489 0 0 1-5.302045 2.582756v-4.858312a31.175111 31.175111 0 0 0 7.384178-4.801422c2.104889-1.888711 3.606756-3.743289 4.482845-5.495466h3.231288v41.210311h0.011378z m71.259022-4.869689v4.869689h-27.136a8.533333 8.533333 0 0 1 0.591645-3.504356c0.682667-1.854578 1.797689-3.675022 3.310933-5.461333a53.475556 53.475556 0 0 1 6.599111-6.223645c4.471467-3.640889 7.486578-6.5536 9.056711-8.669866 1.558756-2.1504 2.343822-4.175644 2.343823-6.052978a6.712889 6.712889 0 0 0-2.139023-5.063111 7.816533 7.816533 0 0 0-5.586488-2.048 7.850667 7.850667 0 0 0-5.825423 2.184533c-1.456356 1.456356-2.195911 3.470222-2.218666 6.018845l-5.176889-0.523378c0.364089-3.834311 1.695289-6.781156 4.004978-8.840534 2.321067-2.013867 5.4272-3.015111 9.329777-3.015111 3.936711 0 7.054222 1.092267 9.352534 3.2768a10.763378 10.763378 0 0 1 3.447466 8.112356c0 1.661156-0.341333 3.242667-1.024 4.835555-0.659911 1.592889-1.774933 3.2768-3.345066 5.028978a78.119822 78.119822 0 0 1-7.771023 7.213511 89.429333 89.429333 0 0 0-5.814044 5.165511 17.863111 17.863111 0 0 0-2.139022 2.719289h20.138666v-0.022755z m37.284978-5.984711l5.028978-0.659911c0.591644 2.878578 1.570133 4.926578 2.958222 6.189511a7.293156 7.293156 0 0 0 5.085867 1.888711 8.146489 8.146489 0 0 0 6.007467-2.480356 8.305778 8.305778 0 0 0 2.446222-6.087111 7.691378 7.691378 0 0 0-8.032711-7.975822c-0.955733 0-2.139022 0.193422-3.561245 0.557511l0.557511-4.437333c0.329956 0.034133 0.603022 0.068267 0.807823 0.068266a10.331022 10.331022 0 0 0 5.791288-1.683911c1.718044-1.1264 2.582756-2.844444 2.582756-5.165511 0-1.854578-0.637156-3.413333-1.888711-4.596622a6.599111 6.599111 0 0 0-4.835556-1.820445 6.849422 6.849422 0 0 0-4.892444 1.854578c-1.319822 1.2288-2.1504 3.072-2.537245 5.5296l-5.028977-0.887466c0.6144-3.3792 2.013867-5.984711 4.1984-7.839289 2.184533-1.854578 4.903822-2.776178 8.146489-2.776178 2.241422 0 4.3008 0.466489 6.178133 1.422222a10.569956 10.569956 0 0 1 4.334933 3.936711 10.183111 10.183111 0 0 1 1.501867 5.290667 8.510578 8.510578 0 0 1-1.444978 4.835555 9.716622 9.716622 0 0 1-4.221155 3.470223 9.398044 9.398044 0 0 1 5.654755 3.504355 10.581333 10.581333 0 0 1 2.002489 6.621867c0 3.572622-1.297067 6.621867-3.913956 9.102222-2.605511 2.480356-5.916444 3.743289-9.910044 3.743289a12.447289 12.447289 0 0 1-13.016178-11.605333z m79.860622 10.8544v-9.8304h-17.806222v-4.630756l18.727822-26.578489h4.107378v26.578489h5.540978v4.630756h-5.540978v9.8304h-5.028978z m0-14.461156V366.364444l-12.845511 18.500267h12.845511z m47.581867 3.697778l5.290667-0.466489c0.386844 2.582756 1.297067 4.539733 2.719289 5.825422a7.497956 7.497956 0 0 0 5.176889 1.956978 8.032711 8.032711 0 0 0 6.144-2.742044c1.683911-1.820444 2.525867-4.266667 2.525866-7.281778 0-2.878578-0.796444-5.131378-2.412089-6.781156a8.385422 8.385422 0 0 0-6.3488-2.514489 8.533333 8.533333 0 0 0-4.391822 1.1264 8.556089 8.556089 0 0 0-3.083378 2.844445l-4.733155-0.591645 3.982222-21.083022h20.400356v4.801422h-16.372623l-2.218666 11.025067c2.468978-1.683911 5.051733-2.548622 7.759644-2.548622 3.584 0 6.599111 1.2288 9.068089 3.709155 2.468978 2.480356 3.697778 5.688889 3.697778 9.568711 0 3.743289-1.092267 6.951822-3.254045 9.659734-2.639644 3.310933-6.223644 4.960711-10.774755 4.960711-3.743289 0-6.781156-1.024-9.147734-3.140267a12.344889 12.344889 0 0 1-4.027733-8.328533z m89.884445-20.218311l-5.006223 0.364089c-0.443733-1.956978-1.080889-3.413333-1.900089-4.3008a6.735644 6.735644 0 0 0-5.051733-2.1504 6.781156 6.781156 0 0 0-4.221155 1.353955c-1.592889 1.160533-2.833067 2.844444-3.754667 5.063111-0.898844 2.218667-1.376711 5.358933-1.422222 9.466311 1.217422-1.820444 2.696533-3.208533 4.448711-4.107377s3.595378-1.353956 5.518222-1.353956c3.356444 0 6.212267 1.262933 8.578844 3.709156 2.3552 2.480356 3.538489 5.688889 3.538489 9.602844 0 2.582756-0.557511 4.960711-1.672533 7.179378a12.174222 12.174222 0 0 1-4.573867 5.097244 12.629333 12.629333 0 0 1-6.599111 1.752178 12.856889 12.856889 0 0 1-10.274133-4.630755c-2.651022-3.083378-3.970844-8.169244-3.970845-15.2576 0-7.941689 1.456356-13.698844 4.4032-17.3056 2.548622-3.140267 5.984711-4.699022 10.331023-4.699023 3.219911 0 5.870933 0.887467 7.930311 2.707911 2.059378 1.820444 3.299556 4.3008 3.697778 7.509334z m-20.571023 17.669689c0 1.752178 0.375467 3.413333 1.103645 4.994844a8.192 8.192 0 0 0 7.259022 4.869689 7.076978 7.076978 0 0 0 5.484089-2.582756c1.524622-1.718044 2.298311-4.039111 2.298311-6.985955 0-2.844444-0.762311-5.097244-2.264178-6.724267a7.395556 7.395556 0 0 0-5.711644-2.446222c-2.286933 0-4.209778 0.796444-5.802667 2.446222a8.920178 8.920178 0 0 0-2.366578 6.428445z" fill="#F2F2F2" p-id="44724"></path></svg>