<?xml version="1.0" standalone="no"?><!DOCTYPE svg PUBLIC "-//W3C//DTD SVG 1.1//EN" "http://www.w3.org/Graphics/SVG/1.1/DTD/svg11.dtd"><svg t="1537416055144" class="icon" style="" viewBox="0 0 1024 1024" version="1.1" xmlns="http://www.w3.org/2000/svg" p-id="2405" xmlns:xlink="http://www.w3.org/1999/xlink" width="64" height="64"><defs><style type="text/css"></style></defs><path d="M703.33789063 869.27539063h86.74804687V962h-86.74804688z" p-id="2406"  fill="#8a8a8a"></path><path d="M923.24023438 544.6953125h-39.99023438v160.3125H801.16015625V544.6953125H583.19140625c-21.35742188 0-38.58398438 17.31445313-38.58398438 38.58398438V923.328125c0 21.35742188 17.31445313 38.58398438 38.58398438 38.58398438h37.96875V728.03515625h82.17773438v59.67773438h258.57421874V583.27929688c-0.08789063-21.26953125-17.40234375-38.58398438-38.67187499-38.58398438zM961.82421875 923.41601563v-54.14062501H871.20898438V962h52.03124999c21.26953125 0 38.58398438-17.31445313 38.58398438-38.58398438zM244.4609375 317.49804687c34.8046875 17.9296875 79.453125-5.80078125 78.66210938-48.95507812-0.61523438-32.6953125-29.09179688-56.86523438-65.30273438-50.09765625-50.44921875 9.31640625-53.0859375 78.48632813-13.359375 99.05273438zM479.12890625 923.59179688V583.54296875c0-21.35742188-17.31445313-38.58398438-38.58398438-38.58398438h-340.13671874C80.28125 544.87109375 63.7578125 560.33984375 62 579.93945313v347.16796874c1.66992188 18.36914063 16.25976563 33.046875 34.62890625 34.89257813H444.32421875c19.51171875-1.93359375 34.8046875-18.36914063 34.8046875-38.40820312z m-79.8046875-39.19921876H139.25585937v-256.64062499c-0.08789063-1.66992188-0.17578125-3.42773438 1.23046876-3.60351563h258.83789062v260.24414063z" p-id="2407"  fill="#8a8a8a"></path><path d="M319.51953125 774.6171875c15.02929688-40.34179688-16.96289063-76.9921875-55.63476563-72.7734375-25.92773438 2.8125-40.78125 17.49023438-45.96679687 37.00195313-18.6328125 70.6640625 80.77148438 91.66992188 101.6015625 35.77148437zM741.65820313 322.24414062c83.671875 13.7109375 85.34179688-119.53125-1e-8-103.79882812-54.93164063 10.01953125-53.26171875 95.00976563 0 103.79882813zM62 440.72070312c0 21.26953125 17.31445313 38.58398438 38.58398438 38.58398438h340.04882812c21.35742188 0 38.58398438-17.31445313 38.58398438-38.58398437v-340.13671876c0-21.26953125-17.2265625-38.58398438-38.49609375-38.58398437H100.49609375C79.2265625 62 62 79.31445312 62 100.58398437v340.13671876zM140.48632812 139.60742187h258.83789063v260.24414063H139.25585937v-256.640625c-0.08789063-1.7578125-0.17578125-3.42773438 1.23046876-3.60351563z" p-id="2408"  fill="#8a8a8a"></path><path d="M961.82421875 100.58398437c0-21.26953125-17.2265625-38.49609375-38.49609375-38.58398437H583.10351563C561.83398438 62 544.51953125 79.31445312 544.51953125 100.58398437v340.04882813c0 21.35742188 17.31445313 38.58398438 38.58398438 38.58398438h340.04882812c21.26953125 0 38.58398438-17.2265625 38.58398438-38.58398438V100.58398437z m-78.57421875 299.26757813h-260.15625v-256.640625c-0.08789063-1.66992188-0.17578125-3.42773438 1.23046875-3.60351563h258.83789063v260.24414063z" p-id="2409"  fill="#8a8a8a"></path></svg>