<?xml version="1.0" standalone="no"?><!DOCTYPE svg PUBLIC "-//W3C//DTD SVG 1.1//EN" "http://www.w3.org/Graphics/SVG/1.1/DTD/svg11.dtd"><svg t="1540284536720" class="icon" style="" viewBox="0 0 1024 1024" version="1.1" xmlns="http://www.w3.org/2000/svg" p-id="1899" xmlns:xlink="http://www.w3.org/1999/xlink" width="128" height="128"><defs><style type="text/css"></style></defs><path d="M743.008 490.464l-416.672-416.768c-12.544-12.48-32.8-12.512-45.312 0-12.544 12.512-12.544 32.832-0.032 45.312l373.504 373.568c0 0-0.736-0.736 10.496 10.496 11.232 11.2-1.088 21.312-1.088 21.312l-10.688 10.688-369.952 369.952c-12.544 12.512-12.544 32.736 0 45.248 12.512 12.512 32.768 12.544 45.28 0l412.032-412c0.448-0.448 0.768-0.832 1.152-1.248 0.512-0.448 0.896-0.8 1.28-1.216C755.52 523.328 755.52 502.944 743.008 490.464z" p-id="1900" fill="#2c2c2c"></path></svg>