<?xml version="1.0" standalone="no"?><!DOCTYPE svg PUBLIC "-//W3C//DTD SVG 1.1//EN" "http://www.w3.org/Graphics/SVG/1.1/DTD/svg11.dtd"><svg t="1560321774129" class="icon" style="" viewBox="0 0 1024 1024" version="1.1" xmlns="http://www.w3.org/2000/svg" p-id="2087" xmlns:xlink="http://www.w3.org/1999/xlink" width="81" height="81"><defs><style type="text/css"></style></defs><path d="M1024 854.9376a34.59072 34.59072 0 0 1-3.91168-2.95936Q596.02944 427.9808 172.032 3.92192A34.46784 34.46784 0 0 1 169.0624 0H947.2a22.20032 22.20032 0 0 0 2.88768 0.89088c35.04128 5.888 58.368 25.7024 69.888 59.20768 1.85344 5.38624 2.70336 11.12064 4.01408 16.6912zM809.50272 234.58816l84.5824-84.57216-21.18656-21.17632-84.60288 84.65408-84.21376-84.224-21.9136 21.89312 84.992 84.992L682.8032 320.512l21.78048 21.73952 85.30944-85.34016 84.224 84.24448 20.96128-21.0432z" p-id="2088" data-spm-anchor-id="a313x.7781069.0.i0" class="selected" fill="#2f63f4"></path></svg>