<?xml version="1.0" standalone="no"?><!DOCTYPE svg PUBLIC "-//W3C//DTD SVG 1.1//EN" "http://www.w3.org/Graphics/SVG/1.1/DTD/svg11.dtd"><svg t="1538983718761" class="icon" style="" viewBox="0 0 1024 1024" version="1.1" xmlns="http://www.w3.org/2000/svg" p-id="13241" xmlns:xlink="http://www.w3.org/1999/xlink" width="48" height="48"><defs><style type="text/css"></style></defs><path d="M939.222663 925.794327l-20.889773 20.904099c-15.669888 15.663748-41.784662 15.663748-57.44841 0L714.655048 795.234783c-67.893296 47.004547-151.456481 78.345346-240.238526 78.345346-219.348754 0-402.146033-182.790116-402.146033-407.357731 0-219.355917 182.797279-402.146033 407.364895-402.146033 224.567615 0 407.356708 182.789093 407.356708 407.357731 0 94.008071-31.332612 182.78807-88.782046 255.907391l146.237619 146.238642C954.893574 884.031155 954.893574 910.131603 939.222663 925.794327L939.222663 925.794327 939.222663 925.794327zM479.635383 168.521135c-167.126368 0-302.912961 135.785569-302.912961 297.701263 0 161.89932 135.785569 297.685913 302.912961 297.685913 167.126368 0 302.903751-135.785569 302.903751-297.685913C782.540158 304.307727 641.535727 168.521135 479.635383 168.521135L479.635383 168.521135 479.635383 168.521135zM479.635383 168.521135" p-id="13242" fill="#828282"></path></svg>