<?xml version="1.0" encoding="utf-8"?>
<!-- Generator: Adobe Illustrator 22.1.0, SVG Export Plug-In . SVG Version: 6.00 Build 0)  -->
<svg version="1.1" id="图层_1" xmlns="http://www.w3.org/2000/svg" xmlns:xlink="http://www.w3.org/1999/xlink" x="0px" y="0px"
	 viewBox="0 0 200 200" style="enable-background:new 0 0 200 200;" xml:space="preserve">
<style type="text/css">
	.st0{fill:#FFFFFF;}
</style>
<path class="st0" d="M157.2,157.5V20c0-9.7-5.7-17.5-12.8-17.5H55.7c-7.1,0-12.8,7.8-12.8,17.5v137.5H157.2z M42.8,163.4v21.3
	c0,7.1,5.7,12.8,12.8,12.8h88.7c7.1,0,12.8-5.7,12.8-12.8v-21.3H42.8z M100,190.9c-5.8,0-10.5-4.7-10.5-10.5s4.7-10.5,10.5-10.5
	s10.5,4.7,10.5,10.5S105.8,190.9,100,190.9z M99.8,9.4c-5.8,0-10.5-0.7-10.5-1.6S94,6.2,99.8,6.2s10.5,0.7,10.5,1.6
	S105.6,9.4,99.8,9.4z"/>
</svg>
