<?xml version="1.0" standalone="no"?><!DOCTYPE svg PUBLIC "-//W3C//DTD SVG 1.1//EN" "http://www.w3.org/Graphics/SVG/1.1/DTD/svg11.dtd"><svg t="1543575465126" class="icon" style="" viewBox="0 0 1024 1024" version="1.1" xmlns="http://www.w3.org/2000/svg" p-id="1819" xmlns:xlink="http://www.w3.org/1999/xlink" width="128" height="128"><defs><style type="text/css"></style></defs><path d="M992 224c-19.2 0-32-12.8-32-32V89.6c0-12.8 0-25.6-51.2-25.6H768c-19.2 0-32-12.8-32-32s12.8-32 32-32h140.8c96 0 115.2 51.2 115.2 89.6V192c0 19.2-12.8 32-32 32zM32 224C12.8 224 0 211.2 0 192V89.6C0 32 12.8 0 83.2 0H256c19.2 0 32 12.8 32 32S275.2 64 256 64H64v128c0 19.2-12.8 32-32 32zM256 1024H83.2C12.8 1024 0 992 0 934.4V832c0-19.2 12.8-32 32-32s32 12.8 32 32v128h192c19.2 0 32 12.8 32 32s-12.8 32-32 32zM908.8 1024H768c-19.2 0-32-12.8-32-32s12.8-32 32-32h140.8c51.2 0 51.2-12.8 51.2-25.6V832c0-19.2 12.8-32 32-32s32 12.8 32 32v102.4c0 38.4-19.2 89.6-115.2 89.6zM960 576H64c-19.2 0-32-12.8-32-32S44.8 512 64 512h896c19.2 0 32 12.8 32 32s-12.8 32-32 32zM160 640h121.6v153.6H160zM307.2 640h70.4v153.6H307.2zM403.2 640h102.4v153.6H403.2zM544 640h153.6v153.6H544zM742.4 640h115.2v153.6h-115.2z" fill="#8a8a8a" p-id="1820"></path><path d="M166.4 185.6h102.4V448H166.4zM326.4 185.6h51.2V448h-51.2zM409.6 185.6H512V448H409.6zM563.2 185.6H704V448H563.2zM748.8 185.6h102.4V448h-102.4z" fill="#8a8a8a" p-id="1821"></path></svg>