<?xml version="1.0" standalone="no"?><!DOCTYPE svg PUBLIC "-//W3C//DTD SVG 1.1//EN" "http://www.w3.org/Graphics/SVG/1.1/DTD/svg11.dtd"><svg t="1567755547516" class="icon" viewBox="0 0 1025 1024" version="1.1" xmlns="http://www.w3.org/2000/svg" p-id="2985" xmlns:xlink="http://www.w3.org/1999/xlink" width="64.0625" height="64"><defs><style type="text/css"></style></defs><path d="M816.743884 263.548226h173.993004c18.422789 0 33.775112-14.84058 33.775112-33.263368s-14.84058-33.775112-33.775112-33.775113h-173.993004c-18.422789 0-33.775112 14.84058-33.775112 33.775113 0.511744 18.422789 15.352324 33.263368 33.775112 33.263368zM991.248632 321.375312h-137.147427c-18.422789 0-33.775112 14.84058-33.775112 33.775113 0 18.422789 14.84058 33.263368 33.775112 33.263368h137.147427c18.422789 0 33.775112-14.84058 33.775112-33.263368-0.511744-18.934533-15.352324-33.775112-33.775112-33.775113zM991.248632 445.729135h-93.649176c-18.422789 0-33.775112 14.84058-33.775112 33.775113 0 18.422789 14.84058 33.263368 33.775112 33.263368h93.649176c18.422789 0 33.775112-14.84058 33.775112-33.263368-0.511744-18.422789-15.352324-33.775112-33.775112-33.775113z" fill="#244ef2" p-id="2986"></path><path d="M913.463524 713.883058c-68.061969-47.08046-157.617191-83.414293-253.313343-101.837081-11.770115-3.070465-21.493253-12.793603-25.075462-25.075462-2.558721-8.187906-4.093953-24.563718 11.770115-41.451275 66.526737-63.968016 107.466267-168.363818 107.466266-272.247876 0-79.832084-24.051974-147.894053-70.108945-198.044977C639.680416 26.610695 578.782865 0 511.744384 0S383.296608 26.610695 338.774869 74.714643c-46.056972 50.150925-70.108946 118.212894-70.108946 198.044977 0 102.348826 39.916042 204.697651 104.395802 269.177411 0.511744 1.023488 1.535232 1.535232 2.046977 2.558721 16.375812 17.3993 14.84058 33.775112 12.281859 42.474763-3.582209 12.793603-13.817091 22.516742-25.587207 25.587206-95.696152 18.422789-185.251374 54.756622-252.801599 101.837082C38.381065 763.522239 0.000256 818.790605 0.000256 870.476762c0 96.207896 125.889055 121.283358 166.828586 129.983008 78.808596 15.864068 188.321839 23.54023 344.915542 23.54023 156.593703 0 266.106947-7.164418 344.915542-23.54023 41.451274-8.187906 166.828586-33.775112 166.828586-129.983008 0-51.686157-38.892554-107.466267-110.024988-156.593704z m-70.620689 220.56172c-74.202899 14.84058-179.622189 22.004998-331.610195 22.004997s-257.407296-7.164418-331.610195-22.004997c-42.474763-8.69965-113.095452-28.145927-113.095452-63.968016 0-22.004998 20.981509-59.874063 80.343828-101.325338 60.385807-41.963018 141.241379-74.714643 227.726137-91.090454 0.511744 0 1.023488 0 1.023488-0.511745 35.822089-8.187906 64.47976-35.822089 75.226387-71.644178 10.746627-36.333833 1.535232-74.714643-25.075463-104.395802-1.023488-1.535232-2.558721-3.070465-4.093953-4.605697-52.709645-51.174413-86.996502-139.194403-86.996501-224.143928 0-121.283358 72.155922-205.721139 175.528235-205.721139s175.528236 84.437781 175.528236 205.721139c0 85.461269-34.286857 173.481259-87.508246 224.655672l-1.023488 1.023489c-28.657671 29.681159-38.892554 70.108946-27.634183 107.466266 10.746627 35.822089 38.892554 62.944528 74.714643 71.644178 0.511744 0 1.023488 0 1.535232 0.511745 188.833583 36.333833 309.605197 138.170915 309.605198 192.927536 0.511744 35.310345-70.108946 54.756622-112.583708 63.456272z" fill="#244ef2" p-id="2987"></path></svg>