<?xml version="1.0" encoding="UTF-8"?>
<svg width="73px" height="84px" viewBox="0 0 73 84" version="1.1" xmlns="http://www.w3.org/2000/svg" xmlns:xlink="http://www.w3.org/1999/xlink">
    <!-- Generator: Sketch 50 (54983) - http://www.bohemiancoding.com/sketch -->
    <title>Group 2</title>
    <desc>Created with Sketch.</desc>
    <defs></defs>
    <g id="Page-1" stroke="none" stroke-width="1" fill="none" fill-rule="evenodd">
        <g id="我的卡券-copy-8" transform="translate(-161.000000, -586.000000)">
            <g id="Group-2" transform="translate(161.000000, 586.000000)">
                <g id="Group-25-Copy" fill="#328FD3" opacity="0.0953683036">
                    <polygon id="Polygon-Copy-13" points="36.373067 0 72.7461339 21 72.7461339 63 36.373067 84 3.49054119e-13 63 3.25073302e-13 21"></polygon>
                </g>
                <g id="icon-test" transform="translate(20.000000, 24.000000)" fill-rule="nonzero">
                    <path d="M5.70714286,18.1915179 C5.87410714,24.0921875 10.7084821,28.8241071 16.6508929,28.8241071 C22.6957589,28.8241071 27.5984375,23.9214286 27.5984375,17.8765625 C27.5984375,11.9493304 22.8892857,7.12633929 17.0113839,6.93660714 L17.0113839,18.1915179" id="Shape" fill="#55B7A8"></path>
                    <path d="M13.4216518,17.9714286 C13.4709821,19.7131696 14.8977679,21.1095982 16.6508929,21.1095982 C18.434375,21.1095982 19.8801339,19.6638393 19.8801339,17.8803571 C19.8801339,16.1310268 18.4912946,14.7080357 16.7571429,14.6511161 L16.7571429,17.9714286" id="Shape" fill="#FFFFFF"></path>
                    <path d="M16.9848214,34.85 C16.8823661,34.85 16.7761161,34.85 16.6774554,34.8462054 L16.6888393,34.2390625 C16.7875,34.2390625 16.8861607,34.2428571 16.9886161,34.2428571 L16.9886161,34.85 L16.9848214,34.85 Z M16.0551339,34.8234375 C15.8502232,34.8120536 15.6415179,34.796875 15.4366071,34.7779018 L15.4897321,34.1745536 C15.6870536,34.1935268 15.8881696,34.2087054 16.0854911,34.2162946 L16.0551339,34.8234375 Z M14.821875,34.7133929 C14.6169643,34.6868304 14.4120536,34.6564732 14.2071429,34.6223214 L14.3058036,34.0227679 C14.4993304,34.053125 14.7004464,34.0834821 14.8977679,34.1100446 L14.821875,34.7133929 Z M13.5962054,34.5122768 C13.3950893,34.4705357 13.1901786,34.425 12.9890625,34.3794643 L13.1294643,33.7875 C13.3229911,33.8330357 13.5203125,33.8785714 13.7138393,33.9165179 L13.5962054,34.5122768 Z M12.3895089,34.2200893 C12.1921875,34.1631696 11.9910714,34.10625 11.79375,34.0417411 L11.9796875,33.4649554 C12.1694196,33.5256696 12.3629464,33.5825893 12.5526786,33.6357143 L12.3895089,34.2200893 Z M11.209375,33.840625 C11.0158482,33.7723214 10.8185268,33.6964286 10.6287946,33.6167411 L10.8564732,33.0551339 C11.0424107,33.1310268 11.2283482,33.203125 11.4180804,33.2676339 L11.209375,33.840625 Z M10.0558036,33.3776786 C9.86607143,33.2941964 9.68013393,33.203125 9.49419643,33.1120536 L9.76361607,32.565625 C9.94196429,32.6529018 10.1241071,32.7401786 10.30625,32.8198661 L10.0558036,33.3776786 Z M8.94017857,32.8274554 C8.75803571,32.7287946 8.57589286,32.6263393 8.39754464,32.5238839 L8.70491071,32.0002232 C8.87566964,32.0988839 9.05022321,32.2013393 9.22857143,32.2924107 L8.94017857,32.8274554 Z M7.87008929,32.2013393 C7.69553571,32.0912946 7.52098214,31.9736607 7.35401786,31.8598214 L7.69933036,31.3589286 C7.8625,31.4727679 8.02946429,31.5828125 8.19642857,31.6890625 L7.87008929,32.2013393 Z M6.84933036,31.4955357 C6.68616071,31.3741071 6.51919643,31.2450893 6.35982143,31.1160714 L6.73928571,30.6417411 C6.89486607,30.7669643 7.05424107,30.8883929 7.21361607,31.0098214 L6.84933036,31.4955357 Z M5.88169643,30.7176339 C5.72611607,30.5810268 5.57053571,30.4444196 5.41875,30.3040179 L5.83236607,29.8600446 C5.9765625,29.9966518 6.12834821,30.1294643 6.27633929,30.2584821 L5.88169643,30.7176339 Z M4.97477679,29.8714286 C4.83058036,29.7272321 4.68638393,29.5754464 4.54598214,29.4236607 L4.98995536,29.0100446 C5.1265625,29.1542411 5.26316964,29.3022321 5.40357143,29.4388393 L4.97477679,29.8714286 Z M4.12857143,28.9645089 C3.99575893,28.8089286 3.85915179,28.6495536 3.73392857,28.4863839 L4.20825893,28.1069196 C4.33348214,28.2625 4.4625,28.4180804 4.59151786,28.5660714 L4.12857143,28.9645089 Z M3.35446429,27.996875 C3.23303571,27.8337054 3.11160714,27.6629464 2.99397321,27.4921875 L3.49486607,27.146875 C3.60870536,27.3100446 3.72254464,27.4732143 3.84397321,27.6325893 L3.35446429,27.996875 Z M2.65245536,26.9799107 C2.54241071,26.8053571 2.43236607,26.6270089 2.32991071,26.4524554 L2.85357143,26.1450893 C2.95223214,26.3158482 3.05848214,26.4866071 3.16473214,26.6535714 L2.65245536,26.9799107 Z M2.02633929,25.9098214 C1.92767857,25.7276786 1.8328125,25.5455357 1.74174107,25.3595982 L2.28816964,25.0901786 C2.37544643,25.2685268 2.46651786,25.446875 2.56138393,25.6214286 L2.02633929,25.9098214 Z M1.47991071,24.8017857 C1.39642857,24.6158482 1.31294643,24.4223214 1.23705357,24.2325893 L1.79866071,24.0049107 C1.87455357,24.1870536 1.95044643,24.3729911 2.03392857,24.5551339 L1.47991071,24.8017857 Z M1.01316964,23.6520089 C0.944866071,23.4584821 0.8765625,23.2611607 0.812053571,23.0638393 L1.38883929,22.8779018 C1.44955357,23.0676339 1.5140625,23.2573661 1.58236607,23.4433036 L1.01316964,23.6520089 Z M0.6375,22.471875 C0.580580357,22.2745536 0.527455357,22.0734375 0.481919643,21.8723214 L1.07388393,21.728125 C1.11941964,21.9216518 1.17254464,22.1151786 1.22566964,22.3049107 L0.6375,22.471875 Z M0.3453125,21.2689732 C0.303571429,21.0678571 0.265625,20.8629464 0.231473214,20.6580357 L0.831026786,20.559375 C0.865178571,20.7566964 0.899330357,20.9540179 0.941071429,21.1475446 L0.3453125,21.2689732 Z M0.144196429,20.0433036 C0.117633929,19.8383929 0.0948660714,19.6334821 0.0758928571,19.4285714 L0.679241071,19.3754464 C0.698214286,19.5727679 0.7171875,19.7738839 0.74375,19.9712054 L0.144196429,20.0433036 Z M0.0303571429,18.8100446 C0.0189732143,18.6051339 0.0113839286,18.3964286 0.00758928571,18.1915179 L0.614732143,18.1801339 C0.618526786,18.3774554 0.626116071,18.5785714 0.6375,18.7796875 L0.0303571429,18.8100446 Z M0.614732143,17.5805804 L0.00758928571,17.5691964 C0.0113839286,17.3642857 0.0189732143,17.1555804 0.0303571429,16.9506696 L0.6375,16.9848214 C0.626116071,17.1783482 0.618526786,17.3794643 0.614732143,17.5805804 Z M0.679241071,16.3852679 L0.0758928571,16.3321429 C0.0948660714,16.1272321 0.117633929,15.9185268 0.144196429,15.7174107 L0.747544643,15.7933036 C0.7171875,15.9868304 0.694419643,16.1879464 0.679241071,16.3852679 Z M0.827232143,15.2013393 L0.227678571,15.1026786 C0.261830357,14.8977679 0.299776786,14.6928571 0.337723214,14.4917411 L0.933482143,14.6131696 C0.895535714,14.8066964 0.861383929,15.0040179 0.827232143,15.2013393 Z M1.06629464,14.0287946 L0.474330357,13.8883929 C0.523660714,13.6872768 0.576785714,13.4861607 0.629910714,13.2888393 L1.21428571,13.4520089 C1.16116071,13.6417411 1.11183036,13.8352679 1.06629464,14.0287946 Z M1.38883929,12.8752232 L0.812053571,12.6892857 C0.8765625,12.4919643 0.941071429,12.2946429 1.01316964,12.1011161 L1.58236607,12.3060268 C1.5140625,12.4957589 1.44955357,12.6854911 1.38883929,12.8752232 Z M1.79486607,11.7482143 L1.23325893,11.5205357 C1.30915179,11.3308036 1.39263393,11.1372768 1.47611607,10.9475446 L2.03013393,11.1941964 C1.94665179,11.3801339 1.87075893,11.5660714 1.79486607,11.7482143 Z M2.284375,10.6553571 L1.73794643,10.3859375 C1.82901786,10.2 1.92388393,10.0140625 2.02254464,9.83191964 L2.55758929,10.1203125 C2.46272321,10.2986607 2.37165179,10.4770089 2.284375,10.6553571 Z M2.84977679,9.60044643 L2.32611607,9.29308036 C2.43236607,9.11473214 2.53861607,8.93638393 2.64866071,8.76183036 L3.1609375,9.08816964 C3.05848214,9.25892857 2.95223214,9.4296875 2.84977679,9.60044643 Z M3.49486607,8.59107143 L2.99397321,8.24575893 C3.11160714,8.075 3.23303571,7.90803571 3.35446429,7.74107143 L3.84017857,8.10535714 C3.72254464,8.26473214 3.60491071,8.42790179 3.49486607,8.59107143 Z M4.20825893,7.63102679 L3.73392857,7.2515625 C3.86294643,7.0921875 3.99575893,6.92901786 4.13236607,6.7734375 L4.59151786,7.171875 C4.4625,7.31986607 4.33348214,7.47544643 4.20825893,7.63102679 Z M4.98995536,6.72410714 L4.54598214,6.31049107 C4.68638393,6.15870536 4.83058036,6.01071429 4.97477679,5.86272321 L5.40357143,6.29151786 C5.26696429,6.43571429 5.1265625,6.57991071 4.98995536,6.72410714 Z M5.83616071,5.88169643 L5.42254464,5.43772321 C5.57433036,5.29732143 5.72991071,5.15691964 5.88549107,5.02410714 L6.28392857,5.48325893 C6.13214286,5.61227679 5.98035714,5.74508929 5.83616071,5.88169643 Z M6.73928571,5.1 L6.35982143,4.62566964 C6.51919643,4.49665179 6.68616071,4.36763393 6.84933036,4.24620536 L7.21361607,4.73191964 C7.05424107,4.84955357 6.89486607,4.97477679 6.73928571,5.1 Z M7.69933036,4.3828125 L7.35401786,3.88191964 C7.52477679,3.76428571 7.69553571,3.65044643 7.87008929,3.54040179 L8.19642857,4.05267857 C8.02946429,4.16272321 7.8625,4.27276786 7.69933036,4.3828125 Z M8.70491071,3.74151786 L8.39754464,3.21785714 C8.57589286,3.11540179 8.75803571,3.01294643 8.93638393,2.91428571 L9.22477679,3.44933036 C9.05022321,3.54419643 8.87566964,3.64285714 8.70491071,3.74151786 Z M9.75602679,3.17611607 L9.48660714,2.6296875 C9.66875,2.53861607 9.85848214,2.45133929 10.0482143,2.36785714 L10.2948661,2.921875 C10.1165179,3.00535714 9.934375,3.08883929 9.75602679,3.17611607 Z M10.8450893,2.69040179 L10.6174107,2.12879464 C10.8071429,2.05290179 11.0044643,1.97700893 11.1979911,1.90491071 L11.4066964,2.47410714 C11.2169643,2.54241071 11.0272321,2.61450893 10.8450893,2.69040179 Z M11.9683036,2.28058036 L11.7823661,1.70379464 C11.9796875,1.63928571 12.1770089,1.58236607 12.3743304,1.52544643 L12.5375,2.10982143 C12.3477679,2.16294643 12.1580357,2.21986607 11.9683036,2.28058036 Z M13.1180804,1.95803571 L12.9776786,1.36607143 C13.1787946,1.31674107 13.3799107,1.27120536 13.5848214,1.22946429 L13.70625,1.82522321 C13.5089286,1.86696429 13.3116071,1.9125 13.1180804,1.95803571 Z M14.290625,1.71897321 L14.1919643,1.11941964 C14.3930804,1.08526786 14.6017857,1.05491071 14.8066964,1.02834821 L14.8825893,1.63169643 C14.6852679,1.65825893 14.4879464,1.68861607 14.290625,1.71897321 Z M15.4783482,1.5671875 L15.4214286,0.963839286 C15.6263393,0.944866071 15.8350446,0.9296875 16.0399554,0.918303571 L16.0741071,1.52544643 C15.8729911,1.53303571 15.6756696,1.54821429 15.4783482,1.5671875 Z M16.6850446,1.50267857 L16.6736607,0.895535714 C16.7761161,0.895535714 16.8785714,0.891741071 16.9810268,0.891741071 L16.9810268,1.49888393 C16.8861607,1.49888393 16.7837054,1.49888393 16.6850446,1.50267857 Z" id="Shape" fill="#0A0408"></path>
                    <path d="M16.9848214,34.85 L16.9848214,34.2428571 C19.1933036,34.2428571 21.3410714,33.8102679 23.3560268,32.9564732 C25.3064732,32.1330357 27.0558036,30.9529018 28.5584821,29.4464286 C30.0611607,27.94375 31.2412946,26.190625 32.0685268,24.2439732 C32.9223214,22.2252232 33.3549107,20.08125 33.3549107,17.8727679 C33.3549107,15.6642857 32.9223214,13.5165179 32.0685268,11.4977679 C31.2450893,9.54732143 30.0649554,7.79799107 28.5584821,6.2953125 C27.0558036,4.79263393 25.3026786,3.6125 23.3560268,2.78526786 C21.3372768,1.93147321 19.1933036,1.49888393 16.9848214,1.49888393 L16.9848214,0.891741071 C19.2767857,0.891741071 21.5004464,1.33950893 23.5950893,2.22745536 C25.6176339,3.08125 27.4314732,4.30691964 28.9910714,5.86651786 C30.5506696,7.42611607 31.7763393,9.23995536 32.6301339,11.2625 C33.5142857,13.3533482 33.9620536,15.5770089 33.9620536,17.8727679 C33.9620536,20.1647321 33.5142857,22.3883929 32.6263393,24.4830357 C31.7725446,26.5055804 30.546875,28.3194196 28.9872768,29.8790179 C27.4276786,31.4386161 25.6138393,32.6642857 23.5912946,33.5180804 C21.5004464,34.4022321 19.2767857,34.85 16.9848214,34.85 Z" id="Shape" fill="#0A0408"></path>
                    <path d="M16.9848214,31.7611607 C15.1102679,31.7611607 13.2926339,31.3930804 11.58125,30.6683036 C9.92678571,29.9700893 8.44308036,28.9683036 7.16808036,27.6933036 C5.89308036,26.4183036 4.89129464,24.9345982 4.19308036,23.2801339 C3.46830357,21.56875 3.10022321,19.7511161 3.10022321,17.8765625 L3.70736607,17.8765625 C3.70736607,21.4207589 5.08861607,24.75625 7.596875,27.2607143 C10.1051339,29.7727679 13.4368304,31.1540179 16.9848214,31.1540179 C20.5328125,31.1540179 23.8645089,29.7727679 26.3689732,27.2645089 C28.8734375,24.75625 30.2584821,21.4245536 30.2584821,17.8803571 C30.2584821,14.3361607 28.8772321,11.0006696 26.3689732,8.49241071 C23.9328125,6.06004464 20.71875,4.68638393 17.2883929,4.61049107 L17.2883929,18.5102679 L16.68125,18.5102679 L16.68125,3.99955357 L16.9848214,3.99955357 C18.859375,3.99955357 20.6770089,4.36763393 22.3883929,5.09241071 C24.0428571,5.790625 25.5265625,6.79241071 26.8015625,8.06741071 C28.0765625,9.34241071 29.0783482,10.8261161 29.7765625,12.4805804 C30.5013393,14.1919643 30.8694196,16.0095982 30.8694196,17.8841518 C30.8694196,19.7587054 30.5013393,21.5763393 29.7765625,23.2877232 C29.0783482,24.9421875 28.0765625,26.4258929 26.8015625,27.7008929 C25.5265625,28.9758929 24.0428571,29.9776786 22.3883929,30.6758929 C20.6770089,31.3930804 18.859375,31.7611607 16.9848214,31.7611607 Z" id="Shape" fill="#0A0408"></path>
                    <path d="M17.1138393,35.328125 L17.0758929,35.328125 C16.6015625,35.328125 16.2183036,34.9448661 16.2183036,34.4705357 L16.2183036,34.4325893 C16.2183036,33.9582589 16.6015625,33.575 17.0758929,33.575 L17.1138393,33.575 C17.5881696,33.575 17.9714286,33.9582589 17.9714286,34.4325893 L17.9714286,34.4705357 C17.9714286,34.9448661 17.5881696,35.328125 17.1138393,35.328125 Z" id="Shape" fill="#DC444A"></path>
                    <path d="M17.1138393,35.6316964 L17.0758929,35.6316964 C16.4383929,35.6316964 15.9147321,35.1118304 15.9147321,34.4705357 L15.9147321,34.4325893 C15.9147321,33.7950893 16.4345982,33.2714286 17.0758929,33.2714286 L17.1138393,33.2714286 C17.7513393,33.2714286 18.275,33.7912946 18.275,34.4325893 L18.275,34.4705357 C18.275,35.1118304 17.7551339,35.6316964 17.1138393,35.6316964 Z M17.0796875,33.8823661 C16.7761161,33.8823661 16.5256696,34.1290179 16.5256696,34.4363839 L16.5256696,34.4743304 C16.5256696,34.7779018 16.7723214,35.0283482 17.0796875,35.0283482 L17.1176339,35.0283482 C17.4212054,35.0283482 17.6716518,34.7816964 17.6716518,34.4743304 L17.6716518,34.4363839 C17.6716518,34.1328125 17.425,33.8823661 17.1176339,33.8823661 L17.0796875,33.8823661 Z" id="Shape" fill="#0A0408"></path>
                    <path d="M17.1138393,2.06808036 L17.0758929,2.06808036 C16.6015625,2.06808036 16.2183036,1.68482143 16.2183036,1.21049107 L16.2183036,1.17254464 C16.2183036,0.698214286 16.6015625,0.314955357 17.0758929,0.314955357 L17.1138393,0.314955357 C17.5881696,0.314955357 17.9714286,0.698214286 17.9714286,1.17254464 L17.9714286,1.21049107 C17.9714286,1.68482143 17.5881696,2.06808036 17.1138393,2.06808036 Z" id="Shape" fill="#DC444A"></path>
                    <path d="M17.1138393,2.37165179 L17.0758929,2.37165179 C16.4383929,2.37165179 15.9147321,1.85178571 15.9147321,1.21049107 L15.9147321,1.17254464 C15.9147321,0.535044643 16.4345982,0.0113839286 17.0758929,0.0113839286 L17.1138393,0.0113839286 C17.7513393,0.0113839286 18.275,0.53125 18.275,1.17254464 L18.275,1.21049107 C18.275,1.85178571 17.7551339,2.37165179 17.1138393,2.37165179 Z M17.0796875,0.626116071 C16.7761161,0.626116071 16.5256696,0.872767857 16.5256696,1.18013393 L16.5256696,1.21808036 C16.5256696,1.52165179 16.7723214,1.77209821 17.0796875,1.77209821 L17.1176339,1.77209821 C17.4212054,1.77209821 17.6716518,1.52544643 17.6716518,1.21808036 L17.6716518,1.18013393 C17.6716518,0.8765625 17.425,0.626116071 17.1176339,0.626116071 L17.0796875,0.626116071 Z" id="Shape" fill="#0A0408"></path>
                    <path d="M15.8654018,18.4761161 L15.2582589,18.4761161 L15.2582589,17.8689732 L15.8654018,17.8689732 L15.8654018,18.4761161 Z M14.6511161,18.4761161 L14.0439732,18.4761161 L14.0439732,17.8689732 L14.6511161,17.8689732 L14.6511161,18.4761161 Z M13.4368304,18.4761161 L12.8296875,18.4761161 L12.8296875,17.8689732 L13.4368304,17.8689732 L13.4368304,18.4761161 Z M12.2225446,18.4761161 L11.6154018,18.4761161 L11.6154018,17.8689732 L12.2225446,17.8689732 L12.2225446,18.4761161 Z M11.0082589,18.4761161 L10.4011161,18.4761161 L10.4011161,17.8689732 L11.0082589,17.8689732 L11.0082589,18.4761161 Z M9.79397321,18.4761161 L9.18683036,18.4761161 L9.18683036,17.8689732 L9.79397321,17.8689732 L9.79397321,18.4761161 Z M8.5796875,18.4761161 L7.97254464,18.4761161 L7.97254464,17.8689732 L8.5796875,17.8689732 L8.5796875,18.4761161 Z M7.36540179,18.4761161 L6.75825893,18.4761161 L6.75825893,17.8689732 L7.36540179,17.8689732 L7.36540179,18.4761161 Z M6.15111607,18.4761161 L5.54397321,18.4761161 L5.54397321,17.8689732 L6.15111607,17.8689732 L6.15111607,18.4761161 Z M4.93683036,18.4761161 L4.3296875,18.4761161 L4.3296875,17.8689732 L4.93683036,17.8689732 L4.93683036,18.4761161 Z M3.72254464,18.4761161 L3.11540179,18.4761161 L3.11540179,17.8689732 L3.72254464,17.8689732 L3.72254464,18.4761161 Z" id="Shape" fill="#0A0408"></path>
                </g>
            </g>
        </g>
    </g>
</svg>