<?xml version="1.0" standalone="no"?><!DOCTYPE svg PUBLIC "-//W3C//DTD SVG 1.1//EN" "http://www.w3.org/Graphics/SVG/1.1/DTD/svg11.dtd"><svg t="1541577480647" class="icon" style="" viewBox="0 0 1024 1024" version="1.1" xmlns="http://www.w3.org/2000/svg" p-id="36091" xmlns:xlink="http://www.w3.org/1999/xlink" width="128" height="128"><defs><style type="text/css"></style></defs><path d="M644.123682 563.253447c-1.535822 7.730303-2.457315 16.3821-2.457315 25.494642 0 17.713145 3.327614 33.685692 8.549408 44.641222l-139.555012 41.262413-139.452623-41.262413c7.013586-10.034036 11.621052-27.440017 11.621052-47.149731 0-8.19105-0.819105-15.972547-2.201345-22.986133H266.106732a51.194061 51.194061 0 0 1-50.374957-60.357799l54.777646-301.328246a245.373137 245.373137 0 0 1 482.862388 0l54.777646 301.328246A51.194061 51.194061 0 0 1 757.774498 563.253447h-113.650816z m52.115554 105.050214l59.4875 35.119126 242.967016 134.026053a48.736747 48.736747 0 0 1 25.187478 42.695847v95.118566a48.736747 48.736747 0 0 1-48.736747 48.736747H48.736747A48.736747 48.736747 0 0 1 0 975.263253V880.144687c0-17.764339 9.675678-34.095245 25.187478-42.695847l242.967016-134.026053 57.337349-33.890469L358.35843 768.029693l152.302333-92.251699L663.01429 768.029693l33.27614-99.726032z" fill="#F04141" p-id="36092"></path></svg>