<?xml version="1.0" standalone="no"?><!DOCTYPE svg PUBLIC "-//W3C//DTD SVG 1.1//EN" "http://www.w3.org/Graphics/SVG/1.1/DTD/svg11.dtd"><svg t="1541577465530" class="icon" style="" viewBox="0 0 1050 1024" version="1.1" xmlns="http://www.w3.org/2000/svg" p-id="35325" xmlns:xlink="http://www.w3.org/1999/xlink" width="131.25" height="128"><defs><style type="text/css"></style></defs><path d="M642.765993 642.088578c-26.25641 43.442424-69.221445 95.477855-121.256876 95.477856-34.849417 0-78.291841-8.593007-121.256876-95.477856a30.075524 30.075524 0 0 1 8.593007-17.186014c0-52.035431-43.442424-52.035431-69.221446-156.106294-8.593007-52.035431-52.035431-8.593007-60.628438-104.070862 0-43.442424 17.186014-52.035431 17.186014-52.035431a177.588811 177.588811 0 0 1-8.593007-69.221446C278.995364 191.4331 322.437788 0.477389 513.393499 0.477389s234.398135 190.955711 234.398135 242.991142a87.839627 87.839627 0 0 1-17.186013 60.628439s17.186014 8.593007 17.186013 52.035431c0 104.070862-43.442424 60.628438-52.035431 104.070862-17.186014 104.070862-52.035431 112.663869-60.628438 164.699301a26.7338 26.7338 0 0 0 8.593007 17.186014z m8.593007 17.186014a274.021445 274.021445 0 0 0 104.070863 86.884849c78.291841 34.849417 130.327273 43.442424 208.141725 78.291841C1050.456436 867.893706 1050.456436 928.522145 1050.456436 1024H0.200026c0-104.070862-8.593007-156.106294 86.884849-199.548718 78.291841-34.849417 121.256876-43.442424 199.548718-78.291841a274.021445 274.021445 0 0 0 104.070862-86.884849c8.593007 95.477855 52.035431 242.991142 130.327273 242.991142s121.256876-138.92028 130.327272-242.991142z m0 0" fill="#46B6EF" p-id="35326"></path></svg>