<?xml version="1.0" standalone="no"?><!DOCTYPE svg PUBLIC "-//W3C//DTD SVG 1.1//EN" "http://www.w3.org/Graphics/SVG/1.1/DTD/svg11.dtd"><svg t="1560741786112" class="icon" style="" viewBox="0 0 1024 1024" version="1.1" xmlns="http://www.w3.org/2000/svg" p-id="2992" xmlns:xlink="http://www.w3.org/1999/xlink" width="81" height="81"><defs><style type="text/css"></style></defs><path d="M107.27619 887.466667h750.933334c20.48 0 34.133333 13.653333 34.133333 34.133333s-13.653333 34.133333-34.133333 34.133333h-750.933334c-20.48 0-34.133333-13.653333-34.133333-34.133333s13.653333-34.133333 34.133333-34.133333z" fill="#2f63f4" p-id="2993"></path><path d="M824.07619 1024H141.409524c-40.96 0-68.266667-27.306667-68.266667-68.266667s27.306667-68.266667 68.266667-68.266666h682.666666c40.96 0 68.266667 27.306667 68.266667 68.266666s-27.306667 68.266667-68.266667 68.266667zM141.409524 921.6v34.133333-34.133333zM291.59619 730.453333L824.07619 191.146667l-95.573333-95.573334-532.48 532.48-13.653333 109.226667 109.226666-6.826667z m-163.84-129.706666l552.96-552.96c27.306667-27.306667 68.266667-27.306667 95.573334 0l95.573333 95.573333c27.306667 27.306667 27.306667 68.266667 0 95.573333l-552.96 552.96-218.453333 27.306667 27.306666-218.453333z" fill="#2f63f4" p-id="2994"></path><path d="M621.665524 185.344l48.264533-48.264533 125.5424 125.474133-48.264533 48.264533zM211.041524 526.336l48.264533-48.264533 154.487467 154.487466-48.264534 48.264534z" fill="#2f63f4" p-id="2995"></path></svg>