<?xml version="1.0" standalone="no"?><!DOCTYPE svg PUBLIC "-//W3C//DTD SVG 1.1//EN" "http://www.w3.org/Graphics/SVG/1.1/DTD/svg11.dtd"><svg t="1545733729008" class="icon" style="" viewBox="0 0 1024 1024" version="1.1" xmlns="http://www.w3.org/2000/svg" p-id="6580" xmlns:xlink="http://www.w3.org/1999/xlink" width="200" height="200"><defs><style type="text/css"></style></defs><path d="M817.108976 250.309906H255.403924v384.393717c0 41.34157 33.629935 74.959226 74.959226 74.959226h53.600778v143.021367l124.230396-143.021367h308.912606c41.329291 0 74.947969-33.617655 74.947969-74.959226V325.262992c0.001023-41.330314-33.618679-74.953086-74.945923-74.953086z m51.480488 384.393717c0 28.392654-23.099091 51.492768-51.480488 51.492768H497.492588L407.432433 789.893124V686.196391h-77.06826c-28.392654 0-51.492768-23.100114-51.492768-51.492768V273.77534h538.236548c28.382421 0 51.481512 23.101137 51.481511 51.487652v309.440631z" p-id="6581" fill="#2c2c2c"></path><path d="M409.918044 442.320011c-20.269649 0-36.72339 16.454764-36.72339 36.734646 0 20.292162 16.45374 36.735669 36.72339 36.735669 20.293185 0 36.746926-16.442484 36.746925-36.735669-0.001023-20.279882-16.45374-36.734646-36.746925-36.734646zM573.723783 442.320011c-20.292162 0-36.746926 16.454764-36.746925 36.734646 0 20.292162 16.45374 36.735669 36.746925 36.735669 20.280906 0 36.745902-16.442484 36.745903-36.735669 0-20.279882-16.463973-36.734646-36.745903-36.734646zM737.518267 442.320011c-20.268626 0-36.732599 16.454764-36.7326 36.734646 0 20.292162 16.46295 36.735669 36.7326 36.735669 20.281929 0 36.736693-16.442484 36.736692-36.735669 0-20.279882-16.454764-36.734646-36.736692-36.734646z" p-id="6582" fill="#2c2c2c"></path><path d="M153.265686 559.480384v-390.67784h513.029446c27.89021 0 49.133024 24.286126 49.133024 36.43584h23.466457c0-26.966165-33.491789-59.902298-72.599481-59.902298H129.799228v414.144298c0 40.022529 32.57593 72.589248 72.599482 72.589249v-23.466458c-27.099195-0.001023-49.133024-22.036899-49.133024-49.122791z" p-id="6583" fill="#2c2c2c"></path></svg>