<?xml version="1.0" standalone="no"?><!DOCTYPE svg PUBLIC "-//W3C//DTD SVG 1.1//EN" "http://www.w3.org/Graphics/SVG/1.1/DTD/svg11.dtd"><svg t="1537942385337" class="icon" style="" viewBox="0 0 1024 1024" version="1.1" xmlns="http://www.w3.org/2000/svg" p-id="6163" xmlns:xlink="http://www.w3.org/1999/xlink" width="128" height="128"><defs><style type="text/css"></style></defs><path d="M502.762 534m-490 0a490 490 0 1 0 980 0 490 490 0 1 0-980 0Z" fill="#02AF8E" p-id="6164"></path><path d="M500.822 526.98m-397.24 0a397.24 397.24 0 1 0 794.48 0 397.24 397.24 0 1 0-794.48 0Z" fill="#FFFFFF" p-id="6165"></path><path d="M741.568 546.094c-10.55 0-19.106-8.556-19.106-19.108 0-47.964-15.32-92.412-41.314-128.724l-0.002 0.002c-25.03-34.962-59.962-62.372-100.658-78.104l-0.002 0.002c-24.734-9.562-51.598-14.818-79.666-14.818-27.96 0-54.71 5.216-79.362 14.706l-0.004-0.01c-40.76 15.688-75.754 43.084-100.836 78.05l0.002 0.002c-26.068 36.342-41.434 80.856-41.434 128.892 0 10.552-8.556 19.108-19.116 19.108H174.666a334.288 334.288 0 0 1-0.572-19.108c0 180.446 146.282 326.724 326.726 326.724 174.03 0 316.256-136.066 326.154-307.616l-85.406 0.002z" fill="#445EA0" p-id="6166"></path><path d="M320.62 398.092l-83.464-64.04-0.006-0.006c-39.632 54.068-63.054 120.764-63.054 192.94 0 6.414 0.21 12.784 0.572 19.108h85.404c10.558 0 19.116-8.556 19.116-19.108-0.002-48.036 15.366-92.55 41.432-128.894 0 0.002 0 0 0 0zM764.618 334.218l-0.002 0.002-83.466 64.044c25.994 36.312 41.314 80.76 41.314 128.724 0 10.552 8.554 19.108 19.106 19.108h85.406c0.364-6.326 0.57-12.694 0.57-19.108-0.002-72.102-23.372-138.732-62.928-192.77z" fill="#FF9518" p-id="6167"></path><path d="M385.186 221.342l-0.004-0.01c-59.638 22.582-110.942 62.116-148.028 112.722l83.464 64.04c25.082-34.966 60.076-62.364 100.836-78.05l-36.268-98.702zM616.762 221.448l-0.006 0.012-36.268 98.702c40.696 15.732 75.628 43.14 100.658 78.104l83.468-64.044c-37.038-50.604-88.278-90.15-147.852-112.774z" fill="#FFAF10" p-id="6168"></path><path d="M616.756 221.46c-36.036-13.682-75.106-21.194-115.934-21.194-40.714 0-79.684 7.472-115.634 21.078l36.274 98.708c24.652-9.49 51.402-14.706 79.362-14.706 28.068 0 54.93 5.256 79.666 14.818l36.266-98.704z" fill="#FFD00D" p-id="6169"></path><path d="M143.272 526.986c0-212.726 167.226-386.396 377.392-396.736a403.004 403.004 0 0 0-19.842-0.494c-219.384 0-397.234 177.85-397.234 397.23 0 219.384 177.85 397.23 397.234 397.23 6.654 0 13.268-0.172 19.842-0.494-210.166-10.34-377.392-184.006-377.392-396.736z" fill="#D9EAFC" p-id="6170"></path><path d="M214.352 546.094H174.664c9.896 171.55 152.128 307.616 326.156 307.616 6.666 0 13.276-0.224 19.842-0.618-164.88-9.878-296.794-142.018-306.31-306.998z" fill="#293D7C" p-id="6171"></path><path d="M631.154 541.986a15 15 0 0 1-15-15c0-63.596-51.738-115.338-115.334-115.338-63.598 0-115.338 51.74-115.338 115.338a15 15 0 0 1-30 0c0-80.138 65.198-145.338 145.338-145.338 80.138 0 145.334 65.198 145.334 145.338a15 15 0 0 1-15 15z" fill="#FF9518" p-id="6172"></path><path d="M452.838 717.702c0 3.3-2.7 6-6 6h-60.442c-3.3 0-6-2.7-6-6v-60.436c0-3.3 2.7-6 6-6h60.442c3.3 0 6 2.7 6 6v60.436zM537.036 717.702c0 3.3-2.7 6-6 6h-60.434c-3.3 0-6-2.7-6-6v-60.436c0-3.3 2.7-6 6-6h60.434c3.3 0 6 2.7 6 6v60.436z" fill="#91E0E8" p-id="6173"></path><path d="M621.24 717.702c0 3.3-2.7 6-6 6h-60.434c-3.3 0-6-2.7-6-6v-60.436c0-3.3 2.7-6 6-6h60.434c3.3 0 6 2.7 6 6v60.436z" fill="#FFFFFF" p-id="6174"></path><path d="M452.838 717.702c0 3.3-2.7 6-6 6h-60.442c-3.3 0-6-2.7-6-6v-60.436c0-3.3 2.7-6 6-6h60.442c3.3 0 6 2.7 6 6v60.436z" fill="#5DC1D8" p-id="6175"></path><path d="M537.036 717.702c0 3.3-2.7 6-6 6h-60.434c-3.3 0-6-2.7-6-6v-60.436c0-3.3 2.7-6 6-6h60.434c3.3 0 6 2.7 6 6v60.436z" fill="#91E0E8" p-id="6176"></path><path d="M621.24 717.702c0 3.3-2.7 6-6 6h-60.434c-3.3 0-6-2.7-6-6v-60.436c0-3.3 2.7-6 6-6h60.434c3.3 0 6 2.7 6 6v60.436z" fill="#FFFFFF" p-id="6177"></path><path d="M452.246 549.868c-12.616-26.782-1.092-58.838 25.694-71.456a54.442 54.442 0 0 1 4.636-1.92c0.114-0.04 0.22-0.074 0.332-0.1l264.358-69.646c1.786-0.47 3.636 0.4 4.426 2.068a3.816 3.816 0 0 1-1.226 4.726l-222.044 159.476a2.78 2.78 0 0 1-0.29 0.19c-1.516 0.892-2.968 1.66-4.438 2.356-26.776 12.618-58.828 1.094-71.448-25.694z" fill="#FE3745" p-id="6178"></path><path d="M477.94 494.098a54.442 54.442 0 0 1 4.636-1.92c0.114-0.04 0.22-0.074 0.332-0.1l249.862-65.826 17.696-12.71a3.816 3.816 0 0 0 1.226-4.726 3.816 3.816 0 0 0-4.426-2.068l-264.358 69.646a4.454 4.454 0 0 0-0.332 0.1c-1.648 0.598-3.164 1.228-4.636 1.92-21.918 10.326-33.608 33.666-30.222 56.484 2.544-17.194 13.352-32.854 30.222-40.8z" fill="#B7092B" p-id="6179"></path><path d="M500.822 526.98m-26.944 0a26.944 26.944 0 1 0 53.888 0 26.944 26.944 0 1 0-53.888 0Z" fill="#B7092B" p-id="6180"></path><path d="M759.264 199.788a10.294 10.294 0 0 1-10.294-10.292V109.732h-34.464a10.292 10.292 0 0 1-8.164-16.56L774.8 4.024A10.286 10.286 0 0 1 782.958 0c3.2 0 6.214 1.488 8.164 4.024l68.454 89.148a10.29 10.29 0 0 1-8.164 16.56h-34.46v79.764a10.292 10.292 0 0 1-10.294 10.292h-47.394z" fill="#FF9518" p-id="6181"></path><path d="M771.47 97.232a10 10 0 0 0-10-10h-50.568l-4.56 5.94a10.29 10.29 0 0 0 8.164 16.56h34.464v79.764a10.294 10.294 0 0 0 10.294 10.292h12.206V97.232z" fill="#EF8318" p-id="6182"></path><path d="M908.79 352.738a10.292 10.292 0 0 1-10.292-10.292V262.68h-34.46a10.29 10.29 0 1 1-8.164-16.56l68.454-89.146a10.292 10.292 0 0 1 16.328 0l68.454 89.146a10.29 10.29 0 0 1-8.164 16.56h-34.464v79.766a10.292 10.292 0 0 1-10.294 10.292h-47.398z" fill="#FF9518" p-id="6183"></path><path d="M921.002 250.18a10 10 0 0 0-10-10h-50.568l-4.56 5.94a10.29 10.29 0 0 0 8.164 16.56h34.464v79.764a10.294 10.294 0 0 0 10.294 10.292h12.206V250.18z" fill="#EF8318" p-id="6184"></path></svg>