<?xml version="1.0" standalone="no"?><!DOCTYPE svg PUBLIC "-//W3C//DTD SVG 1.1//EN" "http://www.w3.org/Graphics/SVG/1.1/DTD/svg11.dtd"><svg t="1560588299279" class="icon" style="" viewBox="0 0 1024 1024" version="1.1" xmlns="http://www.w3.org/2000/svg" p-id="23312" xmlns:xlink="http://www.w3.org/1999/xlink" width="81" height="81"><defs><style type="text/css"></style></defs><path d="M997.76 513.92c0 267.552-216.896 484.448-484.448 484.448S28.864 781.472 28.864 513.92 245.76 29.472 513.312 29.472 997.76 246.368 997.76 513.92z" fill="#2f63f4" p-id="23313" data-spm-anchor-id="a313x.7781069.0.i12" class="selected"></path><path d="M809.056 351.488c9.76 45.952 1.408 91.904-18.112 135.04s-43.168 82.176-71.008 121.152c-36.192 50.112-72.416 98.88-118.368 140.64-26.464 25.056-57.088 48.736-91.872 61.248-43.168 15.328-72.384 6.976-98.88-30.624-19.488-26.464-30.624-55.68-38.976-87.744a7339.2 7339.2 0 0 0-52.896-186.56c-5.568-16.704-12.544-30.624-20.864-45.952-4.192-6.976-11.136-13.92-16.704-19.488-6.976-5.568-15.328-4.16-23.68 0-13.92 8.352-38.976 25.056-38.976 25.056l-29.28-37.6c36.192-33.408 114.176-98.848 114.176-98.848 15.328-12.544 45.984-34.816 66.816-37.6 29.248-4.192 52.896 5.568 69.6 30.624 15.328 23.68 20.896 51.52 25.056 79.36 9.76 57.088 15.328 114.176 32.032 169.856 4.192 13.92 11.136 27.84 18.112 40.384 9.76 15.328 20.896 18.112 34.816 6.944 5.568-4.16 9.76-8.352 13.92-13.92 27.84-33.408 51.552-72.384 66.848-112.768 4.192-12.544 4.192-23.68 4.192-37.6 0-18.112-13.92-34.816-34.816-36.192s-33.408 1.408-54.304 9.728c8.352-33.408 33.408-86.304 75.168-116.96 40.384-29.248 98.848-33.408 130.88-22.272s50.112 32.032 57.088 64.032h0.032z" fill="#FFFFFF" p-id="23314"></path></svg>