<?xml version="1.0" encoding="UTF-8"?>
<svg width="43px" height="43px" viewBox="0 0 43 43" version="1.1" xmlns="http://www.w3.org/2000/svg" xmlns:xlink="http://www.w3.org/1999/xlink">
    <!-- Generator: Sketch 50 (54983) - http://www.bohemiancoding.com/sketch -->
    <title>标签-1 copy 2</title>
    <desc>Created with Sketch.</desc>
    <defs>
        <linearGradient x1="16.9949906%" y1="-12.1148975%" x2="95.8090194%" y2="92.3033546%" id="linearGradient-1">
            <stop stop-color="#2258E0" offset="0%"></stop>
            <stop stop-color="#082A55" offset="59.4391656%"></stop>
            <stop stop-color="#092C5B" offset="100%"></stop>
        </linearGradient>
    </defs>
    <g id="标签-1-copy-2" stroke="none" stroke-width="1" fill="none" fill-rule="evenodd">
        <g id="Group-44" transform="translate(0.000000, 5.000000)">
            <path d="M43,7.16666667 L0,7.16666667 L0,5 C-3.38176876e-16,2.23857625 2.23857625,5.07265313e-16 5,0 L38,0 C40.7614237,-5.07265313e-16 43,2.23857625 43,5 L43,7.16666667 Z M43,8.95833333 L43,27.25 C43,30.0114237 40.7614237,32.25 38,32.25 L5,32.25 C2.23857625,32.25 3.38176876e-16,30.0114237 0,27.25 L0,8.95833333 L43,8.95833333 Z M29.5625,19.7083333 L29.5625,22.3958333 L37.625,22.3958333 L37.625,19.7083333 L29.5625,19.7083333 Z" id="Combined-Shape" fill="url(#linearGradient-1)"></path>
            <text id="逸" font-family="-5, 【何尼玛】土肥圆" font-size="13" font-weight="normal" fill="#A7C0FF">
                <tspan x="5" y="22">逸</tspan>
            </text>
        </g>
    </g>
</svg>