<?xml version="1.0" encoding="utf-8"?>
<!-- Generator: Adobe Illustrator 22.1.0, SVG Export Plug-In . SVG Version: 6.00 Build 0)  -->
<svg version="1.1" id="图层_1" xmlns="http://www.w3.org/2000/svg" xmlns:xlink="http://www.w3.org/1999/xlink" x="0px" y="0px"
	 viewBox="0 0 81 81" style="enable-background:new 0 0 81 81;" xml:space="preserve">
<style type="text/css">
	.st0{fill:#FFFFFF;}
	.st1{fill:rgba(255,255,255,0.8);}
</style>
<path class="st0" d="M54.8,31c0.9,0,1.9,0.1,2.8,0.2C55.1,19.6,42.7,11,28.7,11C12.9,11,0,21.7,0,35.4c0,7.9,4.3,14.3,11.5,19.3
	l-2.9,8.6l10-5c3.6,0.7,6.5,1.4,10,1.4c0.9,0,1.8,0,2.7-0.1c-0.6-1.9-0.9-3.9-0.9-6C30.4,41.1,41.2,31,54.8,31z M39.4,23.2
	c2.1,0,3.6,1.4,3.6,3.6s-1.4,3.6-3.6,3.6c-2.1,0-4.3-1.4-4.3-3.6C35.1,24.6,37.2,23.2,39.4,23.2z M19.3,30.4c-2.1,0-4.3-1.4-4.3-3.6
	c0-2.1,2.2-3.6,4.3-3.6s3.6,1.4,3.6,3.6S21.5,30.4,19.3,30.4z"/>
<path class="st1" d="M81,53.3c0-11.5-11.5-20.8-24.3-20.8c-13.6,0-24.4,9.4-24.4,20.8S43,74.1,56.6,74.1c2.9,0,5.7-0.7,8.6-1.4l7.9,4.3L71,69.8
	C76.7,65.5,81,59.8,81,53.3z M48.7,49.7c-1.4,0-2.9-1.4-2.9-2.9c0-1.4,1.4-2.9,2.9-2.9c2.2,0,3.6,1.4,3.6,2.9
	C52.3,48.3,50.9,49.7,48.7,49.7z M64.5,49.7c-1.4,0-2.8-1.4-2.8-2.9c0-1.4,1.4-2.9,2.8-2.9c2.1,0,3.6,1.4,3.6,2.9
	C68,48.3,66.6,49.7,64.5,49.7z"/>
</svg>
