<?xml version="1.0" standalone="no"?><!DOCTYPE svg PUBLIC "-//W3C//DTD SVG 1.1//EN" "http://www.w3.org/Graphics/SVG/1.1/DTD/svg11.dtd"><svg t="1540437853091" class="icon" style="" viewBox="0 0 1024 1024" version="1.1" xmlns="http://www.w3.org/2000/svg" p-id="7531" xmlns:xlink="http://www.w3.org/1999/xlink" width="128" height="128"><defs><style type="text/css"></style></defs><path d="M512 0C229.376 0 0 229.376 0 512s229.376 512 512 512 512-229.376 512-512S794.624 0 512 0z m0 245.76c57.344 0 102.4 45.056 102.4 102.4s-45.056 102.4-102.4 102.4-102.4-45.056-102.4-102.4 45.056-102.4 102.4-102.4z m112.64 532.48h-225.28c-61.44 0-112.64-51.2-112.64-112.64s51.2-112.64 112.64-112.64h225.28c61.44 0 112.64 51.2 112.64 112.64S686.08 778.24 624.64 778.24z" fill="#8a8a8a" p-id="7532"></path></svg>