<?xml version="1.0" standalone="no"?><!DOCTYPE svg PUBLIC "-//W3C//DTD SVG 1.1//EN" "http://www.w3.org/Graphics/SVG/1.1/DTD/svg11.dtd"><svg t="1540891431722" class="icon" style="" viewBox="0 0 1365 1024" version="1.1" xmlns="http://www.w3.org/2000/svg" p-id="8788" xmlns:xlink="http://www.w3.org/1999/xlink" width="170.625" height="128"><defs><style type="text/css"></style></defs><path d="M1290.126222 694.897778c-45.056 0-75.150222-29.297778-75.150222-73.159111V402.261333c0-36.579556 30.151111-73.159111 75.150222-73.159111 37.660444 0 75.207111 29.297778 75.207111 73.159111v226.759111c0 36.579556-30.037333 65.934222-75.207111 65.934223v-0.056889z m-300.657778 182.840889c-45.056 0-75.207111-29.297778-75.207111-73.159111V219.420444c0-36.636444 30.094222-73.159111 75.207111-73.159111 37.546667 0 75.150222 29.184 75.150223 73.159111v585.159112c0 43.804444-30.151111 73.159111-75.150223 73.159111zM683.975111 1024c-45.112889 0-75.207111-29.184-75.207111-73.159111V73.159111C608.711111 36.522667 638.862222 0 683.918222 0c37.660444 0 75.207111 29.184 75.207111 73.159111v877.681778c0 43.975111-30.037333 73.159111-75.207111 73.159111z m-305.493333-146.261333c-45.112889 0-75.150222-29.297778-75.150222-73.159111V219.420444c0-36.636444 30.037333-73.159111 75.207111-73.159111 37.546667 0 79.872 29.184 79.872 73.159111v585.159112c0 43.804444-34.816 73.159111-79.872 73.159111z m-303.274667-182.840889C30.151111 694.897778 0 665.6 0 621.738667V402.261333c0-36.579556 30.151111-73.159111 75.207111-73.159111 37.603556 0 79.928889 29.297778 79.928889 73.159111v226.759111c0 36.579556-34.816 65.934222-79.928889 65.934223v-0.056889z" fill="#ffffff" p-id="8789"></path></svg>