<?xml version="1.0" standalone="no"?><!DOCTYPE svg PUBLIC "-//W3C//DTD SVG 1.1//EN" "http://www.w3.org/Graphics/SVG/1.1/DTD/svg11.dtd"><svg t="1540536299784" class="icon" style="" viewBox="0 0 1024 1024" version="1.1" xmlns="http://www.w3.org/2000/svg" p-id="7306" xmlns:xlink="http://www.w3.org/1999/xlink" width="128" height="128"><defs><style type="text/css"></style></defs><path d="M512 972.288c-14.620672 0-24.832-10.211328-24.832-24.832l0-60.389376-2.861056-0.196608c-82.025472-5.630976-158.757888-41.747456-216.064-101.694464C208.840704 723.038208 176.128 641.486848 176.128 555.544576c0-14.619648 10.211328-24.830976 24.832-24.830976 14.620672 0 24.832 10.211328 24.832 24.830976 0 76.028928 29.401088 147.447808 82.788352 201.10336C361.859072 810.191872 432.628736 839.68 507.8528 839.68l6.2208 0c76.12928 0 147.545088-29.4912 201.09312-83.04128C768.7168 703.08864 798.208 631.672832 798.208 555.544576c0-14.619648 10.211328-24.830976 24.832-24.830976S847.872 540.924928 847.872 555.544576c0 85.942272-32.713728 167.492608-92.114944 229.630976-57.305088 59.947008-134.038528 96.063488-216.064 101.694464l-2.861056 0.196608 0 60.389376C536.832 962.076672 526.620672 972.288 512 972.288z" p-id="7307" fill="#ffffff"></path><path d="M823.04 532.2496c13.71648 0 23.296 9.578496 23.296 23.294976 0 85.543936-32.562176 166.719488-91.68896 228.570112-57.040896 59.669504-133.41696 95.618048-215.059456 101.223424l-4.291584 0.294912 0 61.822976c0 13.71648-9.57952 23.296-23.296 23.296-13.71648 0-23.296-9.57952-23.296-23.296l0-61.822976-4.291584-0.294912c-81.642496-5.605376-158.017536-41.552896-215.059456-101.223424-59.126784-61.850624-91.68896-143.026176-91.68896-228.570112 0-13.71648 9.57952-23.294976 23.296-23.294976S224.256 541.82912 224.256 555.544576c0 76.437504 29.560832 148.242432 83.23584 202.185728C361.060352 811.567104 432.217088 841.216 507.8528 841.216l6.2208 0c76.53888 0 148.34176-29.650944 202.179584-83.490816C770.093056 703.885312 799.744 632.083456 799.744 555.544576 799.744 541.82912 809.32352 532.2496 823.04 532.2496M823.04 529.1776c-7.45472 0-14.189568 2.629632-18.96448 7.40352-4.774912 4.774912-7.404544 11.50976-7.404544 18.963456 0 75.717632-29.331456 146.748416-82.59072 200.00768C660.824064 808.812544 589.79328 838.144 514.0736 838.144l-6.2208 0c-74.812416 0-145.195008-29.32736-198.183936-82.58048C256.570368 702.199808 227.328 631.164928 227.328 555.544576c0-7.453696-2.629632-14.188544-7.404544-18.963456-4.774912-4.773888-11.50976-7.40352-18.963456-7.40352s-14.189568 2.629632-18.96448 7.40352c-4.774912 4.774912-7.404544 11.50976-7.404544 18.963456 0 86.33856 32.86528 168.267776 92.539904 230.692864 57.571328 60.224512 134.66112 96.50688 217.069568 102.165504l1.430528 0.098304 0 58.954752c0 7.453696 2.629632 14.188544 7.404544 18.963456C497.810432 971.194368 504.54528 973.824 512 973.824s14.189568-2.629632 18.96448-7.404544c4.774912-4.774912 7.404544-11.50976 7.404544-18.963456l0-58.954752 1.430528-0.098304c82.407424-5.6576 159.49824-41.939968 217.068544-102.16448C816.543744 723.812352 849.408 641.88416 849.408 555.544576c0-7.453696-2.629632-14.188544-7.404544-18.963456C837.229568 531.807232 830.49472 529.1776 823.04 529.1776L823.04 529.1776z" p-id="7308" fill="#ffffff"></path><path d="M512 97.792c43.94496 0 85.410816 17.26464 116.760576 48.6144 31.34976 31.350784 48.615424 72.81664 48.615424 116.760576L677.376 553.472c0 43.94496-17.26464 85.410816-48.615424 116.760576C597.410816 701.582336 555.943936 718.848 512 718.848s-85.410816-17.265664-116.7616-48.616448C363.88864 638.882816 346.624 597.41696 346.624 553.472L346.624 263.166976c0-43.943936 17.265664-85.409792 48.6144-116.759552C426.589184 115.05664 468.05504 97.792 512 97.792M512 48.64c-57.073664 0-110.88384 22.378496-151.517184 63.010816-40.633344 40.634368-63.01184 94.442496-63.01184 151.51616L297.470976 553.472c0 57.07264 22.378496 110.882816 63.01184 151.51616C401.117184 745.621504 454.926336 768 512 768s110.882816-22.378496 151.517184-63.01184C704.150528 664.354816 726.528 610.54464 726.528 553.472L726.528 263.166976c0-57.07264-22.378496-110.881792-63.01184-151.51616C622.88384 71.018496 569.073664 48.64 512 48.64L512 48.64z" p-id="7309" fill="#ffffff"></path></svg>