<?xml version="1.0" standalone="no"?><!DOCTYPE svg PUBLIC "-//W3C//DTD SVG 1.1//EN" "http://www.w3.org/Graphics/SVG/1.1/DTD/svg11.dtd"><svg t="1541657965646" class="icon" style="" viewBox="0 0 1024 1024" version="1.1" xmlns="http://www.w3.org/2000/svg" p-id="2169" xmlns:xlink="http://www.w3.org/1999/xlink" width="128" height="128"><defs><style type="text/css"></style></defs><path d="M40.812571 448.219429l69.978286 34.130285A408.034286 408.034286 0 0 0 109.714286 511.998857c0 222.176 180.108571 402.285714 402.285714 402.285714 104.082286 0 198.932571-39.526857 270.357714-104.388571l69.940572 34.112C765.957714 932.491429 645.394286 987.427429 512 987.427429c-262.571429 0-475.428571-212.857143-475.428571-475.428572 0-21.627429 1.444571-42.916571 4.241142-63.779428z m101.580572-235.281143C229.556571 105.348571 362.746286 36.571429 512 36.571429c262.571429 0 475.428571 212.857143 475.428571 475.428571 0 36.854857-4.193143 72.730286-12.129142 107.173714l-67.822858-33.078857C911.947429 562.078857 914.285714 537.312 914.285714 512c0-222.176-180.108571-402.285714-402.285714-402.285714-120.201143 0-228.089143 52.717714-301.804571 136.293714l-67.803429-33.069714z" p-id="2170" fill="#8a8a8a"></path></svg>