<?xml version="1.0" standalone="no"?><!DOCTYPE svg PUBLIC "-//W3C//DTD SVG 1.1//EN" "http://www.w3.org/Graphics/SVG/1.1/DTD/svg11.dtd"><svg t="1540971200730" class="icon" style="" viewBox="0 0 1024 1024" version="1.1" xmlns="http://www.w3.org/2000/svg" p-id="3278" xmlns:xlink="http://www.w3.org/1999/xlink" width="128" height="128"><defs><style type="text/css"></style></defs><path d="M0 101.587302c0-56.888889 44.698413-101.587302 101.587302-101.587302h820.825396c56.888889 0 101.587302 44.698413 101.587302 101.587302v820.825396c0 56.888889-44.698413 101.587302-101.587302 101.587302H101.587302c-56.888889 0-101.587302-44.698413-101.587302-101.587302V101.587302z" fill="#C6DBF8" p-id="3279"></path><path d="M512 229.587302c-138.15873 0-199.111111 75.174603-199.111111 199.111111v347.428571H711.111111V428.698413c0-123.936508-81.269841-199.111111-199.111111-199.111111" fill="#A67C52" p-id="3280"></path><path d="M560.761905 601.396825h-97.52381l-26.412698 99.555556v323.047619h150.349206V700.952381z" fill="#DBB59A" p-id="3281"></path><path d="M215.365079 824.888889c-46.730159 46.730159-48.761905 199.111111-48.761904 199.111111h347.428571l-97.523809-296.634921c-2.031746-2.031746-178.793651 75.174603-201.142858 97.52381m595.301588 0c-24.380952-24.380952-199.111111-97.52381-199.111111-97.52381l-97.52381 296.634921h345.396825s-2.031746-152.380952-48.761904-199.111111" fill="#48A0DC" p-id="3282"></path><path d="M587.174603 700.952381l-75.174603 323.047619h24.380952l75.174604-172.698413 123.936507-24.380952-148.31746-125.968254z m-298.666666 123.936508l123.936507 24.380952 75.174604 172.698413h24.380952l-75.174603-323.047619-148.31746 125.968254z" fill="#FFFFFF" p-id="3283"></path><path d="M581.079365 377.904762c-20.31746 42.666667-85.333333 75.174603-166.603175 75.174603H365.714286c-2.031746 42.666667 6.095238 85.333333 24.380952 123.936508 24.380952 48.761905 75.174603 97.52381 123.936508 97.52381s97.52381-48.761905 123.936508-97.52381c22.349206-44.698413 24.380952-87.365079 24.380952-148.31746-2.031746-28.444444-54.857143-50.793651-81.269841-50.793651" fill="#F6CBAD" p-id="3284"></path><path d="M729.396825 392.126984c-22.349206-79.238095-111.746032-138.15873-217.396825-138.15873s-197.079365 58.920635-217.396825 138.15873c-16.253968 8.126984-30.47619 22.349206-30.476191 36.571429v48.761904c0 26.412698 46.730159 48.761905 75.174603 48.761905v-97.523809c0-69.079365 79.238095-123.936508 172.698413-123.936508s172.698413 54.857143 172.698413 123.936508v48.761904c0 50.793651-32.507937 97.52381-81.269842 115.809524-6.095238-10.15873-18.285714-16.253968-30.47619-16.253968h-48.761905c-20.31746 0-36.571429 16.253968-36.571428 36.571429s16.253968 36.571429 36.571428 36.571428h48.761905c4.063492 0 6.095238 0 10.15873-2.031746 73.142857-10.15873 132.063492-65.015873 146.285714-136.126984 14.222222-6.095238 26.412698-20.31746 28.444445-36.571429V426.666667c2.031746-12.190476-12.190476-26.412698-28.444445-34.539683" fill="#4D4D4D" p-id="3285"></path></svg>