<?xml version="1.0" encoding="utf-8"?>
<!-- Generator: Adobe Illustrator 22.1.0, SVG Export Plug-In . SVG Version: 6.00 Build 0)  -->
<svg version="1.1" id="图层_1" xmlns="http://www.w3.org/2000/svg" xmlns:xlink="http://www.w3.org/1999/xlink" x="0px" y="0px"
	 viewBox="0 0 132.1 128" style="enable-background:new 0 0 132.1 128;" xml:space="preserve">
<style type="text/css">
	.st0{fill:#D6B77C;}
	.st1{fill:#FFFFFF;}
</style>
<path class="st0" d="M0.5,64c0,35.3,28.7,64,64,64s64-28.7,64-64S99.9,0,64.5,0S0.5,28.7,0.5,64z"/>
<path class="st1" d="M111.4,106.1c-9.3-5.9-24-11-25.5-11.8c-1.6-0.8-9.3-3.2-9.6-9.3c-0.2-5.4,4.9-7.4,9.6-13.1
	c3.2-6.2,7.5-21.1,3.2-34.7c-7.2-16.5-24-16.5-24-16.5l-0.5,0.2L64,20.7c0,0-16.8,0-24,16.5c-4.3,13.6,0,29.2,3.2,34.7
	c4.7,5.7,9.8,7.7,9.6,13.1c-0.3,6.1-8,8.5-9.6,9.3c-1.5,0.7-16.2,5.9-25.5,11.8c0,0-0.1,0.1-0.1,0.1c11.7,12.6,28.4,20.5,46.9,20.5
	C83.1,126.6,99.8,118.7,111.4,106.1C111.4,106.1,111.4,106.1,111.4,106.1z"/>
</svg>
