<?xml version="1.0" standalone="no"?><!DOCTYPE svg PUBLIC "-//W3C//DTD SVG 1.1//EN" "http://www.w3.org/Graphics/SVG/1.1/DTD/svg11.dtd"><svg t="1541658398693" class="icon" style="" viewBox="0 0 1024 1024" version="1.1" xmlns="http://www.w3.org/2000/svg" p-id="3883" xmlns:xlink="http://www.w3.org/1999/xlink" width="128" height="128"><defs><style type="text/css"></style></defs><path d="M512 0C229.376 0 0 229.376 0 512s229.376 512 512 512 512-229.376 512-512S794.624 0 512 0z m-2.048 794.624c-29.184 0-53.248-23.552-53.248-53.248 0-29.184 23.552-53.248 53.248-53.248 29.184 0 53.248 23.552 53.248 53.248 0 29.184-23.552 53.248-53.248 53.248z m37.888-166.912H472.064l-15.36-370.688c0-13.312 10.752-24.064 24.064-24.064h58.368c13.312 0 24.064 10.752 24.064 24.064l-15.36 370.688z" fill="#F76260" p-id="3884"></path></svg>