<?xml version="1.0" encoding="utf-8"?>
<!-- Generator: Adobe Illustrator 22.1.0, SVG Export Plug-In . SVG Version: 6.00 Build 0)  -->
<svg version="1.1" id="图层_1" xmlns="http://www.w3.org/2000/svg" xmlns:xlink="http://www.w3.org/1999/xlink" x="0px" y="0px"
	 viewBox="0 0 128 128" style="enable-background:new 0 0 128 128;" xml:space="preserve">
<style type="text/css">
	.st0{fill:#8A8A8A;}
</style>
<path class="st0" d="M115.7,10.4H12.3c-6.6,0-11.9,5.3-11.9,11.9v79.5c0,6.6,5.3,11.9,11.9,11.9h103.4c6.6,0,11.9-5.3,11.9-11.9
	l0-79.5C127.6,15.8,122.3,10.4,115.7,10.4C115.7,10.4,115.7,10.4,115.7,10.4z M117.7,89.7l-25-33.3c0,0-1.4-2.7-6.5-2.7
	c-5.8,0-7.5,2.6-7.5,2.6L56.8,90.1c0,0-1.2,2.3-4.1,2.3c-3.1,0-4.5-2.3-4.5-2.3L36.7,77c0,0-2.9-3.9-6.8-3.9c-3.8,0-7,4.3-7,4.3
	L10.3,93.1V24.5c0-2.2,1.8-4,4-4h99.4c2.2,0,4,1.8,4,4L117.7,89.7C117.7,89.7,117.7,89.7,117.7,89.7z M58,46.2
	c0,7.8-6.3,14.1-14.1,14.1S29.9,54,29.9,46.2c0-7.8,6.3-14.1,14.1-14.1C51.7,32.2,58,38.5,58,46.2L58,46.2z"/>
</svg>
