<?xml version="1.0" standalone="no"?><!DOCTYPE svg PUBLIC "-//W3C//DTD SVG 1.1//EN" "http://www.w3.org/Graphics/SVG/1.1/DTD/svg11.dtd"><svg t="1540543542400" class="icon" style="" viewBox="0 0 1024 1024" version="1.1" xmlns="http://www.w3.org/2000/svg" p-id="13069" xmlns:xlink="http://www.w3.org/1999/xlink" width="128" height="128"><defs><style type="text/css"></style></defs><path d="M829 205.4C665.2 16 360.5 16 196.7 205.4l-1 1.2c-122.8 142-124.6 346.3-4.6 490.5 69.6 83.6 152.8 162.6 248.9 237.4 42.4 33 103.8 33.2 146.2 0.3 99-76.9 184.9-160.7 257.3-251.5C956.6 541.5 947.9 342.8 829 205.4zM512.9 585.5c-83 0-150.3-64-150.3-143s67.3-143 150.3-143 150.2 64 150.2 143c0 78.9-67.2 143-150.2 143z" fill="#8a8a8a" p-id="13070"></path></svg>