<?xml version="1.0" encoding="utf-8"?>
<!-- Generator: Adobe Illustrator 22.1.0, SVG Export Plug-In . SVG Version: 6.00 Build 0)  -->
<svg version="1.1" id="图层_1" xmlns="http://www.w3.org/2000/svg" xmlns:xlink="http://www.w3.org/1999/xlink" x="0px" y="0px"
	 viewBox="0 0 128 128" style="enable-background:new 0 0 128 128;" xml:space="preserve">
<style type="text/css">
	.st0{fill:#4eb4ff;}
</style>
<path class="st0" d="M64,80c11.7,0,21.2-10.7,21.2-24V24c0-13.3-9.5-24-21.2-24S42.8,10.7,42.8,24v32C42.8,69.3,52.3,80,64,80z
	 M102.9,58L102.9,58c0-3.4-2.4-6-5.3-6c-2.9,0-5.3,2.7-5.3,6c0,17.7-12.7,32-28.3,32c-15.6,0-28.3-14.3-28.3-32c0-3.3-2.4-6-5.3-6
	s-5.3,2.7-5.3,6v0c0,22.2,14.6,40.6,33.6,43.5V116H41c-2.9,0-5.3,2.7-5.3,6s2.4,6,5.3,6H87c2.9,0,5.3-2.7,5.3-6s-2.4-6-5.3-6H69.3
	v-14.5C88.2,98.6,102.9,80.3,102.9,58z"/>
</svg>
