<?xml version="1.0" standalone="no"?><!DOCTYPE svg PUBLIC "-//W3C//DTD SVG 1.1//EN" "http://www.w3.org/Graphics/SVG/1.1/DTD/svg11.dtd"><svg t="1540361863216" class="icon" style="" viewBox="0 0 1024 1024" version="1.1" xmlns="http://www.w3.org/2000/svg" p-id="3032" xmlns:xlink="http://www.w3.org/1999/xlink" width="128" height="128"><defs><style type="text/css"></style></defs><path d="M512 1024C230.4 1024 0 793.6 0 512S230.4 0 512 0s512 230.4 512 512-230.4 512-512 512z" fill="#3AB394" p-id="3033"></path><path d="M650.68 208.872c-86.408-22.696-104.52 54.8-104.52 54.8l61.032 27.16-8.728 33.584s-89.392-34.792-157.832-4.512c-4.352 1.928-14.208-30.288-14.208-30.288s70.576-13.328 64.512-28.104c-18.64-45.392-61.464-66.792-107.128-52.656-6.832 2.128-75.088 23.464-51.752 108.016 4.56 16.52 63.928-14.136 63.928-14.136l8.12 29.272c-36.672 28.816-104.52 67.632-122.784 138.296-39.936 154.552 43.632 236.224 43.632 236.224l23.336 27.256-35.4 81.68 178.416 207.992c6.872 0.296 13.76 0.544 20.696 0.544 281.6 0 512-230.4 512-512 0-34.288-3.472-67.792-9.984-100.24-52.432-33.912-284.336-182.136-363.336-202.888z" fill="#00875D" p-id="3034"></path><path d="M376.552 216.848c-41.088 17.128-60.504 64.32-43.376 105.4a80 80 0 0 0 3.752 7.768l147.904-61.664a78.88 78.88 0 0 0-2.88-8.136c-17.12-41.08-64.312-60.496-105.4-43.368" fill="#F7BE15" p-id="3035"></path><path d="M339.256 335.608l-7.624-2.68a85.6 85.6 0 0 1-4.04-8.352c-8.896-21.352-8.96-44.904-0.152-66.304 8.8-21.408 25.416-38.096 46.784-47 21.36-8.896 44.92-8.96 66.312-0.152 21.408 8.808 38.096 25.424 47.008 46.784a87.588 87.588 0 0 1 3.088 8.744l-3.48 7.304-147.896 61.656z m68.312-118.952a74.44 74.44 0 0 0-28.696 5.784c-18.368 7.656-32.664 22.016-40.248 40.432-7.576 18.416-7.528 38.68 0.136 57.056 0.32 0.792 0.672 1.584 1.024 2.352l137.528-57.336c-0.296-0.8-0.608-1.6-0.944-2.392-7.656-18.368-22.024-32.664-40.44-40.248a74.296 74.296 0 0 0-28.36-5.648m-31.016 0.192h0.08-0.08z" fill="#474341" p-id="3036"></path><path d="M424.736 292.956l12.616 29.868-29.868 12.616-12.616-29.868z" fill="#DD9D00" p-id="3037"></path><path d="M409.816 341.016l-7.912-3.216-12.624-29.88 3.216-7.928 29.872-12.616 7.928 3.216 12.608 29.872-3.224 7.936-29.864 12.616z m-7.04-32.232l7.912 18.728 18.72-7.912-7.904-18.72-18.728 7.904z" fill="#474341" p-id="3038"></path><path d="M652.912 216.848c41.088 17.128 60.504 64.32 43.376 105.4a80 80 0 0 1-3.752 7.768l-147.904-61.664a78.88 78.88 0 0 1 2.88-8.136c17.128-41.08 64.32-60.496 105.4-43.368" fill="#F7BE15" p-id="3039"></path><path d="M690.216 335.608l-147.904-61.664-3.48-7.304c0.88-2.936 1.888-5.864 3.104-8.752 8.904-21.36 25.592-37.976 47-46.784s44.952-8.736 66.304 0.152c21.368 8.912 37.976 25.6 46.792 47 8.808 21.4 8.752 44.952-0.152 66.312a84.664 84.664 0 0 1-4.04 8.352l-7.624 2.688z m-138.072-70.672l137.536 57.336c0.352-0.768 0.696-1.552 1.024-2.336 7.672-18.384 7.704-38.648 0.128-57.064s-21.872-32.776-40.248-40.432c-18.368-7.656-38.632-7.72-57.056-0.136-18.416 7.576-32.776 21.872-40.44 40.248-0.328 0.792-0.64 1.592-0.944 2.384" fill="#474341" p-id="3040"></path><path d="M634.604 305.594l-12.616 29.87-29.868-12.616 12.616-29.87z" fill="#DD9D00" p-id="3041"></path><path d="M619.656 341.016l-29.872-12.624-3.216-7.928 12.624-29.872 7.912-3.216 29.864 12.616 3.224 7.928-12.616 29.872-7.92 3.224z m-19.6-21.408l18.728 7.912 7.904-18.728-18.72-7.904-7.912 18.72z" fill="#474341" p-id="3042"></path><path d="M748.184 549.624c0 131.872-106.904 238.776-238.776 238.776s-238.784-106.904-238.784-238.776S377.528 310.848 509.4 310.848s238.784 106.904 238.784 238.776" fill="#F7BE15" p-id="3043"></path><path d="M509.408 794.448c-135 0-244.832-109.832-244.832-244.824S374.408 304.8 509.408 304.8 754.24 414.624 754.24 549.624s-109.832 244.824-244.832 244.824m0-477.56c-128.328 0-232.728 104.4-232.728 232.728 0 128.336 104.4 232.728 232.728 232.728s232.728-104.4 232.728-232.728c0-128.32-104.4-232.728-232.728-232.728" fill="#474341" p-id="3044"></path><path d="M711.032 549.624c0 111.352-90.264 201.624-201.624 201.624s-201.624-90.272-201.624-201.624S398.056 348 509.408 348s201.624 90.264 201.624 201.624" fill="#F4EDDD" p-id="3045"></path><path d="M509.408 755.472c-113.512 0-205.864-92.344-205.864-205.848 0-113.512 92.344-205.864 205.864-205.864 113.504 0 205.856 92.352 205.856 205.864 0 113.504-92.352 205.848-205.856 205.848m0-403.24c-108.848 0-197.392 88.552-197.392 197.392s88.544 197.384 197.392 197.384c108.84 0 197.384-88.544 197.384-197.384s-88.544-197.392-197.384-197.392" fill="#474341" p-id="3046"></path><path d="M509.408 408.128a6.05 6.05 0 0 1-6.056-6.048v-34a6.05 6.05 0 0 1 6.056-6.048 6.05 6.05 0 0 1 6.056 6.048v34a6.056 6.056 0 0 1-6.056 6.048M509.408 737.208a6.05 6.05 0 0 1-6.056-6.048v-34a6.05 6.05 0 0 1 6.056-6.048 6.05 6.05 0 0 1 6.056 6.048v34a6.05 6.05 0 0 1-6.056 6.048M690.952 555.672h-34a6.05 6.05 0 1 1 0-12.096h34a6.05 6.05 0 0 1 6.056 6.048 6.066 6.066 0 0 1-6.056 6.048M361.864 555.672h-34a6.05 6.05 0 1 1 0-12.096h34a6.05 6.05 0 0 1 6.056 6.048 6.06 6.06 0 0 1-6.056 6.048" fill="#474341" p-id="3047"></path><path d="M601.496 402.08c0 3.104-2.512 5.616-5.616 5.616s-5.616-2.512-5.616-5.616 2.512-5.616 5.616-5.616a5.612 5.612 0 0 1 5.616 5.616" fill="" p-id="3048"></path><path d="M595.88 411.968c-5.448 0-9.888-4.44-9.888-9.888s4.44-9.88 9.888-9.88 9.888 4.44 9.888 9.88a9.9 9.9 0 0 1-9.888 9.888m0-11.232c-0.744 0-1.352 0.6-1.352 1.344 0 1.488 2.704 1.488 2.704 0a1.348 1.348 0 0 0-1.352-1.344" fill="#474341" p-id="3049"></path><path d="M656.088 467.992c0 3.104-2.512 5.616-5.616 5.616s-5.616-2.512-5.616-5.616 2.512-5.616 5.616-5.616a5.624 5.624 0 0 1 5.616 5.616" fill="" p-id="3050"></path><path d="M650.472 477.88c-5.448 0-9.888-4.44-9.888-9.888s4.44-9.888 9.888-9.888 9.888 4.44 9.888 9.888a9.9 9.9 0 0 1-9.888 9.888m0-11.232c-0.744 0-1.352 0.6-1.352 1.352 0 1.488 2.704 1.488 2.704 0a1.35 1.35 0 0 0-1.352-1.352" fill="#474341" p-id="3051"></path><path d="M368.8 622.48c0 3.104-2.512 5.616-5.616 5.616s-5.616-2.512-5.616-5.616 2.512-5.616 5.616-5.616a5.612 5.612 0 0 1 5.616 5.616" fill="" p-id="3052"></path><path d="M363.184 632.368a9.902 9.902 0 0 1-9.888-9.88c0-5.448 4.44-9.888 9.888-9.888s9.888 4.44 9.888 9.888c0 5.44-4.432 9.88-9.888 9.88m0-11.24c-0.744 0-1.352 0.6-1.352 1.352 0 1.488 2.704 1.488 2.704 0a1.356 1.356 0 0 0-1.352-1.352" fill="#474341" p-id="3053"></path><path d="M423.392 688.4c0 3.104-2.512 5.616-5.616 5.616s-5.616-2.512-5.616-5.616 2.512-5.616 5.616-5.616 5.616 2.512 5.616 5.616" fill="" p-id="3054"></path><path d="M417.776 698.28c-5.448 0-9.888-4.44-9.888-9.888s4.44-9.88 9.888-9.88 9.888 4.44 9.888 9.88a9.9 9.9 0 0 1-9.888 9.888m0-11.232c-0.744 0-1.352 0.6-1.352 1.344 0 1.488 2.704 1.488 2.704 0a1.348 1.348 0 0 0-1.352-1.344" fill="#474341" p-id="3055"></path><path d="M657.976 639.904c-3.104 0-5.616-2.512-5.616-5.616s2.512-5.616 5.616-5.616 5.616 2.512 5.616 5.616a5.612 5.612 0 0 1-5.616 5.616" fill="" p-id="3056"></path><path d="M657.984 644.176c-5.448 0-9.888-4.44-9.888-9.888s4.44-9.88 9.888-9.88 9.88 4.44 9.88 9.88c-0.008 5.448-4.44 9.888-9.88 9.888m0-11.232c-0.744 0-1.352 0.6-1.352 1.344 0 1.488 2.688 1.488 2.688 0a1.336 1.336 0 0 0-1.336-1.344" fill="#474341" p-id="3057"></path><path d="M592.064 694.496c-3.104 0-5.616-2.512-5.616-5.616s2.512-5.616 5.616-5.616 5.616 2.512 5.616 5.616a5.624 5.624 0 0 1-5.616 5.616" fill="" p-id="3058"></path><path d="M592.064 698.768a9.902 9.902 0 0 1-9.888-9.88c0-5.448 4.44-9.888 9.888-9.888s9.88 4.44 9.88 9.888c0 5.44-4.432 9.88-9.88 9.88m0-11.232c-0.744 0-1.352 0.6-1.352 1.352 0 1.488 2.688 1.488 2.688 0a1.332 1.332 0 0 0-1.336-1.352" fill="#474341" p-id="3059"></path><path d="M437.576 407.208c-3.104 0-5.616-2.512-5.616-5.616s2.512-5.616 5.616-5.616 5.616 2.512 5.616 5.616-2.512 5.616-5.616 5.616" fill="" p-id="3060"></path><path d="M437.576 411.48c-5.448 0-9.88-4.44-9.88-9.888s4.432-9.888 9.88-9.888 9.888 4.44 9.888 9.888a9.9 9.9 0 0 1-9.888 9.888m0-11.232c-0.744 0-1.344 0.6-1.344 1.352 0 1.488 2.688 1.488 2.688 0a1.34 1.34 0 0 0-1.344-1.352" fill="#474341" p-id="3061"></path><path d="M371.664 461.8c-3.104 0-5.616-2.512-5.616-5.616s2.512-5.616 5.616-5.616 5.616 2.512 5.616 5.616a5.624 5.624 0 0 1-5.616 5.616" fill="" p-id="3062"></path><path d="M371.656 466.072c-5.448 0-9.88-4.44-9.88-9.888s4.432-9.88 9.88-9.88 9.888 4.44 9.888 9.88a9.904 9.904 0 0 1-9.888 9.888m0-11.232a1.34 1.34 0 0 0-1.344 1.344c0 1.488 2.688 1.488 2.688 0a1.336 1.336 0 0 0-1.344-1.344" fill="#474341" p-id="3063"></path><path d="M502 535.032v-59.048c0-3.168 3.336-5.76 7.4-5.76 4.072 0 7.408 2.592 7.408 5.76v59.048" fill="#8B7A5C" p-id="3064"></path><path d="M521.08 535.032h-8.536v-59.048c0-0.44-1.216-1.496-3.128-1.496-2.056 0-3.144 1.112-3.144 1.496v59.048h-8.536v-59.048c0-5.528 5.24-10.032 11.68-10.032 6.432 0 11.664 4.504 11.664 10.032v59.048z" fill="#474341" p-id="3065"></path><path d="M522.904 544.392h107.624c3.264 0 5.928 3.336 5.928 7.4 0 4.072-2.664 7.408-5.928 7.408h-107.624" fill="#F3D8C2" p-id="3066"></path><path d="M630.528 563.464h-107.624v-8.536h107.624c0.576 0 1.672-1.224 1.672-3.128 0-1.92-1.096-3.136-1.672-3.136h-107.624v-8.536h107.624c5.632 0 10.2 5.24 10.2 11.68 0 6.424-4.576 11.656-10.2 11.656" fill="#474341" p-id="3067"></path><path d="M429.184 639.574l-6.12-5.952 72.7-74.71 6.118 5.952z" fill="#E9495B" p-id="3068"></path><path d="M525.792 549.52a16.394 16.394 0 0 1-16.392 16.392c-9.048 0-16.384-7.344-16.384-16.392s7.336-16.392 16.384-16.392c9.056 0.008 16.392 7.344 16.392 16.392" fill="#8B7A5C" p-id="3069"></path><path d="M509.408 570.176c-11.384 0-20.656-9.264-20.656-20.656s9.264-20.656 20.656-20.656c11.384 0 20.656 9.264 20.656 20.656s-9.264 20.656-20.656 20.656m0-32.768c-6.688 0-12.12 5.44-12.12 12.12s5.432 12.12 12.12 12.12c6.688 0 12.12-5.44 12.12-12.12s-5.432-12.12-12.12-12.12" fill="#474341" p-id="3070"></path><path d="M348.36 730.28l-32.04 77.912c-2.128 4.464-0.208 9.856 4.256 11.984 4.464 2.12 9.856 0.2 11.984-4.256l41.728-61.96" fill="#DD9D00" p-id="3071"></path><path d="M324.408 827.088a14.896 14.896 0 0 1-6.432-1.456 14.95 14.95 0 0 1-7.704-8.544 14.878 14.878 0 0 1 0.584-11.488l31.904-77.624a6.062 6.062 0 0 1 7.896-3.296 6.052 6.052 0 0 1 3.296 7.896l-32.04 77.912c-0.584 1.248-0.392 2.104-0.24 2.544 0.152 0.432 0.552 1.224 1.496 1.672 0.944 0.456 1.808 0.256 2.248 0.104 0.432-0.152 1.224-0.552 1.672-1.504l0.44-0.776 41.728-61.96a6.052 6.052 0 0 1 10.04 6.76l-41.512 61.624a15.034 15.034 0 0 1-13.376 8.136" fill="#474341" p-id="3072"></path><path d="M670.456 730.28l32.048 77.912c2.12 4.464 0.2 9.856-4.264 11.984-4.464 2.12-9.856 0.2-11.984-4.256l-41.728-61.96" fill="#DD9D00" p-id="3073"></path><path d="M694.4 827.088a15.04 15.04 0 0 1-13.376-8.128l-41.496-61.624a6.044 6.044 0 0 1 1.64-8.4 6.054 6.054 0 0 1 8.392 1.64l42.168 62.736c0.448 0.952 1.248 1.352 1.68 1.504 0.416 0.152 1.288 0.36 2.24-0.104a2.98 2.98 0 0 0 1.392-3.92l-32.176-78.208a6.046 6.046 0 0 1 3.296-7.896c3.08-1.264 6.624 0.2 7.896 3.296l32.048 77.912c3.416 7.2 0.224 16.184-7.248 19.744a15.132 15.132 0 0 1-6.456 1.448" fill="#474341" p-id="3074"></path></svg>