<?xml version="1.0" standalone="no"?><!DOCTYPE svg PUBLIC "-//W3C//DTD SVG 1.1//EN" "http://www.w3.org/Graphics/SVG/1.1/DTD/svg11.dtd"><svg t="1540362295530" class="icon" style="" viewBox="0 0 1024 1024" version="1.1" xmlns="http://www.w3.org/2000/svg" p-id="2218" xmlns:xlink="http://www.w3.org/1999/xlink" width="128" height="128"><defs><style type="text/css"></style></defs><path d="M511.999 511.999m-511.999 0a511.999 511.999 0 1 0 1023.998 0 511.999 511.999 0 1 0-1023.998 0Z" fill="#FFD630" p-id="2219"></path><path d="M1023.901998 522.101178l-125.680209-125.68021L144.830546 613.950792l412.703254 408.001172c258.124537-22.704399 461.324109-237.024166 466.368198-499.850786z" fill="#F5BE18" p-id="2220"></path><path d="M146.320572 388.048821l35.890631-6.192109c0-6.306111 5.160091-11.580204 11.580203-11.580203H600.990564c3.670065 0 6.880121 1.72003 9.06016 4.358076h248.952376c7.108125 0 12.958228 5.848103 12.958227 12.958228v0.458008h5.962105c14.104248 0 25.570449 9.404165 25.57045 20.870367v184.163237c0 11.466202-11.466202 20.870367-25.57045 20.870367H146.550576c-14.104248 0-26.488466-9.402165-25.570449-20.870367l15.36627-183.475225c0.916016-11.466202-3.900069-21.672381 10.206179-21.672381l-0.232004 0.112002z" fill="#3A99D7" p-id="2221"></path><path d="M187.7213 424.521462h52.634925v172.35503H187.7213z" fill="#C1E9FF" p-id="2222"></path><path d="M194.943427 431.385583h38.076669v66.289165H194.943427z" fill="#FFFFFF" p-id="2223"></path><path d="M763.367419 424.521462h52.634925v172.35503h-52.634925z" fill="#C1E9FF" p-id="2224"></path><path d="M770.591546 431.385583h38.076669v66.289165h-38.076669z" fill="#FFFFFF" p-id="2225"></path><path d="M819.672408 424.521462h52.634926v172.35503h-52.634926z" fill="#C1E9FF" p-id="2226"></path><path d="M826.894535 431.385583h38.07667v66.289165H826.894535z" fill="#FFFFFF" p-id="2227"></path><path d="M903.267878 581.38622v11.810207c0 11.466202-11.466202 20.870367-25.57045 20.870367H146.320572c-14.104248 0-25.570449-9.402165-25.570449-20.870367v-11.810207h782.517755z" fill="#E84F4F" p-id="2228"></path><path d="M299.407263 559.023827c-26.14446 0-47.360833 21.214373-47.360832 47.358832 0 26.14246 21.214373 47.360833 47.360832 47.360833s47.360833-21.214373 47.360833-47.360833c-0.002-26.14446-21.216373-47.358832-47.360833-47.358832z" fill="#333333" p-id="2229"></path><path d="M299.407263 577.600153c-15.93828 0-28.782506 12.958228-28.782506 28.782506 0 15.93828 12.958228 28.782506 28.782506 28.782506 15.93828 0 28.782506-12.958228 28.782506-28.782506 0.002-15.93828-12.958228-28.782506-28.782506-28.782506z" fill="#E6E6E6" p-id="2230"></path><path d="M299.407263 595.146462a11.256198 11.256198 0 0 0-11.238198 11.236197 11.256198 11.256198 0 0 0 11.238198 11.236198 11.256198 11.256198 0 0 0 11.238198-11.236198 11.256198 11.256198 0 0 0-11.238198-11.236197z" fill="#B3B3B3" p-id="2231"></path><path d="M260.190574 405.823134h71.555257c2.178038 0 3.900069 1.834032 3.900069 4.01407v56.532994c0 2.178038-1.72003 4.014071-3.900069 4.01407h-71.555257c-2.178038 0-3.900069-1.834032-3.900069-4.01407v-56.532994c0-2.180038 1.72003-4.014071 3.900069-4.01407z m412.47325 0h71.555258c2.178038 0 3.900069 1.834032 3.900069 4.01407v56.532994c0 2.178038-1.72003 4.014071-3.900069 4.01407h-71.555258c-2.178038 0-3.900069-1.834032-3.900068-4.01407v-56.532994c0.002-2.180038 1.72003-4.014071 3.900068-4.01407z m-103.089812 0h71.555258c2.178038 0 3.900069 1.834032 3.900068 4.01407v56.532994c0 2.178038-1.72003 4.014071-3.900068 4.01407h-71.555258c-2.178038 0-3.900069-1.834032-3.900069-4.01407v-56.532994c0.002-2.180038 1.72203-4.014071 3.900069-4.01407z m-103.089812 0h71.555258c2.178038 0 3.900069 1.834032 3.900068 4.01407v56.532994c0 2.178038-1.72003 4.014071-3.900068 4.01407h-71.555258c-2.178038 0-3.900069-1.834032-3.900069-4.01407v-56.532994c0-2.180038 1.72203-4.014071 3.900069-4.01407z m-103.089812 0h71.555258c2.178038 0 3.900069 1.834032 3.900068 4.01407v56.532994c0 2.178038-1.72003 4.014071-3.900068 4.01407h-71.555258c-2.178038 0-3.900069-1.834032-3.900069-4.01407v-56.532994c0.002-2.180038 1.72003-4.014071 3.900069-4.01407z" fill="#C1E9FF" p-id="2232"></path><path d="M135.426381 418.321353l24.768435-0.458008c4.930087-0.114002 8.944157 4.014071 8.944157 8.944157v100.223762a8.956157 8.956157 0 0 1-8.944157 8.944157H125.566207c-6.764119 0.57401 1.834032-125.336203 9.862174-117.76807l-0.002 0.114002z" fill="#FFFFFF" p-id="2233"></path><path d="M712.110518 559.023827c-26.14446 0-47.360833 21.214373-47.360833 47.358832 0 26.14246 21.214373 47.360833 47.360833 47.360833s47.358832-21.214373 47.358832-47.360833c-0.002-26.14446-21.214373-47.358832-47.358832-47.358832z" fill="#333333" p-id="2234"></path><path d="M712.110518 577.600153c-15.93828 0-28.782506 12.958228-28.782506 28.782506 0 15.93828 12.958228 28.782506 28.782506 28.782506 15.93828 0 28.782506-12.958228 28.782506-28.782506 0-15.93828-12.958228-28.782506-28.782506-28.782506z" fill="#E6E6E6" p-id="2235"></path><path d="M712.110518 595.146462a11.256198 11.256198 0 0 0-11.238198 11.236197 11.256198 11.256198 0 0 0 11.238198 11.236198 11.254198 11.254198 0 0 0 11.236197-11.236198 11.254198 11.254198 0 0 0-11.236197-11.236197z" fill="#B3B3B3" p-id="2236"></path><path d="M134.28036 551.455694h17.890315a8.600151 8.600151 0 0 1 8.600151 8.600151v6.192109a8.600151 8.600151 0 0 1-8.600151 8.600151h-17.890315a8.600151 8.600151 0 0 1-8.600151-8.600151v-6.192109a8.600151 8.600151 0 0 1 8.600151-8.600151z" fill="#FFFFFF" p-id="2237"></path><path d="M131.184306 586.202304h4.358077a5.848103 5.848103 0 0 1 5.848102 5.848103v4.358077a5.848103 5.848103 0 0 1-5.848102 5.848103h-4.358077a5.848103 5.848103 0 0 1-5.848103-5.848103v-4.358077a5.846103 5.846103 0 0 1 5.848103-5.848103z" fill="#666666" p-id="2238"></path></svg>