<?xml version="1.0" encoding="utf-8"?>
<!-- Generator: Adobe Illustrator 22.1.0, SVG Export Plug-In . SVG Version: 6.00 Build 0)  -->
<svg version="1.1" id="图层_1" xmlns="http://www.w3.org/2000/svg" xmlns:xlink="http://www.w3.org/1999/xlink" x="0px" y="0px"
	 viewBox="0 0 128 128" style="enable-background:new 0 0 128 128;" xml:space="preserve">
<style type="text/css">
	.st0{fill:#E6E6E6;}
	.st1{fill:#CCCCCC;}
	.st2{fill:#003F7A;}
	.st3{fill:#FBEAE8;}
	.st4{fill:#0054A3;}
	.st5{fill:#6AA1D2;}
</style>
<path class="st0" d="M0,64c0,35.3,28.6,64,64,64s64-28.6,64-64l0,0c0-35.3-28.6-64-64-64S0,28.6,0,64L0,64z"/>
<path class="st1" d="M63.8,128l-23.4-23.2l49.4-85.3l37.8,37.4c0.3,2.3,0.4,4.7,0.4,7c0,35.3-28.6,64-64,64L63.8,128L63.8,128z"/>
<path class="st2" d="M40.4,30.5l51.1-2c1.6-0.1,2.9,1.2,2.9,2.8v68.8c0,1.6-1.3,3-2.9,3l-51.1,2c-1.6,0.1-2.9-1.2-2.9-2.8V33.5
	C37.6,31.9,38.9,30.6,40.4,30.5z"/>
<path class="st3" d="M40.3,30.3l49.7-7c1.5-0.2,2.7,0.9,2.7,2.5v68.9c0,1.6-1.2,3-2.7,3.2l-49.7,6.9c-1.5,0.2-2.7-0.9-2.7-2.5V33.5
	C37.6,31.9,38.8,30.5,40.3,30.3z"/>
<path class="st4" d="M39.3,29.5L87.9,18c1.5-0.3,2.7,0.6,2.7,2.2v69c0,1.6-1.2,3.1-2.7,3.5l-48.6,11.5c-1.5,0.3-2.7-0.6-2.7-2.2V33
	C36.6,31.4,37.8,29.8,39.3,29.5z"/>
<path class="st5" d="M51,85.9L78.9,79c0.2-0.1,0.4,0.1,0.4,0.3v4c0,0.2-0.2,0.5-0.4,0.5l-27.9,7c-0.2,0.1-0.4-0.1-0.4-0.3v-4
	C50.6,86.2,50.8,86,51,85.9z"/>
<path class="st5" d="M43,49.5l41.1-10.1c0.3-0.1,0.6,0.1,0.6,0.5v5.9c0,0.3-0.3,0.7-0.6,0.8L43,56.7c-0.3,0.1-0.6-0.1-0.6-0.5v-5.9
	C42.4,50,42.6,49.6,43,49.5z"/>
</svg>
